<svg width="363" height="327" viewBox="0 0 363 327" fill="none" xmlns="http://www.w3.org/2000/svg">
<g clip-path="url(#clip0_132_26)">
<path d="M209.186 15.9152C212.3 23.8224 205.702 26.0621 198.144 30.3003C190.586 34.5385 184.931 39.1702 181.817 31.263C178.703 23.3557 176.177 7.66132 186.869 1.66569C197.929 -4.5365 206.073 8.00793 209.186 15.9152Z" fill="#2F2E41"/>
<path d="M193.766 31.4655C199.386 31.4655 203.941 26.0295 203.941 19.3238C203.941 12.618 199.386 7.18198 193.766 7.18198C188.147 7.18198 183.592 12.618 183.592 19.3238C183.592 26.0295 188.147 31.4655 193.766 31.4655Z" fill="#FFB8B8"/>
<path d="M244.173 73.1701C243.821 72.6214 243.469 72.0825 243.112 71.5585C242.653 70.8763 242.19 70.2155 241.725 69.5762C236.451 62.3141 230.842 57.7414 224.666 57.252H224.657L224.566 57.2421L212.259 71.5585L208.075 76.4229L208.166 76.6899L210.423 83.3982H249.981C248.198 79.8682 246.26 76.454 244.173 73.1701Z" fill="#2F2E41"/>
<path d="M182.702 24.212L186.344 22.1696L185.837 15.8996L188.272 21.0884L190.013 20.1123L189.717 16.4547L191.138 19.4815L204.073 12.2281C202.858 9.14291 200.666 6.75998 197.979 5.60354C195.292 4.44711 192.33 4.61189 189.744 6.06165L187.87 7.11288C185.284 8.56264 183.287 11.1786 182.318 14.3853C181.349 17.592 181.487 21.1268 182.702 24.212Z" fill="#2F2E41"/>
<path d="M266.998 244.605H54.5522C52.7401 244.603 51.0027 243.743 49.7213 242.213C48.4399 240.684 47.7191 238.611 47.717 236.448V84.1121C47.7185 82.5278 48.2466 81.0088 49.1853 79.8885C50.1241 78.7682 51.3969 78.138 52.7245 78.1362H268.739C270.09 78.138 271.385 78.7791 272.34 79.9188C273.295 81.0585 273.832 82.6037 273.833 84.2154V236.448C273.831 238.611 273.111 240.684 271.829 242.213C270.548 243.743 268.81 244.603 266.998 244.605Z" fill="#F2F2F2"/>
<path d="M61.1803 236.448H260.37C262.128 236.448 263.814 235.615 265.057 234.132C266.3 232.648 266.998 230.637 266.998 228.539V99.2422C266.998 97.1444 266.3 95.1326 265.057 93.6492C263.814 92.1659 262.128 91.3326 260.37 91.3326H61.1803C59.4225 91.3326 57.7366 92.1659 56.4936 93.6492C55.2506 95.1326 54.5522 97.1444 54.5522 99.2422V228.539C54.5522 230.637 55.2506 232.648 56.4936 234.132C57.7366 235.615 59.4225 236.448 61.1803 236.448Z" fill="white"/>
<path d="M273.738 83.6455H47.6211V79.4928C47.6237 77.323 48.3475 75.2431 49.6335 73.7093C50.9196 72.1755 52.663 71.3131 54.4812 71.3113H266.878C268.696 71.3131 270.44 72.1755 271.726 73.7093C273.012 75.2431 273.736 77.323 273.738 79.4928V83.6455Z" fill="#418F99"/>
<path d="M60.0883 79.6082C61.0683 79.6082 61.8627 78.6602 61.8627 77.4907C61.8627 76.3213 61.0683 75.3732 60.0883 75.3732C59.1083 75.3732 58.3138 76.3213 58.3138 77.4907C58.3138 78.6602 59.1083 79.6082 60.0883 79.6082Z" fill="white"/>
<path d="M66.8236 79.6082C67.8036 79.6082 68.598 78.6602 68.598 77.4907C68.598 76.3213 67.8036 75.3732 66.8236 75.3732C65.8436 75.3732 65.0491 76.3213 65.0491 77.4907C65.0491 78.6602 65.8436 79.6082 66.8236 79.6082Z" fill="white"/>
<path d="M73.5589 79.6082C74.5388 79.6082 75.3333 78.6602 75.3333 77.4907C75.3333 76.3213 74.5388 75.3732 73.5589 75.3732C72.5789 75.3732 71.7844 76.3213 71.7844 77.4907C71.7844 78.6602 72.5789 79.6082 73.5589 79.6082Z" fill="white"/>
<path d="M166.99 208.408H149.177C148.134 208.407 147.134 207.912 146.396 207.031C145.658 206.151 145.243 204.957 145.242 203.712V182.455C145.243 181.21 145.658 180.016 146.396 179.136C147.134 178.255 148.134 177.76 149.177 177.758H166.99C168.034 177.76 169.034 178.255 169.772 179.136C170.51 180.016 170.925 181.21 170.926 182.455V203.712C170.925 204.957 170.51 206.151 169.772 207.031C169.034 207.912 168.034 208.407 166.99 208.408ZM149.177 178.747C148.354 178.748 147.564 179.139 146.982 179.834C146.399 180.529 146.071 181.472 146.071 182.455V203.712C146.071 204.695 146.399 205.637 146.982 206.332C147.564 207.027 148.354 207.418 149.177 207.42H166.99C167.814 207.418 168.604 207.027 169.186 206.332C169.769 205.637 170.096 204.695 170.097 203.712V182.455C170.096 181.472 169.769 180.529 169.186 179.834C168.604 179.139 167.814 178.748 166.99 178.747H149.177Z" fill="#CCCCCC"/>
<path d="M163.469 202.476H152.699C152.369 202.476 152.053 202.319 151.82 202.041C151.587 201.763 151.456 201.386 151.456 200.993V185.174C151.456 184.78 151.587 184.404 151.82 184.125C152.053 183.847 152.369 183.691 152.699 183.691H160.503C160.786 183.691 161.061 183.806 161.282 184.018L164.248 186.862C164.393 187.001 164.51 187.177 164.591 187.377C164.671 187.577 164.713 187.796 164.712 188.018V200.993C164.712 201.386 164.581 201.763 164.348 202.041C164.115 202.319 163.799 202.476 163.469 202.476ZM152.699 184.679C152.589 184.68 152.484 184.732 152.406 184.824C152.328 184.917 152.285 185.043 152.284 185.174V200.993C152.285 201.124 152.328 201.25 152.406 201.342C152.484 201.435 152.589 201.487 152.699 201.487H163.469C163.579 201.487 163.684 201.435 163.762 201.342C163.84 201.25 163.883 201.124 163.884 200.993V188.018C163.884 187.944 163.87 187.871 163.843 187.804C163.816 187.738 163.777 187.679 163.729 187.633L160.762 184.788C160.689 184.718 160.597 184.679 160.503 184.679H152.699Z" fill="#CCCCCC"/>
<path d="M161.398 190.612H154.77C154.66 190.612 154.555 190.559 154.477 190.467C154.399 190.374 154.356 190.248 154.356 190.117C154.356 189.986 154.399 189.86 154.477 189.768C154.555 189.675 154.66 189.623 154.77 189.623H161.398C161.508 189.623 161.613 189.675 161.691 189.768C161.769 189.86 161.812 189.986 161.812 190.117C161.812 190.248 161.769 190.374 161.691 190.467C161.613 190.559 161.508 190.612 161.398 190.612Z" fill="#CCCCCC"/>
<path d="M161.398 193.578H154.77C154.66 193.578 154.555 193.526 154.477 193.433C154.399 193.34 154.356 193.214 154.356 193.083C154.356 192.952 154.399 192.826 154.477 192.734C154.555 192.641 154.66 192.589 154.77 192.589H161.398C161.508 192.589 161.613 192.641 161.691 192.734C161.769 192.826 161.812 192.952 161.812 193.083C161.812 193.214 161.769 193.34 161.691 193.433C161.613 193.526 161.508 193.578 161.398 193.578Z" fill="#CCCCCC"/>
<path d="M161.398 196.544H154.77C154.66 196.544 154.555 196.492 154.477 196.399C154.399 196.306 154.356 196.181 154.356 196.049C154.356 195.918 154.399 195.793 154.477 195.7C154.555 195.607 154.66 195.555 154.77 195.555H161.398C161.508 195.555 161.613 195.607 161.691 195.7C161.769 195.793 161.812 195.918 161.812 196.049C161.812 196.181 161.769 196.306 161.691 196.399C161.613 196.492 161.508 196.544 161.398 196.544Z" fill="#CCCCCC"/>
<path d="M209.244 208.408H191.432C190.388 208.407 189.388 207.912 188.65 207.031C187.912 206.151 187.497 204.957 187.496 203.712V182.455C187.497 181.21 187.912 180.016 188.65 179.136C189.388 178.255 190.388 177.76 191.432 177.758H209.244C210.288 177.76 211.288 178.255 212.026 179.136C212.764 180.016 213.179 181.21 213.18 182.455V203.712C213.179 204.957 212.764 206.151 212.026 207.031C211.288 207.912 210.288 208.407 209.244 208.408ZM191.432 178.747C190.608 178.748 189.818 179.139 189.236 179.834C188.653 180.529 188.326 181.472 188.325 182.455V203.712C188.326 204.695 188.653 205.637 189.236 206.332C189.818 207.027 190.608 207.418 191.432 207.42H209.244C210.068 207.418 210.858 207.027 211.44 206.332C212.023 205.637 212.35 204.695 212.351 203.712V182.455C212.35 181.472 212.023 180.529 211.44 179.834C210.858 179.139 210.068 178.748 209.244 178.747H191.432Z" fill="#CCCCCC"/>
<path d="M206.138 198.521H194.538C194.209 198.521 193.893 198.364 193.66 198.086C193.427 197.808 193.296 197.431 193.296 197.038V189.129C193.296 188.735 193.427 188.358 193.66 188.08C193.893 187.802 194.209 187.646 194.538 187.645H206.138C206.467 187.646 206.783 187.802 207.016 188.08C207.249 188.358 207.38 188.735 207.38 189.129V197.038C207.38 197.431 207.249 197.808 207.016 198.086C206.783 198.364 206.467 198.521 206.138 198.521ZM194.538 188.634C194.429 188.634 194.323 188.686 194.246 188.779C194.168 188.872 194.124 188.997 194.124 189.129V197.038C194.124 197.169 194.168 197.295 194.246 197.388C194.323 197.48 194.429 197.532 194.538 197.532H206.138C206.247 197.532 206.353 197.48 206.43 197.388C206.508 197.295 206.552 197.169 206.552 197.038V189.129C206.552 188.997 206.508 188.872 206.43 188.779C206.353 188.686 206.247 188.634 206.138 188.634H194.538Z" fill="#CCCCCC"/>
<path d="M200.338 194.388C200.105 194.388 199.877 194.31 199.679 194.164L193.49 189.548C193.397 189.478 193.331 189.367 193.307 189.24C193.282 189.112 193.301 188.978 193.359 188.867C193.417 188.756 193.51 188.677 193.617 188.647C193.724 188.618 193.836 188.64 193.93 188.709L200.119 193.325C200.185 193.374 200.261 193.4 200.338 193.4C200.416 193.4 200.492 193.374 200.558 193.325L206.746 188.709C206.84 188.64 206.952 188.618 207.059 188.647C207.166 188.677 207.259 188.756 207.317 188.867C207.375 188.978 207.394 189.112 207.369 189.24C207.345 189.367 207.279 189.478 207.186 189.548L200.997 194.164C200.799 194.31 200.571 194.388 200.338 194.388Z" fill="#CCCCCC"/>
<path d="M124.736 208.408H106.923C105.88 208.407 104.88 207.912 104.142 207.031C103.404 206.151 102.989 204.957 102.988 203.712V182.455C102.989 181.21 103.404 180.016 104.142 179.136C104.88 178.255 105.88 177.76 106.923 177.758H124.736C125.78 177.76 126.78 178.255 127.518 179.136C128.256 180.016 128.671 181.21 128.672 182.455V203.712C128.671 204.957 128.256 206.151 127.518 207.031C126.78 207.912 125.78 208.407 124.736 208.408ZM106.923 178.747C106.1 178.748 105.31 179.139 104.728 179.834C104.145 180.529 103.817 181.472 103.817 182.455V203.712C103.817 204.695 104.145 205.637 104.728 206.332C105.31 207.027 106.1 207.418 106.923 207.42H124.736C125.56 207.418 126.35 207.027 126.932 206.332C127.515 205.637 127.842 204.695 127.843 203.712V182.455C127.842 181.472 127.515 180.529 126.932 179.834C126.35 179.139 125.56 178.748 124.736 178.747H106.923Z" fill="#CCCCCC"/>
<path d="M121.63 198.521H110.03C109.701 198.521 109.385 198.364 109.152 198.086C108.919 197.808 108.788 197.431 108.788 197.038V189.129C108.788 188.735 108.919 188.358 109.152 188.08C109.385 187.802 109.701 187.646 110.03 187.645H121.63C121.959 187.646 122.275 187.802 122.508 188.08C122.741 188.358 122.872 188.735 122.872 189.129V197.038C122.872 197.431 122.741 197.808 122.508 198.086C122.275 198.364 121.959 198.521 121.63 198.521ZM110.03 188.634C109.921 188.634 109.815 188.686 109.738 188.779C109.66 188.872 109.616 188.997 109.616 189.129V197.038C109.616 197.169 109.66 197.295 109.738 197.388C109.815 197.48 109.921 197.532 110.03 197.532H121.63C121.739 197.532 121.845 197.48 121.922 197.388C122 197.295 122.044 197.169 122.044 197.038V189.129C122.044 188.997 122 188.872 121.922 188.779C121.845 188.686 121.739 188.634 121.63 188.634H110.03Z" fill="#CCCCCC"/>
<path d="M119.791 198.521H111.455C111.309 198.521 111.166 198.476 111.04 198.389C110.914 198.302 110.81 198.177 110.737 198.027C110.664 197.877 110.626 197.706 110.626 197.533C110.626 197.359 110.664 197.188 110.737 197.038L113.248 191.847C113.321 191.697 113.426 191.572 113.551 191.486C113.677 191.399 113.82 191.353 113.966 191.353C114.111 191.353 114.254 191.399 114.38 191.486C114.506 191.572 114.611 191.697 114.683 191.847L116.305 195.2L117.245 193.258C117.317 193.107 117.422 192.983 117.548 192.896C117.674 192.809 117.817 192.763 117.962 192.763C118.108 192.763 118.251 192.809 118.377 192.896C118.502 192.983 118.607 193.107 118.68 193.258L120.509 197.038C120.581 197.188 120.62 197.359 120.62 197.533C120.62 197.706 120.581 197.877 120.509 198.027C120.436 198.177 120.331 198.302 120.205 198.389C120.079 198.476 119.937 198.521 119.791 198.521ZM119.791 197.533L117.962 193.752L116.664 196.436C116.628 196.511 116.575 196.573 116.512 196.617C116.449 196.66 116.378 196.683 116.305 196.683C116.232 196.683 116.161 196.66 116.098 196.617C116.035 196.573 115.983 196.511 115.946 196.436L113.966 192.342L111.455 197.533H119.791Z" fill="#CCCCCC"/>
<path d="M120.387 191.6C120.844 191.6 121.215 191.158 121.215 190.611C121.215 190.065 120.844 189.623 120.387 189.623C119.929 189.623 119.558 190.065 119.558 190.611C119.558 191.158 119.929 191.6 120.387 191.6Z" fill="#CCCCCC"/>
<path d="M318.49 320.414L313.411 320.413L310.995 297.036L318.491 297.037L318.49 320.414Z" fill="#FFB8B8"/>
<path d="M319.785 326.289L303.409 326.288V326.041C303.409 325.042 303.574 324.053 303.894 323.13C304.215 322.207 304.684 321.369 305.276 320.662C305.868 319.956 306.571 319.396 307.344 319.013C308.117 318.631 308.946 318.435 309.783 318.435H309.784L319.785 318.435L319.785 326.289Z" fill="#2F2E41"/>
<path d="M339.202 320.414L334.124 320.413L331.708 297.036L339.203 297.037L339.202 320.414Z" fill="#FFB8B8"/>
<path d="M340.498 326.289L324.122 326.288V326.041C324.122 325.042 324.287 324.053 324.607 323.13C324.927 322.207 325.397 321.369 325.989 320.662C326.581 319.956 327.283 319.396 328.057 319.013C328.83 318.631 329.659 318.435 330.496 318.435H330.496L340.498 318.435L340.498 326.289Z" fill="#2F2E41"/>
<path d="M337.68 310.28L332.976 308.572C332.626 308.446 332.314 308.198 332.081 307.861C331.848 307.524 331.703 307.112 331.665 306.677L327.28 257.081C327.276 257.021 327.254 256.965 327.217 256.924C327.18 256.883 327.132 256.86 327.081 256.86C327.031 256.854 326.981 256.872 326.941 256.91C326.902 256.948 326.876 257.002 326.87 257.062L319.525 305.113C319.48 305.404 319.387 305.682 319.251 305.93C319.115 306.178 318.939 306.392 318.733 306.557C318.528 306.723 318.296 306.838 318.052 306.896C317.809 306.953 317.558 306.952 317.315 306.892L311.303 305.415C310.862 305.304 310.47 305.008 310.197 304.58C309.925 304.152 309.791 303.622 309.82 303.085L314.287 224.329L344.585 220.428L340.083 308.287C340.054 308.852 339.846 309.382 339.501 309.77C339.156 310.159 338.7 310.375 338.225 310.377C338.041 310.377 337.857 310.344 337.68 310.28Z" fill="#2F2E41"/>
<path d="M337.651 155.744C343.27 155.744 347.826 150.308 347.826 143.603C347.826 136.897 343.27 131.461 337.651 131.461C332.032 131.461 327.477 136.897 327.477 143.603C327.477 150.308 332.032 155.744 337.651 155.744Z" fill="#FFB8B8"/>
<path d="M314.241 224.791L320.81 175.43C321.16 172.805 321.973 170.3 323.197 168.08C324.421 165.86 326.027 163.976 327.908 162.554C329.79 161.133 331.903 160.205 334.108 159.834C336.313 159.463 338.559 159.657 340.697 160.402C344.434 161.692 347.634 164.598 349.672 168.553C351.709 172.507 352.438 177.227 351.716 181.789L344.843 225.871L314.241 224.791Z" fill="#418F99"/>
<path d="M340.46 233.623C340.968 233.223 341.397 232.694 341.715 232.075C342.034 231.456 342.234 230.76 342.303 230.038C342.372 229.316 342.308 228.585 342.114 227.896C341.921 227.207 341.603 226.577 341.184 226.05L347.976 210.354L340.327 211.328L335.049 226.084C334.355 226.984 333.961 228.156 333.942 229.38C333.923 230.603 334.282 231.792 334.948 232.721C335.615 233.651 336.545 234.256 337.561 234.422C338.576 234.588 339.608 234.304 340.46 233.623Z" fill="#FFB8B8"/>
<path d="M341.914 223.281C341.539 223.218 341.188 223.02 340.909 222.712L338.311 219.847C338.03 219.536 337.836 219.129 337.755 218.682C337.674 218.236 337.71 217.77 337.858 217.348L343.052 202.657L342.315 173.629C342.421 172.696 342.68 171.797 343.077 170.983C343.475 170.169 344.002 169.457 344.63 168.887C345.258 168.317 345.974 167.9 346.738 167.66C347.501 167.421 348.296 167.363 349.078 167.49C349.86 167.617 350.613 167.927 351.294 168.402C351.976 168.877 352.572 169.507 353.049 170.257C353.526 171.007 353.875 171.862 354.075 172.773C354.275 173.684 354.323 174.633 354.215 175.566L355.475 193.814C355.858 199.352 354.542 204.868 351.773 209.335L343.673 222.402C343.517 222.653 343.319 222.862 343.091 223.015C342.863 223.169 342.61 223.264 342.35 223.293C342.205 223.31 342.059 223.306 341.914 223.281Z" fill="#418F99"/>
<path d="M279.059 136.987C279.17 137.702 279.411 138.379 279.765 138.97C280.118 139.562 280.577 140.054 281.107 140.411C281.637 140.768 282.227 140.983 282.834 141.039C283.441 141.095 284.051 140.991 284.621 140.735L294.085 154.319L296.316 145.534L286.987 133.981C286.563 132.867 285.812 131.977 284.875 131.479C283.938 130.982 282.881 130.912 281.904 131.282C280.927 131.653 280.098 132.438 279.573 133.49C279.049 134.541 278.866 135.786 279.059 136.987Z" fill="#FFB8B8"/>
<path d="M286.473 142.618C286.668 142.23 286.958 141.922 287.304 141.735L290.528 139.997C290.878 139.809 291.267 139.755 291.643 139.84C292.019 139.925 292.365 140.147 292.632 140.474L301.944 151.909L324.631 162.417C325.31 162.898 325.903 163.533 326.376 164.286C326.849 165.04 327.193 165.898 327.389 166.81C327.584 167.723 327.626 168.673 327.514 169.605C327.401 170.537 327.136 171.433 326.733 172.243C326.33 173.053 325.797 173.76 325.164 174.323C324.532 174.887 323.813 175.297 323.048 175.529C322.283 175.76 321.488 175.81 320.707 175.675C319.926 175.539 319.175 175.221 318.497 174.739L303.924 169.009C299.501 167.271 295.758 163.674 293.391 158.889L286.466 144.894C286.333 144.624 286.249 144.325 286.219 144.014C286.189 143.704 286.215 143.389 286.294 143.091C286.337 142.926 286.398 142.767 286.473 142.618Z" fill="#418F99"/>
<path opacity="0.1" d="M345.904 185.704L345.49 201.523L337.858 217.348L344.23 199.713L345.904 185.704Z" fill="black"/>
<path d="M336.485 145.884C335.846 145.984 335.199 145.803 334.663 145.375C334.128 144.947 333.74 144.303 333.573 143.56C333.412 142.705 333.058 141.919 332.551 141.285C332.044 140.652 331.402 140.195 330.694 139.964C328.827 139.455 326.546 140.504 325.178 138.816C324.886 138.431 324.674 137.968 324.56 137.466C324.447 136.964 324.435 136.437 324.526 135.928C324.778 134.288 325.761 133.049 326.83 132.058C329.082 129.983 331.806 128.768 334.646 128.573C336.116 128.522 337.587 128.609 339.046 128.834C340.573 128.949 342.083 129.279 343.546 129.816C345.212 130.566 346.693 131.805 347.852 133.419C349.01 135.034 349.809 136.97 350.175 139.05C350.509 141.137 350.458 143.285 350.024 145.345C349.591 147.406 348.786 149.328 347.665 150.979C346.324 152.972 344.595 154.544 342.628 155.556C342.159 155.82 341.622 155.853 341.134 155.647C339.909 155.065 340.109 153.254 340.668 152.046C341.265 150.754 342.185 149.502 341.705 147.929C341.464 147.2 341.001 146.605 340.409 146.265C339.191 145.524 337.829 145.699 336.52 145.88L336.485 145.884Z" fill="#2F2E41"/>
<path d="M275.659 152.741H149.726C147.913 152.739 146.176 151.878 144.895 150.349C143.613 148.82 142.892 146.747 142.89 144.584V112.451C142.892 110.289 143.613 108.216 144.895 106.686C146.176 105.157 147.913 104.297 149.726 104.295H275.659C277.471 104.297 279.209 105.157 280.49 106.686C281.771 108.216 282.492 110.289 282.494 112.451V144.584C282.492 146.747 281.771 148.82 280.49 150.349C279.209 151.878 277.471 152.739 275.659 152.741Z" fill="white"/>
<path d="M275.659 152.988H149.726C147.858 152.986 146.068 152.1 144.748 150.524C143.428 148.949 142.685 146.812 142.683 144.584V112.451C142.685 110.223 143.428 108.087 144.748 106.512C146.068 104.936 147.858 104.05 149.726 104.048H275.659C277.526 104.05 279.316 104.936 280.636 106.512C281.957 108.087 282.699 110.223 282.701 112.451V144.584C282.699 146.812 281.957 148.949 280.636 150.524C279.316 152.1 277.526 152.986 275.659 152.988ZM149.726 105.036C148.078 105.038 146.499 105.82 145.334 107.211C144.169 108.601 143.514 110.486 143.512 112.451V144.584C143.514 146.55 144.169 148.435 145.334 149.825C146.499 151.215 148.078 151.997 149.726 152H275.659C277.306 151.997 278.886 151.215 280.051 149.825C281.216 148.435 281.871 146.55 281.873 144.584V112.451C281.871 110.486 281.216 108.601 280.051 107.211C278.886 105.82 277.306 105.038 275.659 105.036H149.726Z" fill="#3F3D56"/>
<path d="M260.332 144.831H165.053C163.241 144.829 161.503 143.969 160.222 142.44C158.941 140.911 158.22 138.837 158.218 136.675V119.867C158.22 117.704 158.941 115.631 160.222 114.102C161.503 112.573 163.241 111.712 165.053 111.71H260.332C262.144 111.712 263.881 112.573 265.163 114.102C266.444 115.631 267.165 117.704 267.167 119.867V136.675C267.165 138.837 266.444 140.911 265.163 142.44C263.881 143.969 262.144 144.829 260.332 144.831Z" fill="#F2F2F2"/>
<path d="M185.556 135.772C190.071 135.772 193.731 131.405 193.731 126.018C193.731 120.63 190.071 116.263 185.556 116.263C181.042 116.263 177.382 120.63 177.382 126.018C177.382 131.405 181.042 135.772 185.556 135.772Z" fill="#FF6584"/>
<path d="M254.411 143.847L242.873 132.299L231.534 120.951C231.235 120.651 230.856 120.487 230.466 120.488C230.075 120.489 229.697 120.655 229.399 120.956L218.097 132.356L215.336 135.141L211.174 130.975L198.524 118.314C198.224 118.015 197.846 117.851 197.456 117.852C197.065 117.853 196.687 118.018 196.389 118.319L183.78 131.038L170.973 143.957C170.908 144.022 170.861 144.11 170.84 144.208C170.818 144.306 170.822 144.41 170.851 144.505C170.88 144.6 170.933 144.682 171.003 144.74C171.073 144.798 171.156 144.829 171.241 144.829L197.499 144.769L205.811 144.749L205.729 144.832L230.505 144.775L254.145 144.72C254.23 144.72 254.313 144.689 254.383 144.63C254.452 144.572 254.505 144.49 254.534 144.394C254.563 144.299 254.567 144.196 254.545 144.098C254.523 144 254.476 143.912 254.411 143.847Z" fill="#3F3D56"/>
<path d="M362.586 327H283.049C282.939 327 282.834 326.948 282.756 326.855C282.678 326.763 282.635 326.637 282.635 326.506C282.635 326.375 282.678 326.249 282.756 326.156C282.834 326.063 282.939 326.011 283.049 326.011H362.586C362.696 326.011 362.801 326.063 362.879 326.156C362.956 326.249 363 326.375 363 326.506C363 326.637 362.956 326.763 362.879 326.855C362.801 326.948 362.696 327 362.586 327Z" fill="#CCCCCC"/>
<path d="M250.233 65.211C249.902 64.5694 249.465 64.015 248.949 63.5815C248.433 63.1481 247.848 62.8447 247.23 62.6898C247.004 62.633 246.774 62.5983 246.542 62.586L214.98 28.9108C214.36 28.1504 213.533 27.6788 212.648 27.581C212.473 27.5571 212.297 27.5504 212.122 27.5612C211.394 27.6007 210.691 27.8925 210.099 28.4011C209.508 28.9096 209.053 29.6128 208.792 30.4246C208.53 31.2364 208.472 32.1217 208.625 32.9722C208.778 33.8228 209.135 34.6017 209.653 35.2138L221.737 47.7851L241.579 68.4243C241.596 68.813 241.644 69.1989 241.724 69.5761C241.962 70.6691 242.472 71.6501 243.188 72.3891C243.903 73.128 244.79 73.5901 245.73 73.7139C246.588 73.8334 247.457 73.6621 248.237 73.2195C248.855 72.8744 249.403 72.3735 249.844 71.7513C249.889 71.687 249.931 71.6277 249.972 71.5585C250.552 70.6577 250.887 69.5675 250.934 68.4334C250.98 67.2993 250.736 66.1752 250.233 65.211Z" fill="#FFB8B8"/>
<path d="M196.248 97.6652L195.954 83.3982L195.705 71.5585L195.535 63.2732L195.199 47.1227C195.133 46.258 194.857 45.4351 194.405 44.7544C193.954 44.0737 193.346 43.5646 192.656 43.2894C191.965 43.0142 191.223 42.9847 190.519 43.2045C189.815 43.4244 189.18 43.884 188.691 44.5274C188.576 44.6744 188.472 44.8332 188.381 45.002C187.871 45.8736 187.641 46.9355 187.735 47.9928L188.472 71.5585L188.841 83.3982L189.313 98.5007C189.177 98.7226 189.054 98.9555 188.944 99.1977C188.65 99.8643 188.472 100.595 188.421 101.347C188.371 102.098 188.449 102.854 188.65 103.568C188.861 104.317 189.202 105.004 189.651 105.584C190.1 106.165 190.647 106.625 191.256 106.934C191.865 107.244 192.522 107.396 193.184 107.381C193.846 107.365 194.497 107.183 195.096 106.845C195.791 106.453 196.394 105.863 196.853 105.126C197.311 104.389 197.611 103.529 197.725 102.622C197.838 101.715 197.763 100.788 197.506 99.9232C197.248 99.0586 196.816 98.2831 196.248 97.6652Z" fill="#FFB8B8"/>
<path d="M224.666 57.252L221.737 47.7851L216.998 32.4504C216.656 31.3346 216.108 30.3251 215.394 29.4967C214.68 28.6683 213.82 28.0422 212.876 27.665C212.801 27.6354 212.723 27.6057 212.648 27.581C211.734 27.2498 210.77 27.1587 209.823 27.314C208.876 27.4693 207.969 27.8673 207.163 28.4807L191.202 40.5626C189.74 41.6666 188.695 43.4054 188.288 45.4117C187.881 47.4181 188.143 49.5348 189.019 51.3148C191.015 55.4336 193.19 59.4252 195.535 63.2732C197.395 66.2936 200.858 66.615 201.459 71.5585H213.228L225.142 58.7943L224.666 57.252Z" fill="#CCCCCC"/>
<path d="M41.9079 172.951C47.2093 172.951 51.5069 167.822 51.5069 161.496C51.5069 155.169 47.2093 150.041 41.9079 150.041C36.6066 150.041 32.309 155.169 32.309 161.496C32.309 167.822 36.6066 172.951 41.9079 172.951Z" fill="#A0616A"/>
<path d="M65.4736 153.611C65.5681 153.701 65.6598 153.796 65.7486 153.897C66.1896 154.392 66.5378 154.994 66.7704 155.661C67.0031 156.329 67.1149 157.047 67.0986 157.77C67.0823 158.493 66.9382 159.203 66.6758 159.855C66.4134 160.506 66.0385 161.084 65.5758 161.551C65.468 161.659 65.3554 161.76 65.2387 161.854L65.8883 188.028C65.9068 188.884 65.6934 189.725 65.2796 190.426C64.8658 191.127 64.2737 191.649 63.5913 191.917L63.5517 191.927L45.7434 194.19C45.2593 194.251 44.7697 194.198 44.303 194.032C43.8363 193.867 43.4018 193.592 43.0244 193.225C42.647 192.858 42.3343 192.405 42.1044 191.893C41.8744 191.381 41.7318 190.82 41.6847 190.241C41.6375 189.663 41.6869 189.079 41.8299 188.524C41.9728 187.968 42.2066 187.452 42.5176 187.005C42.8287 186.558 43.2108 186.189 43.6421 185.919C44.0733 185.65 44.545 185.485 45.03 185.434L57.7246 184.099L59.92 161.433C59.7764 161.281 59.6419 161.118 59.5175 160.943C58.8292 159.971 58.4681 158.729 58.5045 157.457C58.5409 156.185 58.9722 154.974 59.7145 154.06C60.4568 153.146 61.4572 152.594 62.5215 152.511C63.5857 152.428 64.6379 152.82 65.4736 153.611Z" fill="#A0616A"/>
<path d="M57.7173 320.92H62.509L64.7882 298.866H57.7165L57.7173 320.92Z" fill="#A0616A"/>
<path d="M56.4954 319.053L65.9313 319.053C66.721 319.053 67.5033 319.238 68.2329 319.599C68.9624 319.96 69.6254 320.488 70.1838 321.155C70.7422 321.821 71.1851 322.612 71.4873 323.483C71.7895 324.353 71.945 325.286 71.945 326.229V326.462L56.4956 326.463L56.4954 319.053Z" fill="#2F2E41"/>
<path d="M10.0938 313.014L14.2106 315.939L25.6246 298.382L19.5483 294.064L10.0938 313.014Z" fill="#A0616A"/>
<path d="M9.84394 310.664L17.9516 316.425C18.6301 316.907 19.2227 317.544 19.695 318.3C20.1672 319.055 20.5102 319.914 20.7043 320.827C20.8984 321.741 20.9398 322.691 20.8262 323.623C20.7126 324.556 20.4462 325.453 20.0422 326.262L19.9422 326.463L6.6676 317.031L9.84394 310.664Z" fill="#2F2E41"/>
<path d="M63.6395 313.13H58.2742C57.8398 313.131 57.4205 312.94 57.0975 312.593C56.7744 312.246 56.5706 311.769 56.5254 311.253L51.1164 250.578C51.1028 250.425 51.0474 250.282 50.9588 250.171C50.8703 250.059 50.7534 249.986 50.6263 249.961C50.4992 249.937 50.369 249.963 50.2556 250.036C50.1423 250.109 50.0521 250.224 49.9991 250.364L40.2412 276.149L22.9652 309.766C22.7416 310.197 22.3955 310.517 21.9901 310.669C21.5847 310.82 21.1472 310.792 20.7577 310.589L13.8561 306.966C13.6279 306.846 13.4237 306.67 13.257 306.448C13.0902 306.227 12.9648 305.966 12.889 305.683C12.8132 305.399 12.7888 305.1 12.8174 304.804C12.8459 304.508 12.9268 304.223 13.0546 303.968L28.936 272.235L33.8066 245.497C32.2747 233.902 38.8419 216.664 38.9085 216.491L38.941 216.407L57.0305 207.969L57.1212 208.102C64.2552 236.039 68.6023 266.105 65.3926 311.207C65.353 311.731 65.1515 312.218 64.8273 312.573C64.5032 312.929 64.0797 313.127 63.6395 313.13Z" fill="#2F2E41"/>
<path d="M38.2122 219.232L38.128 219.02C38.0877 218.919 34.0654 208.795 30.9647 197.975C30.3688 195.883 30.1435 193.665 30.3031 191.464C30.4628 189.262 31.0038 187.124 31.892 185.185C32.7918 183.225 34.0227 181.51 35.5069 180.149C36.991 178.787 38.696 177.807 40.5138 177.273C43.6695 176.37 46.9921 176.851 49.876 178.626C52.7599 180.402 55.0132 183.355 56.2255 186.947C58.6851 194.287 57.9012 202.121 57.1635 208.282L57.1488 208.405L57.0548 208.459L38.2122 219.232Z" fill="#3F3D56"/>
<path d="M53.5465 155.025H38.3044V147.097C41.6499 145.511 44.9236 144.162 46.9025 147.097C48.6646 147.097 50.3545 147.932 51.6005 149.419C52.8465 150.906 53.5465 152.922 53.5465 155.025Z" fill="#2F2E41"/>
<path d="M37.4605 145.697C28.3485 145.697 25.7981 159.327 25.7981 167.017C25.7981 171.305 27.4232 172.839 29.9769 173.358L30.8788 167.618L32.9911 173.605C33.7084 173.609 34.462 173.592 35.2433 173.575L35.9595 171.815L37.5565 173.543C43.953 173.555 49.1228 174.667 49.1228 167.017C49.1228 159.327 46.886 145.697 37.4605 145.697Z" fill="#2F2E41"/>
<path d="M79.9512 327H0.414255C0.304388 327 0.19902 326.948 0.121332 326.855C0.0436443 326.763 0 326.637 0 326.506C0 326.375 0.0436443 326.249 0.121332 326.156C0.19902 326.063 0.304388 326.011 0.414255 326.011H79.9512C80.0611 326.011 80.1665 326.063 80.2442 326.156C80.3218 326.249 80.3655 326.375 80.3655 326.506C80.3655 326.637 80.3218 326.763 80.2442 326.855C80.1665 326.948 80.0611 327 79.9512 327Z" fill="#CCCCCC"/>
<path d="M81.4468 164.358H63.6338C62.5905 164.357 61.5902 163.862 60.8524 162.981C60.1146 162.101 59.6996 160.907 59.6984 159.662V138.405C59.6996 137.16 60.1146 135.966 60.8524 135.086C61.5902 134.205 62.5905 133.71 63.6338 133.709H81.4468C82.4902 133.71 83.4905 134.205 84.2283 135.086C84.9661 135.966 85.3811 137.16 85.3822 138.405V159.662C85.3811 160.907 84.9661 162.101 84.2283 162.981C83.4905 163.862 82.4902 164.357 81.4468 164.358Z" fill="white"/>
<path d="M81.4468 164.358H63.6338C62.5905 164.357 61.5902 163.862 60.8524 162.981C60.1146 162.101 59.6996 160.907 59.6984 159.662V138.405C59.6996 137.16 60.1146 135.966 60.8524 135.086C61.5902 134.205 62.5905 133.71 63.6338 133.709H81.4468C82.4902 133.71 83.4905 134.205 84.2283 135.086C84.9661 135.966 85.3811 137.16 85.3822 138.405V159.662C85.3811 160.907 84.9661 162.101 84.2283 162.981C83.4905 163.862 82.4902 164.357 81.4468 164.358ZM63.6338 134.697C62.8101 134.698 62.0204 135.089 61.4379 135.784C60.8555 136.48 60.5279 137.422 60.5269 138.405V159.662C60.5279 160.645 60.8555 161.587 61.4379 162.283C62.0204 162.978 62.8101 163.369 63.6338 163.37H81.4468C82.2705 163.369 83.0603 162.978 83.6427 162.283C84.2252 161.587 84.5528 160.645 84.5537 159.662V138.405C84.5528 137.422 84.2252 136.48 83.6427 135.784C83.0603 135.089 82.2705 134.698 81.4468 134.697H63.6338Z" fill="#3F3D56"/>
<path d="M78.3399 155.707H66.7408C66.4113 155.707 66.0954 155.55 65.8624 155.272C65.6294 154.994 65.4983 154.617 65.498 154.224V143.843C65.4983 143.45 65.6294 143.073 65.8624 142.795C66.0954 142.517 66.4113 142.36 66.7408 142.36H70.006C70.2184 142.359 70.4274 142.423 70.6129 142.547C70.7983 142.67 70.9538 142.849 71.0645 143.065L71.9752 144.831H78.3399C78.6694 144.832 78.9853 144.988 79.2183 145.266C79.4513 145.544 79.5823 145.921 79.5827 146.315V154.224C79.5823 154.617 79.4513 154.994 79.2183 155.272C78.9853 155.55 78.6694 155.707 78.3399 155.707Z" fill="#418F99"/>
<path d="M77.9626 160.952C78.0206 161.078 78.0741 161.209 78.1232 161.343C78.3684 162.004 78.4938 162.719 78.4912 163.442C78.4886 164.165 78.3579 164.879 78.1079 165.538C77.8579 166.196 77.4941 166.784 77.0403 167.263C76.5866 167.742 76.0532 168.101 75.475 168.317C75.3405 168.367 75.2038 168.408 75.0657 168.44L67.1536 192.864C66.8921 193.662 66.4218 194.338 65.8126 194.793C65.2035 195.247 64.4878 195.454 63.772 195.384L63.7322 195.375L46.5834 189.215C46.1172 189.047 45.6834 188.771 45.307 188.403C44.9307 188.034 44.6193 187.58 44.3909 187.067C44.1624 186.553 44.0214 185.991 43.976 185.413C43.9306 184.834 43.9816 184.251 44.1263 183.696C44.2709 183.141 44.5062 182.626 44.8186 182.18C45.131 181.735 45.5143 181.367 45.9464 181.099C46.3785 180.831 46.8507 180.668 47.3359 180.619C47.8211 180.57 48.3096 180.637 48.7732 180.814L60.9069 185.463L70.3007 165.589C70.2177 165.383 70.1469 165.17 70.0889 164.952C69.7707 163.737 69.8421 162.425 70.2893 161.269C70.7364 160.114 71.5275 159.198 72.5088 158.699C73.49 158.201 74.5915 158.155 75.5994 158.572C76.6072 158.988 77.4495 159.836 77.9626 160.952Z" fill="#A0616A"/>
</g>
<defs>
<clipPath id="clip0_132_26">
<rect width="363" height="327" fill="white"/>
</clipPath>
</defs>
</svg>
