<svg width="251" height="191" viewBox="0 0 251 191" fill="none" xmlns="http://www.w3.org/2000/svg">
<g clip-path="url(#clip0_193_2375)">
<path d="M51.0128 172.998C50.9696 178.639 50.6086 184.272 49.932 189.86C49.9083 190.056 49.8825 190.252 49.8588 190.449L3.70229 190.153C3.56677 189.958 3.43338 189.761 3.30414 189.562C2.87322 188.901 2.46933 188.222 2.09858 187.519C0.316536 184.133 -0.499292 180.169 0.318255 177.434L0.332897 177.392C0.509374 176.793 0.787464 176.24 1.1512 175.764C3.01519 173.363 6.78398 173.763 10.2041 175.702C7.13648 171.858 4.69386 167.008 4.50826 162.679C4.32629 158.456 6.25526 155.44 8.34746 152.876C8.41611 152.792 8.48474 152.709 8.55338 152.627C8.58668 152.585 8.62202 152.545 8.65522 152.502C10.2876 150.549 12.1906 148.623 14.9452 148.856C17.9662 149.112 21.3156 152.008 23.6641 155.383C26.0126 158.756 27.5732 162.588 29.1551 166.327C30.739 170.064 32.4526 173.896 34.9942 177.091C31.5517 172.106 28.7762 166.436 27.7509 160.92C26.7256 155.405 27.6279 150.108 30.696 147.511C31.6274 146.746 32.7052 146.249 33.8392 146.059C33.9716 146.034 34.106 146.013 34.2426 145.995C37.0828 145.625 40.4738 146.75 43.359 149.437C46.5364 152.397 48.7393 156.784 49.8354 160.948C50.9314 165.113 51.0482 169.122 51.0128 172.998Z" fill="#F2F2F2"/>
<path d="M20.8146 190.263L19.932 190.257C19.6517 190.056 19.3702 189.858 19.0873 189.662C18.9122 189.536 18.735 189.414 18.5577 189.29C15.6301 187.243 12.6842 185.28 9.72004 183.401C6.75854 181.519 3.78214 179.725 0.790853 178.017C0.711563 177.977 0.646871 177.907 0.608024 177.819C0.569177 177.731 0.558631 177.629 0.578213 177.533C0.581418 177.52 0.586386 177.508 0.592924 177.497C0.634646 177.408 0.727896 177.371 0.863993 177.447C1.2309 177.658 1.59991 177.868 1.96678 178.084C4.96624 179.821 7.95282 181.645 10.9265 183.555C13.8982 185.465 16.8529 187.459 19.7907 189.537C19.8525 189.58 19.9143 189.625 19.9761 189.668C20.2563 189.866 20.5345 190.064 20.8146 190.263Z" fill="white"/>
<path d="M32.1946 190.336L31.6488 190.332C31.5257 190.135 31.4048 189.938 31.2817 189.741C28.3896 185.098 25.498 180.456 22.6071 175.814C17.873 168.214 13.1402 160.614 8.40887 153.014C8.38083 152.973 8.35997 152.926 8.34747 152.876C8.307 152.708 8.41498 152.61 8.55339 152.627C8.61174 152.637 8.66765 152.66 8.71738 152.696C8.76711 152.733 8.80951 152.781 8.84177 152.837C11.496 157.099 14.1496 161.36 16.8025 165.619C21.512 173.18 26.2209 180.742 30.929 188.302C31.2285 188.782 31.528 189.264 31.8274 189.744C31.9505 189.941 32.0736 190.138 32.1946 190.336Z" fill="white"/>
<path d="M44.3535 186.708C44.3256 187.761 44.2647 188.797 44.1852 189.823C44.1698 190.02 44.1544 190.216 44.139 190.412L43.5663 190.408C43.5839 190.212 43.6014 190.016 43.6168 189.82C43.7378 188.337 43.8236 186.837 43.8353 185.297C43.8505 181.026 43.4869 176.765 42.7501 172.578C41.9668 168.07 40.8422 163.649 39.389 159.365C37.8638 154.846 36.0249 150.474 33.8899 146.291C33.8497 146.223 33.8318 146.141 33.8393 146.059C33.863 145.872 34.0803 145.817 34.2427 145.995C34.2748 146.03 34.3024 146.07 34.3248 146.114C34.5889 146.634 34.8483 147.156 35.1028 147.679C37.159 151.885 38.919 156.272 40.3661 160.798C41.7444 165.096 42.7929 169.524 43.4995 174.031C44.1614 178.212 44.4476 182.46 44.3535 186.708Z" fill="white"/>
<path d="M173.731 105.838H119.739C118.614 105.877 117.513 105.456 116.633 104.652C116.565 104.593 116.521 104.505 116.51 104.407C116.498 104.31 116.521 104.212 116.573 104.134C116.625 104.056 116.702 104.005 116.787 103.992C116.872 103.979 116.958 104.005 117.026 104.064C117.792 104.771 118.756 105.138 119.739 105.098H173.731C175.017 105.097 176.249 104.511 177.158 103.471C178.067 102.43 178.579 101.019 178.58 99.5473V61.8008C178.579 60.3292 178.067 58.9182 177.158 57.8776C176.249 56.8369 175.017 56.2516 173.731 56.2499H119.739C118.454 56.2516 117.221 56.8369 116.312 57.8776C115.403 58.9182 114.891 60.3292 114.89 61.8008V84.0047C114.89 84.1028 114.856 84.1969 114.795 84.2663C114.734 84.3357 114.652 84.3747 114.566 84.3747C114.481 84.3747 114.398 84.3357 114.338 84.2663C114.277 84.1969 114.243 84.1028 114.243 84.0047V61.8008C114.245 60.1329 114.824 58.5338 115.855 57.3544C116.885 56.175 118.282 55.5116 119.739 55.5098H173.731C175.188 55.5116 176.585 56.175 177.615 57.3544C178.646 58.5338 179.225 60.1329 179.227 61.8008V99.5473C179.225 101.215 178.646 102.814 177.615 103.994C176.585 105.173 175.188 105.837 173.731 105.838Z" fill="#3F3D56"/>
<path d="M245.504 127.302H102.604C102.519 127.302 102.436 127.263 102.376 127.193C102.315 127.124 102.281 127.03 102.281 126.932C102.281 126.834 102.315 126.739 102.376 126.67C102.436 126.601 102.519 126.562 102.604 126.562H245.504C246.79 126.56 248.022 125.975 248.931 124.934C249.841 123.893 250.352 122.482 250.353 121.011V6.29108C250.352 4.81939 249.841 3.40844 248.931 2.3678C248.022 1.32715 246.79 0.741792 245.504 0.740127H93.5518C92.2661 0.741792 91.0334 1.32715 90.1243 2.3678C89.2151 3.40844 88.7037 4.81939 88.7023 6.29108V81.0439C88.7023 81.142 88.6682 81.2362 88.6076 81.3056C88.5469 81.375 88.4647 81.414 88.379 81.414C88.2932 81.414 88.211 81.375 88.1504 81.3056C88.0897 81.2362 88.0557 81.142 88.0557 81.0439V6.29108C88.0573 4.62316 88.6369 3.02409 89.6673 1.84469C90.6976 0.665288 92.0946 0.00187765 93.5518 0H245.504C246.961 0.00187765 248.358 0.665288 249.388 1.84469C250.419 3.02409 250.998 4.62316 251 6.29108V121.011C250.998 122.679 250.419 124.278 249.388 125.457C248.358 126.637 246.961 127.3 245.504 127.302Z" fill="#3F3D56"/>
<path d="M250.894 12.0552H88.2734V12.7953H250.894V12.0552Z" fill="#3F3D56"/>
<path d="M94.4161 9.44955C95.4875 9.44955 96.3559 8.45545 96.3559 7.22917C96.3559 6.00289 95.4875 5.00879 94.4161 5.00879C93.3448 5.00879 92.4763 6.00289 92.4763 7.22917C92.4763 8.45545 93.3448 9.44955 94.4161 9.44955Z" fill="#3F3D56"/>
<path d="M99.993 9.44955C101.064 9.44955 101.933 8.45545 101.933 7.22917C101.933 6.00289 101.064 5.00879 99.993 5.00879C98.9217 5.00879 98.0532 6.00289 98.0532 7.22917C98.0532 8.45545 98.9217 9.44955 99.993 9.44955Z" fill="#3F3D56"/>
<path d="M105.57 9.44955C106.641 9.44955 107.51 8.45545 107.51 7.22917C107.51 6.00289 106.641 5.00879 105.57 5.00879C104.499 5.00879 103.63 6.00289 103.63 7.22917C103.63 8.45545 104.499 9.44955 105.57 9.44955Z" fill="#3F3D56"/>
<path d="M219.155 37.3763H118.931C117.602 37.3763 116.327 36.7719 115.388 35.6962C114.448 34.6205 113.92 33.1616 113.92 31.6403C113.92 30.119 114.448 28.66 115.388 27.5843C116.327 26.5086 117.602 25.9043 118.931 25.9043H219.155C220.484 25.9043 221.758 26.5086 222.698 27.5843C223.638 28.66 224.166 30.119 224.166 31.6403C224.166 33.1616 223.638 34.6205 222.698 35.6962C221.758 36.7719 220.484 37.3763 219.155 37.3763ZM118.931 26.6444C117.774 26.6444 116.663 27.1708 115.845 28.1077C115.026 29.0446 114.567 30.3153 114.567 31.6403C114.567 32.9653 115.026 34.236 115.845 35.1729C116.663 36.1098 117.774 36.6361 118.931 36.6361H219.155C220.312 36.6361 221.423 36.1098 222.241 35.1729C223.06 34.236 223.519 32.9653 223.519 31.6403C223.519 30.3153 223.06 29.0446 222.241 28.1077C221.423 27.1708 220.312 26.6444 219.155 26.6444H118.931Z" fill="#3F3D56"/>
<path d="M218.508 66.6116H199.11C197.781 66.6116 196.506 66.0073 195.567 64.9316C194.627 63.8559 194.099 62.3969 194.099 60.8756C194.099 59.3544 194.627 57.8954 195.567 56.8197C196.506 55.744 197.781 55.1396 199.11 55.1396H218.508C219.837 55.1396 221.112 55.744 222.052 56.8197C222.991 57.8954 223.519 59.3544 223.519 60.8756C223.519 62.3969 222.991 63.8559 222.052 64.9316C221.112 66.0073 219.837 66.6116 218.508 66.6116Z" fill="#418F99"/>
<path d="M218.508 85.8548H199.11C197.781 85.8548 196.506 85.2505 195.567 84.1747C194.627 83.099 194.099 81.6401 194.099 80.1188C194.099 78.5975 194.627 77.1385 195.567 76.0628C196.506 74.9871 197.781 74.3828 199.11 74.3828H218.508C219.837 74.3828 221.112 74.9871 222.052 76.0628C222.991 77.1385 223.519 78.5975 223.519 80.1188C223.519 81.6401 222.991 83.099 222.052 84.1747C221.112 85.2505 219.837 85.8548 218.508 85.8548Z" fill="#418F99"/>
<path d="M218.508 105.098H199.11C197.781 105.098 196.506 104.494 195.567 103.418C194.627 102.342 194.099 100.883 194.099 99.362C194.099 97.8407 194.627 96.3817 195.567 95.306C196.506 94.2303 197.781 93.626 199.11 93.626H218.508C219.837 93.626 221.112 94.2303 222.052 95.306C222.991 96.3817 223.519 97.8407 223.519 99.362C223.519 100.883 222.991 102.342 222.052 103.418C221.112 104.494 219.837 105.098 218.508 105.098Z" fill="#418F99"/>
<path d="M80.6196 108.643C80.3751 108.584 80.126 108.555 79.8761 108.555C79.4068 108.554 78.9421 108.66 78.5085 108.865C78.3623 108.935 78.2208 109.017 78.085 109.11L63.6204 101.679L63.2131 97.1863L56.9766 96.9976L57.0186 104.473C57.0262 105.339 57.2775 106.179 57.7353 106.868C58.1931 107.557 58.8329 108.059 59.5597 108.299L76.4749 113.81C76.5136 113.95 76.5493 114.072 76.5913 114.187C76.7835 114.716 77.0712 115.193 77.4356 115.585C77.8 115.978 78.2328 116.279 78.7057 116.467C79.0826 116.619 79.4795 116.697 79.8792 116.696C80.1283 116.697 80.3766 116.666 80.6196 116.604C80.759 116.57 80.8962 116.525 81.0302 116.47V108.773C80.8956 108.721 80.7586 108.678 80.6196 108.643Z" fill="#A0616A"/>
<path d="M41.0744 186.596H45.0381L46.9236 169.096H41.0737L41.0744 186.596Z" fill="#A0616A"/>
<path d="M52.6821 190.808L40.2251 190.809L40.2248 185.3L47.8689 185.299C49.1454 185.299 50.3696 185.88 51.2723 186.913C52.1749 187.946 52.6821 189.347 52.6821 190.808Z" fill="#2F2E41"/>
<path d="M20.4719 181.705L24.1155 183.491L31.8687 168.255L26.4915 165.619L20.4719 181.705Z" fill="#A0616A"/>
<path d="M29.6931 190.809L18.2422 185.195L20.1372 180.13L27.1639 183.575C28.3372 184.151 29.2629 185.236 29.7372 186.592C30.2116 187.949 30.1957 189.466 29.6931 190.809Z" fill="#2F2E41"/>
<path d="M50.8742 73.2696C55.2597 73.2696 58.8149 69.2002 58.8149 64.1804C58.8149 59.1607 55.2597 55.0913 50.8742 55.0913C46.4887 55.0913 42.9336 59.1607 42.9336 64.1804C42.9336 69.2002 46.4887 73.2696 50.8742 73.2696Z" fill="#A0616A"/>
<path d="M45.1375 182.317L40.7742 181.366C40.4155 181.29 40.0952 181.061 39.8773 180.727C39.6594 180.392 39.56 179.975 39.5992 179.56L42.4925 147.269C42.5202 146.961 42.4504 146.651 42.296 146.397C42.1415 146.143 41.9126 145.96 41.6506 145.883C41.3887 145.805 41.1112 145.837 40.8683 145.974C40.6254 146.11 40.4333 146.342 40.3267 146.627L27.6949 180.364C27.619 180.567 27.5086 180.75 27.3703 180.904C27.2319 181.057 27.0683 181.178 26.8889 181.258C26.7095 181.339 26.518 181.378 26.3253 181.373C26.1327 181.368 25.9428 181.319 25.7668 181.23L22.2179 179.424C21.8866 179.257 21.6219 178.954 21.4758 178.575C21.3297 178.196 21.3129 177.768 21.4285 177.376L30.0679 147.709C30.0922 147.625 30.109 147.539 30.1181 147.452L32.9224 120.346C32.953 120.05 33.0524 119.769 33.2102 119.532C33.368 119.295 33.5785 119.111 33.8196 118.999L42.6744 114.881C42.9363 114.759 43.2236 114.728 43.5012 114.79C43.7787 114.852 44.0344 115.005 44.237 115.231L55.4136 127.688C55.5878 127.881 55.7168 128.121 55.7888 128.386C55.8608 128.651 55.8735 128.933 55.8257 129.205L46.8368 181.006C46.7702 181.383 46.5917 181.723 46.3315 181.967C46.0712 182.212 45.7453 182.345 45.4087 182.346C45.3177 182.346 45.2269 182.337 45.1375 182.317Z" fill="#2F2E41"/>
<path d="M40.163 121.841C38.6161 119.79 37.4872 118.86 36.7151 119.007C35.949 119.148 35.507 120.373 35.039 121.67C34.4003 123.441 33.6764 125.448 31.8919 125.604C31.6141 125.659 31.3284 125.623 31.0676 125.501C30.8068 125.378 30.5813 125.175 30.4169 124.912C29.0133 122.523 32.38 114.616 32.6876 113.905L32.5297 76.5064C32.5276 76.2046 32.5972 75.9079 32.7313 75.6481C32.8653 75.3883 33.0586 75.1751 33.2905 75.0315C42.5423 69.3209 55.0348 79.2526 57.4451 81.302C57.6379 81.4655 57.7924 81.6812 57.8945 81.9297C57.9967 82.1783 58.0434 82.452 58.0304 82.7263C57.7396 88.9899 56.2888 120.591 56.2888 127.641C56.2888 129.592 55.7008 130.832 54.5409 131.326C54.1494 131.485 53.7361 131.562 53.3207 131.555C49.7819 131.555 43.986 126.907 40.163 121.841Z" fill="#CCCCCC"/>
<path d="M53.0744 103.681C52.881 103.537 52.7206 103.342 52.6068 103.112C52.493 102.883 52.4291 102.625 52.4205 102.361L51.7938 85.6101C51.7552 84.5787 52.0384 83.5653 52.5929 82.7512C53.1473 81.9371 53.9368 81.3754 54.82 81.1665C55.7031 80.9577 56.6224 81.1154 57.4133 81.6115C58.2042 82.1075 58.815 82.9095 59.1366 83.8739L63.8268 97.9425C63.964 98.3552 63.9525 98.8132 63.7949 99.2162C63.6373 99.6192 63.3465 99.9342 62.9863 100.092L54.3927 103.846C54.1775 103.941 53.9454 103.976 53.716 103.947C53.4866 103.919 53.2666 103.827 53.0744 103.681Z" fill="#CCCCCC"/>
<path d="M31.2363 129.855C30.815 129.53 30.461 129.104 30.1991 128.606C29.9373 128.108 29.774 127.551 29.7208 126.973C29.6676 126.395 29.7257 125.81 29.8911 125.261C30.0566 124.712 30.3252 124.21 30.6782 123.792L29.1619 84.9712L36.6631 85.9822L35.7923 123.87C36.3661 124.595 36.6876 125.536 36.6958 126.514C36.704 127.493 36.3984 128.441 35.8368 129.179C35.2752 129.916 34.4967 130.393 33.6488 130.517C32.8009 130.642 31.9425 130.406 31.2363 129.855Z" fill="#A0616A"/>
<path d="M26.0276 95.3088C25.8917 95.0954 25.8025 94.8477 25.7677 94.5866C25.7329 94.3255 25.7534 94.0587 25.8276 93.8086L30.4598 77.9024C30.7449 76.9231 31.3252 76.0919 32.0968 75.5575C32.8684 75.0231 33.781 74.8205 34.6712 74.9858C35.5614 75.1512 36.3711 75.6737 36.9555 76.46C37.5399 77.2462 37.8608 78.2448 37.8608 79.2771V94.3352C37.8603 94.7767 37.7069 95.2 37.4342 95.5122C37.1614 95.8244 36.7916 96 36.4059 96.0005H27.2079C26.9771 96.0019 26.7494 95.9398 26.544 95.8194C26.3386 95.699 26.1615 95.5239 26.0276 95.3088Z" fill="#CCCCCC"/>
<path d="M45.7463 70.2941C45.449 70.5607 45.0777 70.6957 44.7005 70.6741C44.3233 70.6526 43.9656 70.4761 43.693 70.177C41.9911 68.3561 40.5549 66.1788 39.828 63.6572C38.9951 60.7677 39.2078 57.3836 40.8029 54.9496C42.1512 52.892 44.2855 51.7295 46.3877 50.8208C47.2083 50.4236 48.0754 50.1658 48.9612 50.0558C49.856 49.9496 50.7525 50.2377 51.4682 50.8616C51.817 51.1804 52.0737 51.6121 52.205 52.1004C52.3362 52.5887 52.3358 53.1109 52.2039 53.5989C53.2819 52.4782 54.5972 51.6993 56.0193 51.3397C56.9194 51.0665 57.8707 51.1117 58.748 51.4691C59.9671 52.043 60.7591 53.4447 61.124 54.8946C61.4258 56.0006 61.4502 57.1814 61.1946 58.3026C61.0633 58.8599 60.8312 59.3796 60.5135 59.8279C60.1957 60.2762 59.7993 60.6431 59.3498 60.905C58.2344 61.5065 56.9107 61.2794 55.7445 60.8215C54.5782 60.3636 53.4725 59.6879 52.2662 59.3958C51.0599 59.1037 49.6672 59.2742 48.8136 60.2926C48.2125 61.0098 47.9758 62.0187 47.7608 62.9816L46.6426 67.99C46.5192 68.7196 46.2831 69.4181 45.9454 70.0527C45.8888 70.143 45.8218 70.2243 45.7463 70.2941Z" fill="#2F2E41"/>
<path d="M99.9501 101.186V118.268L100.154 118.439V101.212C100.086 101.198 100.018 101.189 99.9501 101.186ZM121.602 90.0103L111.282 81.436C110.53 80.8145 109.595 80.559 108.679 80.7255C107.763 80.8919 106.943 81.4667 106.397 82.3241L100.361 91.8495L99.9501 92.4935V129.222C99.9491 130.158 99.6238 131.056 99.0456 131.717C98.4674 132.379 97.6835 132.752 96.8658 132.753H95.1523L96.1448 132.982C96.3734 133.037 96.6064 133.064 96.8399 133.064C97.3922 133.063 97.9367 132.914 98.4289 132.627C98.9211 132.34 99.3471 131.924 99.6721 131.413L100.092 130.747L122.378 95.5983C122.92 94.7386 123.143 93.6681 122.997 92.6209C122.852 91.5738 122.35 90.6351 121.602 90.0103ZM122.045 95.3207L100.348 129.541L100.118 129.903L100.096 129.94C100.135 129.703 100.154 129.463 100.154 129.222V92.9745L100.361 92.6489L106.733 82.6016C107.214 81.8456 107.938 81.3386 108.745 81.1916C109.552 81.0446 110.377 81.2695 111.039 81.8171L121.359 90.3915C122.02 90.942 122.463 91.77 122.592 92.694C122.72 93.6179 122.523 94.5625 122.045 95.3207Z" fill="#CCCCCC"/>
<path d="M111.071 104.313C110.493 104.313 109.93 104.103 109.463 103.712L103.664 98.8954C103.074 98.4048 102.679 97.6668 102.565 96.8431C102.451 96.0195 102.626 95.1776 103.053 94.502L107.262 87.864C107.69 87.1888 108.335 86.7359 109.055 86.6049C109.774 86.474 110.51 86.6756 111.1 87.1656L116.899 91.9826C117.488 92.4732 117.883 93.2112 117.998 94.0348C118.112 94.8584 117.937 95.7003 117.509 96.3758L113.301 103.014C113.09 103.349 112.823 103.633 112.515 103.849C112.207 104.065 111.865 104.209 111.508 104.273C111.364 104.299 111.217 104.313 111.071 104.313Z" fill="#CCCCCC"/>
<path opacity="0.5" d="M101.861 119.6C101.481 119.6 101.111 119.462 100.805 119.205L99.7878 118.361V100.989L99.9591 101.001C100.112 101.011 100.264 101.043 100.41 101.096C100.592 101.163 100.764 101.262 100.919 101.392L108.241 107.476C108.433 107.635 108.596 107.837 108.72 108.068C108.844 108.299 108.927 108.557 108.964 108.825C109.001 109.093 108.992 109.367 108.936 109.631C108.881 109.895 108.78 110.144 108.641 110.363L103.327 118.745C103.189 118.965 103.014 119.152 102.812 119.294C102.61 119.436 102.385 119.531 102.151 119.573C102.055 119.591 101.958 119.6 101.861 119.6Z" fill="#E6E6E6"/>
<path d="M96.8656 80.9697H84.1145C83.188 80.971 82.2997 81.3929 81.6445 82.1428C80.9893 82.8928 80.6208 83.9095 80.6196 84.9701V129.222C80.6208 130.283 80.9893 131.3 81.6445 132.05C82.2997 132.8 83.188 133.221 84.1145 133.223H96.8656C97.557 133.222 98.2326 132.986 98.807 132.545C99.3813 132.104 99.8285 131.479 100.092 130.747C100.176 130.52 100.241 130.285 100.286 130.044C100.316 129.878 100.337 129.71 100.348 129.541C100.357 129.435 100.361 129.329 100.36 129.222V84.9701C100.359 83.9095 99.9908 82.8928 99.3356 82.1428C98.6804 81.3929 97.7921 80.971 96.8656 80.9697ZM99.9499 129.222C99.9489 130.158 99.6236 131.056 99.0454 131.717C98.4672 132.379 97.6833 132.752 96.8656 132.753H84.1145C83.2968 132.752 82.5129 132.379 81.9347 131.717C81.3564 131.056 81.0312 130.158 81.0302 129.222V84.9701C81.0312 84.0341 81.3564 83.1368 81.9347 82.4749C82.5129 81.8131 83.2968 81.4408 84.1145 81.4397H96.8656C97.6833 81.4408 98.4672 81.8131 99.0454 82.475C99.6236 83.1368 99.9489 84.0341 99.9499 84.9701V129.222Z" fill="#3F3D56"/>
<path d="M94.0728 100.219H86.9075C86.1789 100.218 85.4804 99.8867 84.9652 99.297C84.45 98.7073 84.1602 97.9078 84.1594 97.0738V88.8721C84.1602 88.0381 84.45 87.2386 84.9652 86.6489C85.4804 86.0592 86.1789 85.7275 86.9075 85.7266H94.0728C94.8014 85.7275 95.4999 86.0592 96.0151 86.6489C96.5302 87.2386 96.82 88.0381 96.8208 88.8721V97.0738C96.82 97.9078 96.5302 98.7073 96.0151 99.297C95.4999 99.8867 94.8014 100.218 94.0728 100.219Z" fill="#418F99"/>
<path opacity="0.5" d="M94.0728 118.579H86.9075C86.1789 118.578 85.4804 118.247 84.9652 117.657C84.45 117.067 84.1602 116.268 84.1594 115.434V107.232C84.1602 106.398 84.45 105.598 84.9652 105.009C85.4804 104.419 86.1789 104.087 86.9075 104.086H94.0728C94.8014 104.087 95.4999 104.419 96.0151 105.009C96.5302 105.598 96.82 106.398 96.8208 107.232V115.434C96.82 116.268 96.5302 117.067 96.0151 117.657C95.4999 118.247 94.8014 118.578 94.0728 118.579Z" fill="#418F99"/>
<path d="M90.4903 122.632C89.9615 122.632 89.4445 122.811 89.0048 123.148C88.5651 123.484 88.2224 123.962 88.02 124.521C87.8176 125.08 87.7646 125.696 87.8678 126.289C87.9709 126.883 88.2255 127.428 88.5995 127.856C88.9734 128.284 89.4498 128.576 89.9684 128.694C90.4871 128.812 91.0247 128.751 91.5133 128.52C92.0018 128.288 92.4194 127.896 92.7132 127.393C93.007 126.889 93.1638 126.298 93.1638 125.692C93.163 124.881 92.881 124.103 92.3798 123.529C91.8786 122.956 91.1991 122.633 90.4903 122.632ZM90.4903 128.279C90.043 128.279 89.6058 128.126 89.2341 127.842C88.8624 127.557 88.5728 127.152 88.4019 126.679C88.231 126.206 88.1866 125.686 88.2742 125.184C88.3617 124.682 88.5774 124.22 88.8939 123.859C89.2104 123.497 89.6135 123.251 90.0523 123.151C90.491 123.052 90.9457 123.103 91.3588 123.3C91.7719 123.496 92.1249 123.828 92.3732 124.254C92.6214 124.68 92.7537 125.18 92.7534 125.692C92.7521 126.378 92.5131 127.036 92.0889 127.521C91.6647 128.006 91.0898 128.278 90.4903 128.279Z" fill="#3F3D56"/>
<path d="M83.5363 191H2.93901C2.83711 191 2.73948 190.953 2.66753 190.87C2.59558 190.788 2.55518 190.676 2.55518 190.559C2.55518 190.443 2.59558 190.331 2.66753 190.248C2.73948 190.166 2.83711 190.119 2.93901 190.119H83.5363C83.6382 190.119 83.7359 190.166 83.8078 190.248C83.8798 190.331 83.9202 190.443 83.9202 190.559C83.9202 190.676 83.8798 190.788 83.8078 190.87C83.7359 190.953 83.6382 191 83.5363 191Z" fill="#3F3D56"/>
</g>
<defs>
<clipPath id="clip0_193_2375">
<rect width="251" height="191" fill="white"/>
</clipPath>
</defs>
</svg>
