<svg width="181" height="177" viewBox="0 0 181 177" fill="none" xmlns="http://www.w3.org/2000/svg">
<g clip-path="url(#clip0_193_1990)">
<path d="M130.342 41.952H129.325V15.3794C129.325 11.3005 127.623 7.38873 124.595 4.50453C121.566 1.62033 117.459 2.00616e-09 113.176 2.00616e-09H54.0618C51.9412 -3.2618e-05 49.8413 0.397735 47.8821 1.17059C45.9228 1.94345 44.1426 3.07626 42.6431 4.50435C41.1435 5.93244 39.954 7.62783 39.1424 9.49374C38.3308 11.3596 37.9131 13.3595 37.9131 15.3792V161.159C37.9131 165.237 39.6144 169.149 42.6429 172.033C45.6713 174.918 49.7787 176.538 54.0616 176.538H113.175C117.458 176.538 121.566 174.918 124.594 172.033C127.622 169.149 129.324 165.237 129.324 161.159V60.8669H130.341L130.342 41.952Z" fill="#3F3D56"/>
<path d="M126.012 14.3494V162.188C126.012 165.281 124.722 168.247 122.426 170.434C120.13 172.621 117.016 173.85 113.769 173.851H53.442C50.1936 173.851 47.0779 172.623 44.7804 170.436C42.4829 168.249 41.1916 165.282 41.1907 162.188V14.3494C41.1916 11.2558 42.4828 8.28919 44.7802 6.10212C47.0777 3.91505 50.1932 2.68662 53.4415 2.68701H60.7595C60.4002 3.52857 60.2634 4.44131 60.3612 5.345C60.4591 6.24869 60.7885 7.11567 61.3205 7.86972C61.8525 8.62377 62.5709 9.24182 63.4125 9.66954C64.254 10.0973 65.193 10.3215 66.147 10.3227H100.54C101.494 10.3215 102.433 10.0973 103.275 9.66954C104.116 9.24182 104.835 8.62377 105.367 7.86972C105.899 7.11567 106.228 6.24869 106.326 5.345C106.424 4.44131 106.287 3.52857 105.928 2.68701H113.767C117.014 2.68754 120.128 3.91612 122.424 6.10265C124.72 8.28918 126.011 11.2547 126.012 14.3472V14.3494Z" fill="white"/>
<path d="M111.058 99.5064H57.4509C57.1877 99.5061 56.9354 99.4064 56.7493 99.2292C56.5632 99.052 56.4585 98.8117 56.4583 98.561V85.8968C56.4586 85.6462 56.5633 85.4059 56.7494 85.2287C56.9355 85.0515 57.1878 84.9517 57.4509 84.9514H111.058C111.322 84.9517 111.574 85.0515 111.76 85.2287C111.946 85.4059 112.051 85.6462 112.051 85.8968V98.5613C112.051 98.8119 111.946 99.0522 111.76 99.2294C111.574 99.4066 111.322 99.5063 111.058 99.5066V99.5064ZM57.4509 85.3295C57.293 85.3296 57.1415 85.3894 57.0298 85.4958C56.9182 85.6021 56.8554 85.7464 56.8552 85.8968V98.5612C56.8554 98.7117 56.9182 98.8559 57.0298 98.9623C57.1415 99.0686 57.293 99.1285 57.4509 99.1286H111.058C111.216 99.1285 111.368 99.0686 111.48 98.9623C111.591 98.8559 111.654 98.7117 111.654 98.5612V85.8968C111.654 85.7464 111.591 85.6021 111.48 85.4958C111.368 85.3894 111.216 85.3296 111.058 85.3295H57.4509Z" fill="#E6E6E6"/>
<path d="M74.0299 89.5122C73.8456 89.5122 73.6688 89.5819 73.5385 89.7061C73.4082 89.8302 73.335 89.9985 73.335 90.1741C73.335 90.3496 73.4082 90.5179 73.5385 90.6421C73.6688 90.7662 73.8456 90.8359 74.0299 90.8359H106.79C106.974 90.8426 107.154 90.7794 107.289 90.6601C107.424 90.5408 107.504 90.3752 107.511 90.1998C107.518 90.0243 107.452 89.8534 107.326 89.7246C107.201 89.5958 107.027 89.5196 106.843 89.5129C106.833 89.5126 106.823 89.5124 106.813 89.5124L74.0299 89.5122Z" fill="#E6E6E6"/>
<path d="M74.0299 93.4824C73.8456 93.4824 73.6688 93.5521 73.5385 93.6763C73.4082 93.8004 73.335 93.9687 73.335 94.1443C73.335 94.3198 73.4082 94.4881 73.5385 94.6123C73.6688 94.7364 73.8456 94.8061 74.0299 94.8061H106.79C106.974 94.8128 107.154 94.7496 107.289 94.6303C107.424 94.511 107.504 94.3454 107.511 94.17C107.518 93.9945 107.452 93.8236 107.326 93.6948C107.201 93.566 107.027 93.4899 106.843 93.4831C106.833 93.4828 106.823 93.4826 106.813 93.4827L74.0299 93.4824Z" fill="#E6E6E6"/>
<path d="M111.058 120.615H57.4509C57.1877 120.615 56.9354 120.515 56.7493 120.338C56.5632 120.161 56.4585 119.92 56.4583 119.67V107.005C56.4586 106.755 56.5633 106.515 56.7494 106.337C56.9355 106.16 57.1878 106.06 57.4509 106.06H111.058C111.322 106.06 111.574 106.16 111.76 106.337C111.946 106.515 112.051 106.755 112.051 107.005V119.67C112.051 119.92 111.946 120.161 111.76 120.338C111.574 120.515 111.322 120.615 111.058 120.615ZM57.4509 106.438C57.293 106.438 57.1415 106.498 57.0298 106.604C56.9182 106.711 56.8554 106.855 56.8552 107.005V119.67C56.8554 119.82 56.9182 119.965 57.0298 120.071C57.1415 120.177 57.293 120.237 57.4509 120.237H111.058C111.216 120.237 111.368 120.177 111.48 120.071C111.591 119.965 111.654 119.82 111.654 119.67V107.005C111.654 106.855 111.591 106.711 111.48 106.604C111.368 106.498 111.216 106.438 111.058 106.438H57.4509Z" fill="#E6E6E6"/>
<path d="M74.0299 110.689C73.8456 110.689 73.6688 110.759 73.5385 110.883C73.4082 111.007 73.335 111.176 73.335 111.351C73.335 111.527 73.4082 111.695 73.5385 111.819C73.6688 111.943 73.8456 112.013 74.0299 112.013H106.79C106.972 112.012 107.146 111.943 107.275 111.822C107.404 111.7 107.478 111.535 107.481 111.362C107.484 111.189 107.416 111.021 107.291 110.896C107.166 110.77 106.994 110.696 106.813 110.689H74.0299V110.689Z" fill="#E6E6E6"/>
<path d="M74.0299 114.661C73.8456 114.661 73.6688 114.73 73.5385 114.855C73.4082 114.979 73.335 115.147 73.335 115.322C73.335 115.498 73.4082 115.666 73.5385 115.79C73.6688 115.915 73.8456 115.984 74.0299 115.984H106.79C106.972 115.983 107.146 115.915 107.275 115.793C107.404 115.671 107.478 115.506 107.481 115.333C107.484 115.16 107.416 114.993 107.291 114.867C107.166 114.742 106.994 114.668 106.813 114.661H74.0299V114.661Z" fill="#E6E6E6"/>
<path d="M111.058 141.793H57.4509C57.1877 141.793 56.9354 141.693 56.7493 141.516C56.5632 141.338 56.4585 141.098 56.4583 140.847V128.183C56.4586 127.933 56.5633 127.692 56.7494 127.515C56.9355 127.338 57.1878 127.238 57.4509 127.238H111.058C111.322 127.238 111.574 127.338 111.76 127.515C111.946 127.692 112.051 127.933 112.051 128.183V140.848C112.051 141.098 111.946 141.339 111.76 141.516C111.574 141.693 111.322 141.793 111.058 141.793V141.793ZM57.4509 127.616C57.293 127.616 57.1415 127.676 57.0298 127.782C56.9182 127.889 56.8554 128.033 56.8552 128.183V140.848C56.8554 140.998 56.9182 141.142 57.0298 141.249C57.1415 141.355 57.293 141.415 57.4509 141.415H111.058C111.216 141.415 111.368 141.355 111.48 141.249C111.591 141.142 111.654 140.998 111.654 140.848V128.183C111.654 128.033 111.591 127.889 111.48 127.782C111.368 127.676 111.216 127.616 111.058 127.616H57.4509Z" fill="#E6E6E6"/>
<path d="M74.0299 131.868C73.8456 131.868 73.6688 131.937 73.5385 132.062C73.4082 132.186 73.335 132.354 73.335 132.53C73.335 132.705 73.4082 132.873 73.5385 132.998C73.6688 133.122 73.8456 133.191 74.0299 133.191H106.79C106.881 133.195 106.972 133.181 107.058 133.151C107.143 133.121 107.222 133.075 107.289 133.016C107.356 132.956 107.41 132.885 107.448 132.806C107.486 132.727 107.508 132.642 107.511 132.555C107.515 132.468 107.5 132.382 107.468 132.3C107.437 132.219 107.388 132.144 107.326 132.08C107.264 132.016 107.19 131.965 107.107 131.928C107.024 131.892 106.934 131.872 106.843 131.868C106.833 131.868 106.823 131.868 106.813 131.868L74.0299 131.868Z" fill="#E6E6E6"/>
<path d="M74.0299 135.839C73.8456 135.839 73.6688 135.909 73.5385 136.033C73.4082 136.157 73.335 136.325 73.335 136.501C73.335 136.676 73.4082 136.845 73.5385 136.969C73.6688 137.093 73.8456 137.163 74.0299 137.163H106.79C106.881 137.166 106.972 137.152 107.058 137.122C107.143 137.092 107.222 137.046 107.289 136.987C107.356 136.928 107.41 136.857 107.448 136.778C107.486 136.699 107.508 136.613 107.511 136.526C107.515 136.44 107.5 136.353 107.468 136.271C107.437 136.19 107.388 136.115 107.326 136.051C107.264 135.987 107.19 135.936 107.107 135.9C107.024 135.863 106.934 135.843 106.843 135.84C106.833 135.839 106.823 135.839 106.813 135.839H74.0299V135.839Z" fill="#E6E6E6"/>
<path d="M180.527 177H0.4726C0.211783 177 0 176.884 0 176.741C0 176.597 0.211783 176.481 0.4726 176.481H180.527C180.788 176.481 181 176.597 181 176.741C181 176.884 180.788 177 180.527 177Z" fill="#E6E6E6"/>
<path d="M7.58257 166.874C8.40552 167.15 9.28912 167.219 10.1482 167.075C11.0073 166.931 11.8129 166.578 12.4875 166.051C14.2055 164.678 14.7441 162.416 15.1823 160.321L16.4785 154.125L13.7647 155.905C11.813 157.184 9.81751 158.505 8.46595 160.359C7.1144 162.213 6.52469 164.743 7.61047 166.749" fill="#E6E6E6"/>
<path d="M8.00169 174.807C7.66002 172.437 7.30869 170.037 7.54838 167.641C7.76121 165.514 8.44273 163.436 9.83028 161.732C10.5667 160.829 11.4629 160.056 12.4784 159.447C12.7431 159.287 12.9869 159.687 12.7233 159.846C10.9658 160.903 9.60636 162.465 8.841 164.306C7.99595 166.353 7.86032 168.584 8.00638 170.758C8.09454 172.073 8.28102 173.38 8.46907 174.685C8.48386 174.744 8.4746 174.806 8.44313 174.858C8.41166 174.911 8.36034 174.951 8.29954 174.969C8.2375 174.985 8.17139 174.977 8.11554 174.946C8.05968 174.916 8.01859 174.866 8.00117 174.807H8.00169Z" fill="#F2F2F2"/>
<path d="M10.4604 171.005C10.8134 171.515 11.2985 171.931 11.8692 172.212C12.4398 172.492 13.0766 172.628 13.7183 172.606C15.3675 172.531 16.7425 171.435 17.9801 170.395L21.6409 167.317L19.2182 167.207C17.4759 167.127 15.6885 167.053 14.0279 167.565C12.3673 168.077 10.8379 169.308 10.5345 170.943" fill="#E6E6E6"/>
<path d="M7.03608 176.17C8.67923 173.399 10.5879 170.319 13.996 169.335C14.9436 169.062 15.9372 168.964 16.9234 169.047C17.2343 169.072 17.1566 169.529 16.8452 169.503C15.1921 169.372 13.5423 169.788 12.1734 170.68C10.856 171.534 9.83047 172.721 8.96247 173.98C8.43067 174.75 7.95442 175.555 7.47817 176.358C7.32637 176.615 6.88298 176.43 7.03608 176.17Z" fill="#F2F2F2"/>
<path d="M64.1389 96.1219C66.4416 96.1219 68.3083 94.3441 68.3083 92.151C68.3083 89.958 66.4416 88.1802 64.1389 88.1802C61.8362 88.1802 59.9695 89.958 59.9695 92.151C59.9695 94.3441 61.8362 96.1219 64.1389 96.1219Z" fill="#418F99"/>
<path d="M62.1428 91.4094C62.0948 91.4094 62.0559 91.7058 62.0559 92.0712C62.0559 92.4365 62.0948 92.7331 62.1428 92.7331H66.2425C66.2905 92.7391 66.3302 92.4477 66.331 92.0823C66.3576 91.8548 66.3283 91.6245 66.2454 91.4097H62.1428V91.4094Z" fill="#E6E6E6"/>
<path d="M64.1389 117.308C66.4416 117.308 68.3083 115.531 68.3083 113.338C68.3083 111.145 66.4416 109.367 64.1389 109.367C61.8362 109.367 59.9695 111.145 59.9695 113.338C59.9695 115.531 61.8362 117.308 64.1389 117.308Z" fill="#418F99"/>
<path d="M62.1428 112.596C62.0948 112.596 62.0559 112.892 62.0559 113.258C62.0559 113.623 62.0948 113.92 62.1428 113.92H66.2425C66.2905 113.926 66.3302 113.634 66.331 113.269C66.3576 113.041 66.3283 112.811 66.2454 112.596L62.1428 112.596Z" fill="#E6E6E6"/>
<path d="M64.1389 138.486C66.4416 138.486 68.3083 136.708 68.3083 134.515C68.3083 132.322 66.4416 130.544 64.1389 130.544C61.8362 130.544 59.9695 132.322 59.9695 134.515C59.9695 136.708 61.8362 138.486 64.1389 138.486Z" fill="#418F99"/>
<path d="M62.1428 133.773C62.0948 133.773 62.0559 134.07 62.0559 134.435C62.0559 134.801 62.0948 135.097 62.1428 135.097H66.2425C66.2905 135.103 66.3302 134.812 66.331 134.446C66.3576 134.219 66.3283 133.989 66.2454 133.774L62.1428 133.773Z" fill="#E6E6E6"/>
<path d="M97.0726 63.7554C96.8561 63.7561 96.6437 63.6995 96.4589 63.5921C96.2742 63.4847 96.1243 63.3306 96.0261 63.1469C95.1896 61.5895 94.035 60.207 92.6299 59.0804C91.2248 57.9538 89.5975 57.1059 87.8436 56.5865C87.1255 56.379 86.3926 56.2209 85.6507 56.1136L85.4995 56.0917L93.3031 32.8552L93.435 32.8596C108.596 36.783 117.27 48.3548 119.567 51.808C119.655 51.94 119.712 52.088 119.736 52.2425C119.76 52.397 119.749 52.5545 119.705 52.7049C119.661 52.8553 119.584 52.9952 119.48 53.1155C119.375 53.2358 119.245 53.334 119.099 53.4035L97.5992 63.6368C97.4358 63.7148 97.2554 63.7554 97.0726 63.7554Z" fill="#E6E6E6"/>
<path d="M143.873 113.267C143.954 112.939 144.11 112.632 144.329 112.368C144.548 112.103 144.825 111.888 145.142 111.737C145.458 111.586 145.805 111.502 146.158 111.493C146.512 111.483 146.863 111.548 147.188 111.681L153 105.647L154.086 109.774L148.4 114.872C148.128 115.376 147.671 115.768 147.116 115.974C146.56 116.179 145.945 116.183 145.387 115.985C144.829 115.787 144.367 115.401 144.087 114.9C143.808 114.399 143.732 113.818 143.872 113.267L143.873 113.267Z" fill="#FEB8B8"/>
<path d="M156.355 173.462H152.804L151.115 160.417H156.357L156.355 173.462Z" fill="#FEB8B8"/>
<path d="M157.261 172.358H150.267C149.085 172.358 147.951 172.805 147.116 173.601C146.28 174.397 145.81 175.477 145.81 176.602V176.74H157.26L157.261 172.358Z" fill="#2F2E41"/>
<path d="M176.748 170.112L173.428 171.312L166.988 159.687L171.888 157.916L176.748 170.112Z" fill="#FEB8B8"/>
<path d="M177.184 168.773L170.645 171.137C169.54 171.537 168.647 172.338 168.163 173.364C167.678 174.391 167.641 175.559 168.06 176.611L168.113 176.74L178.818 172.871L177.184 168.773Z" fill="#2F2E41"/>
<path d="M165.058 130.072L168.001 145.153C168.001 145.153 175.989 166.373 175.428 166.906C174.868 167.44 167.16 169.309 167.581 168.108C168.001 166.907 158.332 148.89 158.332 148.89L165.058 130.072Z" fill="#2F2E41"/>
<path d="M153.124 102.666C153.124 102.666 147.184 110.062 147.962 110.466C148.741 110.87 151.756 113.008 151.756 113.008L154.825 104.989L153.124 102.666Z" fill="#E4E4E4"/>
<path d="M151.465 110.131C151.465 110.131 150.484 117.071 150.905 118.539C151.325 120.007 151.045 161.646 150.765 162.313C150.485 162.98 149.643 165.249 150.064 166.317C150.485 167.385 156.23 170.054 157.071 169.12C157.912 168.185 164.078 134.153 164.078 134.153C164.078 134.153 172.766 113.601 170.804 111.599C168.843 109.598 151.465 110.131 151.465 110.131Z" fill="#2F2E41"/>
<path d="M164.073 65.5292C167.865 65.5292 170.939 62.6014 170.939 58.9897C170.939 55.378 167.865 52.4502 164.073 52.4502C160.28 52.4502 157.206 55.378 157.206 58.9897C157.206 62.6014 160.28 65.5292 164.073 65.5292Z" fill="#FEB8B8"/>
<path d="M156.898 73.7693C157.071 72.7105 157.624 71.7414 158.463 71.027L159.714 67.3818H167.072L169.122 70.4458C171.339 71.3552 172.982 72.7974 173.045 74.4974C173.384 75.6263 171.923 111.466 171.503 112.8C171.38 113.188 169.703 113.396 167.347 113.489C165.186 113.572 162.455 113.561 159.833 113.503C155.492 113.407 151.444 113.185 150.763 113.067C149.223 112.8 156.745 74.6114 156.898 73.7693Z" fill="#E4E4E4"/>
<path d="M163.402 121.295C163.701 121.113 163.953 120.872 164.143 120.588C164.332 120.303 164.454 119.983 164.5 119.649C164.545 119.315 164.513 118.975 164.406 118.654C164.298 118.333 164.119 118.039 163.879 117.791L167.939 110.573L163.49 110.96L160.316 117.755C159.906 118.166 159.668 118.706 159.648 119.273C159.628 119.84 159.827 120.394 160.208 120.831C160.588 121.267 161.124 121.556 161.713 121.641C162.302 121.727 162.903 121.603 163.403 121.294L163.402 121.295Z" fill="#FEB8B8"/>
<path d="M164.078 69.8266C164.078 69.8266 157.631 72.3622 160.014 78.7688C162.396 85.1754 165.058 92.7821 165.058 92.7821C165.058 92.7821 161.695 109.998 161.695 110.667C161.695 111.335 159.593 114.937 160.434 115.605C161.275 116.272 166.88 117.606 167.02 116.939C167.45 115.402 167.964 113.887 168.561 112.402C168.842 111.868 175.428 95.1853 174.586 93.7173C173.968 92.637 173.425 82.7382 173.181 77.5867C173.125 76.1167 172.668 74.6859 171.854 73.4353C171.041 72.1846 169.9 71.1572 168.543 70.454C167.238 69.7928 165.717 69.4361 164.078 69.8266Z" fill="#E4E4E4"/>
<path d="M166.716 61.9125C166.194 61.6835 165.59 61.636 165.026 61.4937C163.009 60.984 161.657 59.087 162.089 57.3703C162.168 57.152 162.204 56.9215 162.195 56.6907C162.119 56.1822 161.494 55.8541 160.894 55.7376C160.295 55.6211 159.656 55.6383 159.083 55.4507C158.669 55.3108 158.301 55.067 158.019 54.745C157.738 54.4231 157.553 54.0348 157.483 53.621C157.394 52.8171 157.609 52.0094 158.09 51.343L158.307 51.8616C158.628 51.6404 158.874 51.3342 159.014 50.9811C159.25 51.0079 159.474 51.0899 159.668 51.2196C159.862 51.3493 160.019 51.5227 160.126 51.7243C160.473 51.8949 160.523 51.1945 160.908 51.0911C161.075 51.0734 161.243 51.1083 161.387 51.1905C162.161 51.4908 163.06 51.234 163.891 51.0675C165.334 50.7807 166.822 50.7792 168.265 51.0633C169.221 51.2528 170.167 51.5832 170.851 52.1699C171.375 52.6602 171.787 53.249 172.06 53.8987C172.793 55.4343 173.278 57.0958 173.035 58.7358C172.815 60.1118 172.135 61.3836 171.096 62.3623C170.542 62.8931 168.736 64.7447 167.745 64.4292C166.499 64.0318 168.182 62.5576 166.716 61.9125Z" fill="#2F2E41"/>
<path d="M83.9774 68.1745C85.1298 68.1745 86.0639 67.2848 86.0639 66.1874C86.0639 65.0899 85.1298 64.2002 83.9774 64.2002C82.825 64.2002 81.8909 65.0899 81.8909 66.1874C81.8909 67.2848 82.825 68.1745 83.9774 68.1745Z" fill="#3F3D56"/>
<path d="M69.975 63.7263C69.784 63.7261 69.596 63.6814 69.4273 63.5961L48.0525 52.8568C47.9108 52.7856 47.7858 52.6874 47.6854 52.5684C47.5849 52.4494 47.5112 52.3121 47.4686 52.1649C47.4261 52.0177 47.4156 51.8637 47.4379 51.7126C47.4603 51.5614 47.5149 51.4161 47.5984 51.2858C50.4536 46.9273 54.0693 43.0651 58.2896 39.8658C65.6711 34.2941 74.0674 31.4988 83.244 31.5457C86.6857 31.5603 90.1107 32.0019 93.4326 32.8594L93.5642 32.8934L85.7587 56.1285L85.6489 56.1128C84.9458 56.0118 84.2369 55.9519 83.5262 55.9335C75.5841 55.7201 72.1424 60.8706 71.031 63.0947C70.9641 63.2295 70.869 63.35 70.7515 63.4487C70.634 63.5473 70.4966 63.6221 70.3477 63.6685C70.2275 63.7067 70.1017 63.7262 69.975 63.7263Z" fill="#418F99"/>
<path d="M93.4007 32.9792L87.8819 56.4675C87.1577 56.2582 86.4185 56.0988 85.6702 55.9906L93.3981 32.9792H93.4007Z" fill="#3F3D56"/>
</g>
<defs>
<clipPath id="clip0_193_1990">
<rect width="181" height="177" fill="white"/>
</clipPath>
</defs>
</svg>
