<svg width="363" height="274" viewBox="0 0 363 274" fill="none" xmlns="http://www.w3.org/2000/svg">
<g clip-path="url(#clip0_181_3004)">
<path d="M172.511 139.776H156.577L157.803 124.973H170.469L172.511 139.776Z" fill="#A0616A"/>
<path opacity="0.1" d="M172.511 139.776H156.577L157.803 124.973H170.469L172.511 139.776Z" fill="black"/>
<path d="M53.3709 84.283C60.5775 84.283 66.4196 77.6685 66.4196 69.5092C66.4196 61.3499 60.5775 54.7354 53.3709 54.7354C46.1643 54.7354 40.3223 61.3499 40.3223 69.5092C40.3223 77.6685 46.1643 84.283 53.3709 84.283Z" fill="#FF6884"/>
<path d="M112.201 262.425C112.275 263.132 112.296 263.79 112.253 264.436H80.8699C80.5844 263.79 80.3413 263.12 80.1299 262.425C76.2928 249.943 82.6034 229.167 74.6016 198.361C68.661 175.502 57.5726 157.622 52.4037 149.293C46.0508 139.048 38.8524 129.594 30.5123 114.49C28.7048 111.223 26.8444 107.68 24.9206 103.815C24.2758 102.522 16.8447 87.5264 17.5213 87.0596C17.8384 86.8442 19.8045 89.8721 20.4704 90.8894C26.3476 99.8892 29.7618 103.827 34.656 110.301C37.6262 114.227 41.1356 119.074 46.0614 126.554C58.6931 145.714 65.0036 155.289 67.2023 162.457C67.7837 164.372 70.8808 174.737 76.7157 187.59C79.6965 194.148 81.1869 197.428 82.0009 197.164C84.3052 196.41 81.1975 169.255 71.4305 142.112C69.7603 137.492 68.513 134.536 66.1452 128.947C62.2976 119.828 40.8714 69.1436 25.1214 38.805C23.1447 34.9872 21.2527 31.5045 19.5085 28.4527C19.1703 27.8783 18.8426 27.3157 18.5255 26.7772C16.3268 23.0671 14.3819 20.135 12.7646 18.2441C11.9084 17.2388 9.73087 14.3904 5.36527 8.66978C3.63171 6.39586 2.36324 4.70841 1.50704 3.47568C1.3802 3.29621 1.26394 3.11666 1.16884 2.96107C0.132897 1.42921 -0.163044 0.68714 0.0800562 0.292252C0.428899 -0.270278 1.7713 0.0528769 3.2406 0.639295C3.39919 0.699121 3.56829 0.770924 3.72687 0.842727C5.32301 1.51293 6.94026 2.38663 7.47936 2.68583C12.4263 5.37861 17.257 10.2016 21.7283 15.9343C23.3878 18.0526 24.984 20.2906 26.5273 22.5885C31.4953 30.0085 35.8293 38.0869 39.1061 44.7291C43.1228 52.9151 45.5329 58.935 45.5329 58.935C56.7481 86.9759 69.1895 119.05 69.8449 118.775C70.5637 118.475 56.7693 78.5505 52.7525 56.8645C51.4101 49.6001 51.167 44.382 52.9322 43.3767C52.9956 43.3408 53.059 43.3049 53.133 43.281C53.4079 43.1732 53.6616 43.1852 53.799 43.1972C53.799 43.1972 55.4374 42.9578 57.1604 43.3767C59.3062 43.9033 61.748 50.6652 64.1263 60.1557C70.31 84.6181 76.1871 127.152 76.1871 127.152C82.0643 169.698 90.9857 204.13 93.0998 203.747C94.2731 203.531 92.5925 192.844 94.1569 175.024C95.2562 162.529 96.5035 162.912 100.499 140.317C106.841 104.473 110.013 86.5569 110.013 86.4612C109.981 85.7073 109.896 84.1873 110.097 82.6075C110.309 80.8961 110.848 79.1009 112.127 78.0837C114.072 76.5279 117.2 77.1981 118.469 78.0837C119.484 78.8017 120.002 80.1183 120.118 82.0091C120.815 93.9052 105.721 128.397 100.499 175.024C97.8988 198.253 96.4718 210.928 100.499 227.683C104.484 244.294 111.429 254.874 112.201 262.425Z" fill="#F2F2F2"/>
<path d="M250.8 262.425C250.726 263.132 250.704 263.79 250.747 264.436H282.13C282.416 263.79 282.659 263.12 282.87 262.425C286.707 249.943 280.397 229.167 288.399 198.361C294.339 175.502 305.427 157.622 310.596 149.293C316.949 139.048 324.148 129.594 332.488 114.49C334.295 111.223 336.156 107.68 338.08 103.815C338.724 102.522 346.155 87.5264 345.479 87.0596C345.162 86.8442 343.196 89.8721 342.53 90.8894C336.653 99.8892 333.238 103.827 328.344 110.301C325.374 114.227 321.864 119.074 316.939 126.554C304.307 145.714 297.997 155.289 295.798 162.457C295.216 164.372 292.119 174.737 286.284 187.59C283.304 194.148 281.813 197.428 280.999 197.164C278.695 196.41 281.803 169.255 291.57 142.112C293.24 137.492 294.487 134.536 296.855 128.947C300.703 119.828 322.129 69.1436 337.879 38.805C339.855 34.9872 341.747 31.5045 343.492 28.4527C343.83 27.8783 344.158 27.3158 344.475 26.7773C346.673 23.0672 348.618 20.135 350.236 18.2441C351.092 17.2388 353.269 14.3904 357.635 8.66979C359.368 6.39586 360.637 4.70842 361.493 3.47568C361.62 3.29621 361.736 3.11666 361.831 2.96107C362.867 1.42922 363.163 0.687139 362.92 0.292251C362.571 -0.270279 361.229 0.0528804 359.76 0.639294C359.601 0.69912 359.432 0.770923 359.273 0.842726C357.677 1.51293 356.06 2.38663 355.521 2.68583C350.574 5.37861 345.743 10.2016 341.272 15.9343C339.612 18.0526 338.016 20.2906 336.473 22.5885C331.505 30.0085 327.171 38.0869 323.894 44.7291C319.877 52.9151 317.467 58.935 317.467 58.935C306.252 86.9759 293.811 119.05 293.155 118.775C292.436 118.475 306.231 78.5505 310.248 56.8645C311.59 49.6001 311.833 44.382 310.068 43.3767C310.005 43.3408 309.941 43.3049 309.867 43.281C309.592 43.1732 309.339 43.1852 309.201 43.1972C309.201 43.1972 307.563 42.9578 305.84 43.3767C303.694 43.9033 301.252 50.6652 298.874 60.1557C292.69 84.6181 286.813 127.152 286.813 127.152C280.936 169.698 272.014 204.13 269.9 203.747C268.727 203.531 270.408 192.844 268.843 175.024C267.744 162.529 266.497 162.912 262.501 140.317C256.159 104.473 252.988 86.5569 252.988 86.4612C253.019 85.7073 253.104 84.1873 252.903 82.6075C252.692 80.8961 252.153 79.1009 250.874 78.0837C248.929 76.5279 245.8 77.1981 244.531 78.0837C243.516 78.8017 242.999 80.1183 242.882 82.0091C242.185 93.9052 257.279 128.397 262.501 175.024C265.101 198.253 266.528 210.928 262.501 227.683C258.516 244.294 251.571 254.874 250.8 262.425Z" fill="#F2F2F2"/>
<path d="M291.773 263.807C291.773 264.022 291.619 264.196 291.43 264.196H53.5591V263.418H291.43C291.619 263.418 291.773 263.592 291.773 263.807Z" fill="#E6E6E6"/>
<path d="M149.647 247.336L152.325 260.941L160.709 259.623L158.38 245.648L149.647 247.336Z" fill="#A0616A"/>
<path d="M194.595 247.336L191.917 260.941L183.532 259.623L185.861 245.648L194.595 247.336Z" fill="#A0616A"/>
<path d="M210.451 216.08L195.362 164.039C191.986 152.397 182.388 144.526 171.565 144.526C159.527 144.526 149.192 154.222 146.955 167.615L138.61 217.578C137.415 224.733 142.125 231.362 148.482 231.659V265.819H150.811V231.673H199.718V265.819H202.047V231.537C208.339 230.482 212.513 223.189 210.451 216.08Z" fill="#CCCCCC"/>
<path d="M179.224 180.65L150.811 181.705C150.811 181.705 140.098 203.327 158.963 206.228C177.827 209.128 194.362 205.964 195.061 196.735C195.759 187.506 189.937 180.387 179.224 180.65Z" fill="#2F2E41"/>
<path d="M156.168 183.024C156.168 183.024 145.455 184.342 144.523 187.77C143.592 191.198 143.126 206.228 143.126 206.228L147.318 249.735L159.195 248.153L156.634 206.491L170.374 203.063L156.168 183.024Z" fill="#2F2E41"/>
<path d="M153.839 254.745C153.839 254.745 150.314 252.108 149.398 253.295C148.482 254.481 143.592 260.282 143.592 260.282L134.975 266.347C134.975 266.347 127.522 274.257 138.002 273.994C148.482 273.73 153.839 270.158 153.839 270.158C153.839 270.158 163.853 270.038 163.62 266.874C163.388 263.71 160.008 255.417 160.008 255.417L153.839 254.745Z" fill="#2F2E41"/>
<path d="M188.074 183.024C188.074 183.024 198.787 184.342 199.718 187.77C200.65 191.198 201.116 206.228 201.116 206.228L196.924 249.735L185.046 248.153L187.608 206.491L173.867 203.063L188.074 183.024Z" fill="#2F2E41"/>
<path d="M190.403 254.745C190.403 254.745 193.927 252.108 194.843 253.295C195.759 254.481 200.65 260.282 200.65 260.282L209.267 266.347C209.267 266.347 216.72 274.257 206.239 273.994C195.759 273.73 190.403 270.158 190.403 270.158C190.403 270.158 180.389 270.038 180.621 266.874C180.854 263.71 184.233 255.417 184.233 255.417L190.403 254.745Z" fill="#2F2E41"/>
<path d="M170.84 132.133H157.32L147.085 137.407L149.414 172.213C149.414 172.213 146.511 182.794 150.058 183.436C153.606 184.078 173.169 188.034 178.525 184.606C183.882 181.178 188.54 182.233 188.54 182.233L182.252 136.088L170.84 132.133Z" fill="#3F3D56"/>
<path d="M164.436 130.683C171.381 130.683 177.012 124.308 177.012 116.444C177.012 108.58 171.381 102.205 164.436 102.205C157.49 102.205 151.859 108.58 151.859 116.444C151.859 124.308 157.49 130.683 164.436 130.683Z" fill="#A0616A"/>
<path d="M151.497 118.775L153.67 121.981L156.66 117.235C156.66 117.235 156.909 121.454 165.13 119.872C173.352 118.29 175.345 117.763 175.345 117.763L176.341 122.509C176.341 122.509 177.338 119.345 177.338 117.235C177.338 115.126 183.317 110.116 177.089 105.897C170.86 101.678 174.099 97.7228 166.376 97.9865C158.653 98.2502 153.919 97.9865 153.172 101.151C152.424 104.315 150.68 108.27 150.929 111.698C151.179 115.126 151.497 118.775 151.497 118.775Z" fill="#2F2E41"/>
<path d="M175.289 181.2C172.262 182.338 169.289 181.492 168.649 179.311C168.009 177.129 169.945 174.438 172.974 173.299C174.178 172.826 175.465 172.686 176.727 172.891L189.609 168.249L191.404 175.14L178.514 178.984C177.611 180.004 176.505 180.763 175.289 181.2Z" fill="#A0616A"/>
<path d="M116.264 165.788C113.365 164.28 111.702 161.364 112.55 159.275C113.398 157.187 116.435 156.717 119.335 158.226C120.501 158.811 121.526 159.703 122.324 160.828L134.536 167.395L131.692 173.817L119.956 166.662C118.681 166.709 117.415 166.409 116.264 165.788Z" fill="#A0616A"/>
<path d="M147.043 137.333C147.043 137.333 151.889 139.571 151.738 145.547C151.588 151.523 147.884 159.874 147.884 159.874C147.884 159.874 147.625 178.726 143.073 180.767C138.52 182.807 124.452 169.729 124.452 169.729L127.701 162.702L133.774 161.909L147.043 137.333Z" fill="#3F3D56"/>
<path d="M178.758 137.143C178.758 137.143 183.649 135.034 187.142 139.516C190.636 143.999 192.965 152.964 192.965 152.964C192.965 152.964 204.143 166.939 202.047 171.949C199.951 176.959 181.786 178.277 181.786 178.277L179.923 170.631L183.882 165.357L178.758 137.143Z" fill="#3F3D56"/>
<path d="M191.415 189.22H151.662C149.439 189.22 147.63 187.172 147.63 184.654V158.453C147.63 155.935 149.439 153.887 151.662 153.887H191.415C193.638 153.887 195.447 155.935 195.447 158.453V184.654C195.447 187.172 193.638 189.22 191.415 189.22Z" fill="#418F99"/>
<path d="M86.5839 179.539C85.599 178.954 84.0472 181.399 83.2076 180.83C82.371 180.264 83.6206 177.639 83.1499 173.963C83.0651 173.3 82.5302 169.123 81.0432 168.756C78.2247 168.061 74.4651 181.668 70.2151 181.04C69.2824 180.902 68.2269 180.063 65.3373 179.523C64.1877 179.308 63.554 179.291 63.1835 179.721C62.6577 180.33 63.121 181.306 63.4625 183.622C63.9747 187.096 63.2924 187.341 63.916 189.963C64.379 191.909 64.9982 192.796 64.591 193.337C64.0148 194.103 62.4028 192.821 61.5757 193.613C60.7317 194.422 61.2745 196.846 61.9245 198.491C63.1443 201.577 65.0948 202.814 66.6856 204.436C68.4143 206.198 70.5264 209.24 71.7606 214.77L81.1455 264.311C79.4182 254.007 75.1169 225.458 73.9144 214.573C73.5672 211.43 73.3039 208.181 75.0095 205.636C76.6516 203.186 79.9208 201.683 83.1363 198.018C83.5118 197.59 84.5437 196.384 84.2541 195.461C84.0147 194.699 83.0901 194.825 82.8572 194.117C82.5448 193.167 83.9547 192.169 85.1627 189.978C86.0145 188.433 86.3329 187.081 86.6066 185.918C86.6892 185.568 87.8949 180.318 86.5839 179.539Z" fill="#F2F2F2"/>
<path d="M48.0994 235.921C47.5617 236.3 48.1739 237.868 47.6851 238.17C47.198 238.472 46.4207 237.02 44.6915 236.221C44.3796 236.077 42.4144 235.169 41.8265 235.889C40.7121 237.255 45.5259 243.27 44.0271 245.451C43.6982 245.929 43.0303 246.274 41.9624 247.724C41.5375 248.3 41.3473 248.648 41.4265 248.977C41.539 249.445 42.0957 249.47 43.1984 249.948C44.8521 250.666 44.7613 251.116 46.0777 251.525C47.0549 251.83 47.6181 251.742 47.7352 252.124C47.9009 252.665 46.8801 253.191 46.985 253.879C47.0922 254.582 48.2994 254.979 49.1999 255.093C50.8897 255.305 51.9887 254.578 53.1508 254.162C54.4137 253.71 56.3415 253.414 59.0951 254.324L83.2787 263.403C78.3135 261.39 64.6966 255.543 59.6309 253.07C58.1686 252.357 56.6841 251.565 56.0729 249.883C55.4845 248.264 55.7765 246.014 55.1155 243.169C55.0383 242.837 54.813 241.915 54.3296 241.81C53.9299 241.723 53.7178 242.273 53.3436 242.199C52.8416 242.098 52.8157 241.027 52.2147 239.723C51.7909 238.804 51.2966 238.237 50.8715 237.75C50.7434 237.603 48.8153 235.418 48.0994 235.921Z" fill="#F2F2F2"/>
<path d="M60.3406 231.151L58.2291 228.095L58.242 227.743C58.3023 226.113 58.0406 224.745 57.4641 223.675C57.3725 223.505 57.2732 223.341 57.1722 223.173C56.7715 222.508 56.2732 221.681 56.1251 220.415C56.0438 219.709 55.964 217.998 56.9783 217.508C57.2498 217.374 57.5095 217.372 57.7358 217.424C57.7361 217.371 57.7371 217.318 57.7377 217.261C57.755 216.56 57.8674 216.186 57.9757 215.826C58.0588 215.549 58.145 215.264 58.2088 214.686C58.2369 214.432 58.2496 214.218 58.2605 214.038C58.2944 213.491 58.3621 212.821 58.9193 212.443C59.5273 212.062 60.1377 212.4 60.5421 212.623C61.2636 213.02 61.6857 213.375 61.9655 213.611C62.0676 213.697 62.1829 213.794 62.2276 213.817C62.5905 214.001 63.9767 212.625 64.501 212.11C65.676 210.949 66.6927 209.945 67.6685 210.554C68.3672 210.989 68.6001 212.047 68.3769 213.784C68.3072 214.325 68.1741 214.791 68.0405 215.178C68.3229 215.173 68.6241 215.258 68.882 215.542C69.4914 216.214 69.3214 217.433 68.3789 219.167C68.1456 219.599 67.83 220.177 67.2578 220.749C66.988 221.019 66.7242 221.222 66.4962 221.392C66.5741 221.548 66.6323 221.735 66.6428 221.962C66.6745 222.628 66.3041 223.215 65.52 223.683C64.6645 224.212 63.8846 224.509 63.1973 224.773C62.5975 225.003 62.0817 225.203 61.7408 225.478C61.1143 225.999 60.9314 226.951 60.7569 228.142L60.3406 231.151Z" fill="#F2F2F2"/>
<path d="M51.2088 210.557L49.1338 213.644L48.8295 213.719C47.4218 214.067 46.3196 214.7 45.552 215.603C45.43 215.747 45.3144 215.897 45.1967 216.05C44.73 216.658 44.1502 217.413 43.1065 217.896C42.5235 218.165 41.0817 218.686 40.4065 217.699C40.2225 217.436 40.155 217.152 40.1421 216.891C40.097 216.904 40.0513 216.917 40.0022 216.931C39.3989 217.089 39.0512 217.061 38.7162 217.034C38.4588 217.013 38.1931 216.991 37.683 217.068C37.4592 217.101 37.2728 217.142 37.1159 217.176C36.6406 217.277 36.0506 217.373 35.5864 216.859C35.1071 216.289 35.2404 215.535 35.3283 215.036C35.485 214.145 35.6811 213.592 35.8114 213.226C35.8592 213.093 35.9125 212.942 35.9213 212.887C35.9865 212.443 34.4592 211.274 33.8865 210.83C32.5966 209.838 31.4803 208.979 31.7534 207.756C31.9481 206.88 32.7927 206.357 34.3332 206.161C34.8129 206.1 35.2455 206.127 35.6094 206.175C35.5338 205.867 35.53 205.516 35.707 205.162C36.127 204.324 37.2113 204.201 38.9315 204.793C39.3596 204.939 39.9342 205.138 40.5681 205.619C40.8664 205.847 41.1074 206.084 41.3106 206.29C41.4237 206.166 41.5685 206.054 41.7596 205.986C42.3212 205.782 42.9162 206.039 43.5153 206.778C44.1843 207.581 44.636 208.36 45.0351 209.046C45.3842 209.644 45.6861 210.158 46.0076 210.462C46.611 211.016 47.4708 210.975 48.5327 210.864L51.2088 210.557Z" fill="#F2F2F2"/>
<path d="M44.4388 201.938L42.3273 198.883L42.3402 198.53C42.4004 196.9 42.1387 195.533 41.5623 194.463C41.4707 194.293 41.3714 194.128 41.2703 193.96C40.8696 193.295 40.3714 192.469 40.2232 191.203C40.1419 190.497 40.0621 188.785 41.0765 188.296C41.3479 188.161 41.6076 188.159 41.8339 188.211C41.8342 188.159 41.8352 188.106 41.8359 188.048C41.8532 187.347 41.9656 186.974 42.0739 186.614C42.157 186.337 42.2431 186.052 42.307 185.474C42.335 185.22 42.3477 185.006 42.3587 184.825C42.3926 184.279 42.4602 183.608 43.0174 183.23C43.6254 182.85 44.2359 183.187 44.6402 183.41C45.3617 183.808 45.7838 184.163 46.0637 184.398C46.1657 184.484 46.2811 184.581 46.3257 184.605C46.6887 184.789 48.0748 183.413 48.5992 182.898C49.7741 181.737 50.7908 180.732 51.7667 181.341C52.4653 181.777 52.6982 182.835 52.4751 184.571C52.4053 185.112 52.2722 185.579 52.1387 185.965C52.421 185.961 52.7223 186.046 52.9801 186.329C53.5896 187.002 53.4195 188.221 52.4771 189.954C52.2437 190.386 51.9282 190.965 51.3559 191.537C51.0862 191.806 50.8224 192.01 50.5943 192.18C50.6723 192.336 50.7305 192.522 50.7409 192.749C50.7726 193.416 50.4023 194.002 49.6181 194.471C48.7627 195 47.9828 195.297 47.2955 195.56C46.6956 195.791 46.1798 195.991 45.8389 196.266C45.2124 196.786 45.0295 197.738 44.8551 198.929L44.4388 201.938Z" fill="#F2F2F2"/>
<path d="M82.0869 263.58L81.2447 263.573L80.5864 264.159C80.5347 264.093 80.403 263.948 80.1991 263.721C79.0831 262.475 75.6854 258.683 71.0503 252.212C67.8148 247.695 64.7485 242.869 61.9349 237.867C59.1169 232.857 57.2448 228.882 55.7396 225.688C54.6046 223.278 53.5574 220.961 52.5383 218.702C49.8143 212.669 47.2405 206.97 43.6824 201.156C42.8887 199.858 41.2354 197.156 38.1751 195.189C36.4 194.048 34.4146 193.321 32.2744 193.03L32.4756 191.135C34.839 191.459 37.0367 192.265 39.0077 193.532C42.4008 195.713 44.2023 198.657 45.0679 200.071C48.6887 205.988 51.2867 211.742 54.0367 217.833C55.0528 220.083 56.0949 222.392 57.2254 224.791C58.7165 227.956 60.5726 231.896 63.3545 236.842C66.1339 241.784 69.163 246.551 72.3572 251.011C76.9342 257.401 80.2818 261.135 81.3814 262.363C81.9682 263.018 82.0911 263.155 82.0869 263.58Z" fill="#F2F2F2"/>
<path d="M31.0493 197.443C30.9905 197.484 30.9302 197.524 30.8674 197.561C29.6062 198.338 28.0255 198.3 26.1691 197.448C25.2973 197.046 24.6005 196.379 23.2108 195.051C22.9962 194.846 21.923 193.797 20.7261 192.159C19.9437 191.089 19.6953 190.587 19.6648 190.011C19.63 189.37 19.8153 188.777 20.1063 188.262C20.0035 188.119 19.9311 187.949 19.9017 187.744C19.7776 186.897 20.4754 186.532 20.85 186.33C21.0416 186.231 21.2816 186.11 21.5132 185.928C21.8786 185.645 22.0118 185.377 22.2148 184.973C22.4089 184.586 22.6501 184.105 23.123 183.602C24.0525 182.606 25.1326 182.325 25.4885 182.231C27.3572 181.734 28.8643 182.566 30.6091 183.528C30.958 183.722 32.1915 184.454 33.4522 185.757C34.3617 186.696 34.5972 187.232 34.7157 187.67C34.9613 188.568 34.7864 189.302 34.262 191.02C33.7157 192.816 33.4409 193.716 33.135 194.36C32.4213 195.858 31.9732 196.798 31.0493 197.443Z" fill="#F2F2F2"/>
<path d="M96.1884 162.758L107.192 159.862L107.981 162.45L113.304 160.822L116.815 159.748L120.225 152.247L117.806 144.307L110.601 144.231L108.398 144.721L102.253 146.09C101.733 147.064 102.017 148.332 102.884 148.908L103.169 149.097L94.5231 150.792C94.5231 150.792 91.7613 156.356 96.1884 162.758Z" fill="#3F3D56"/>
<path d="M108.398 144.721L113.304 160.822L116.815 159.748L120.225 152.247L117.806 144.307L110.601 144.231L108.398 144.721Z" fill="#2F2E41"/>
<path d="M106.537 145.392C107.294 145.203 107.84 144.701 107.756 144.272C107.673 143.844 106.991 143.65 106.233 143.84C105.476 144.03 104.93 144.531 105.014 144.96C105.097 145.389 105.779 145.582 106.537 145.392Z" fill="#3F3D56"/>
<path d="M279.235 265.316L273.955 252.681L273.923 252.707V236.284H269.174V252.707L269.142 252.681L263.862 265.675C263.705 265.986 263.801 266.382 264.076 266.559C264.309 266.71 264.603 266.657 264.783 266.432L270.184 259.277L271.058 265.792C271.093 266.148 271.376 266.405 271.691 266.365C271.957 266.332 272.168 266.094 272.197 265.792L273.062 259.349L278.314 266.074C278.527 266.339 278.889 266.358 279.123 266.117C279.321 265.913 279.368 265.58 279.235 265.316Z" fill="#2F2E41"/>
<path d="M241.515 217.862C240.674 224.161 252.843 235.234 270.782 238.304C288.721 241.374 306.223 236.94 307.064 230.64C307.904 224.341 293.958 217.908 276.019 214.838C258.08 211.768 242.356 211.563 241.515 217.862Z" fill="#418F99"/>
<path opacity="0.3" d="M241.515 217.862C240.674 224.161 252.843 235.234 270.782 238.304C288.721 241.374 306.223 236.94 307.064 230.64C307.904 224.341 293.958 217.908 276.019 214.838C258.08 211.768 242.356 211.563 241.515 217.862Z" fill="black"/>
<path d="M242.222 216.94C241.53 222.128 253.404 231.032 271.343 234.102C289.282 237.172 306.554 234.978 307.247 229.79C307.939 224.603 293.958 217.908 276.019 214.838C258.08 211.768 242.915 211.752 242.222 216.94Z" fill="#418F99"/>
<path d="M282.845 139.818H215.82C213.122 139.818 210.927 137.333 210.927 134.278V76.8954C210.927 73.8407 213.122 71.3552 215.82 71.3552H282.845C285.543 71.3552 287.738 73.8407 287.738 76.8954V134.278C287.738 137.333 285.543 139.818 282.845 139.818Z" fill="white"/>
<path d="M282.845 139.818H215.82C213.122 139.818 210.927 137.333 210.927 134.278V76.8954C210.927 73.8407 213.122 71.3552 215.82 71.3552H282.845C285.543 71.3552 287.738 73.8407 287.738 76.8954V134.278C287.738 137.333 285.543 139.818 282.845 139.818ZM215.82 72.2804C213.572 72.2804 211.744 74.3507 211.744 76.8954V134.278C211.744 136.823 213.572 138.893 215.82 138.893H282.845C285.093 138.893 286.921 136.823 286.921 134.278V76.8954C286.921 74.3507 285.093 72.2804 282.845 72.2804H215.82Z" fill="#3F3D56"/>
<path d="M275.481 78.294C276.158 78.294 276.707 77.6727 276.707 76.9062C276.707 76.1398 276.158 75.5185 275.481 75.5185C274.804 75.5185 274.255 76.1398 274.255 76.9062C274.255 77.6727 274.804 78.294 275.481 78.294Z" fill="#3F3D56"/>
<path d="M278.75 78.294C279.427 78.294 279.975 77.6727 279.975 76.9062C279.975 76.1398 279.427 75.5185 278.75 75.5185C278.073 75.5185 277.524 76.1398 277.524 76.9062C277.524 77.6727 278.073 78.294 278.75 78.294Z" fill="#3F3D56"/>
<path d="M282.018 78.294C282.695 78.294 283.244 77.6727 283.244 76.9062C283.244 76.1398 282.695 75.5185 282.018 75.5185C281.341 75.5185 280.792 76.1398 280.792 76.9062C280.792 77.6727 281.341 78.294 282.018 78.294Z" fill="#3F3D56"/>
<path d="M217.872 99.3418C217.534 99.3418 217.26 99.653 217.26 100.036C217.26 100.222 217.323 100.395 217.439 100.522C217.555 100.657 217.708 100.73 217.872 100.73H281.201C281.539 100.73 281.814 100.418 281.814 100.036C281.814 99.8491 281.75 99.6765 281.635 99.5491C281.518 99.414 281.366 99.3418 281.201 99.3418H217.872Z" fill="#E6E6E6"/>
<path d="M269.761 99.1105V100.961H217.873C217.648 100.961 217.444 100.859 217.296 100.688C217.145 100.521 217.055 100.29 217.055 100.036C217.055 99.5268 217.423 99.1105 217.873 99.1105H269.761Z" fill="#418F99"/>
<path d="M280.18 95.6411H272.008C271.107 95.6411 270.374 94.8112 270.374 93.7907C270.374 92.7702 271.107 91.9404 272.008 91.9404H280.18C281.081 91.9404 281.814 92.7702 281.814 93.7907C281.814 94.8112 281.081 95.6411 280.18 95.6411Z" fill="#E6E6E6"/>
<path d="M226.657 85.9267H218.485C217.584 85.9267 216.851 85.0968 216.851 84.0763C216.851 83.0559 217.584 82.226 218.485 82.226H226.657C227.558 82.226 228.291 83.0559 228.291 84.0763C228.291 85.0968 227.558 85.9267 226.657 85.9267Z" fill="#E6E6E6"/>
<path d="M217.872 120.158C217.534 120.158 217.26 120.469 217.26 120.852C217.26 121.039 217.323 121.211 217.439 121.339C217.555 121.474 217.708 121.546 217.872 121.546H281.201C281.539 121.546 281.814 121.235 281.814 120.852C281.814 120.666 281.75 120.493 281.635 120.366C281.518 120.23 281.366 120.158 281.201 120.158H217.872Z" fill="#E6E6E6"/>
<path d="M238.301 119.927V121.777H217.873C217.648 121.777 217.444 121.675 217.296 121.504C217.145 121.338 217.055 121.107 217.055 120.852C217.055 120.343 217.423 119.927 217.873 119.927H238.301Z" fill="#418F99"/>
<path d="M280.18 116.458H272.008C271.107 116.458 270.374 115.628 270.374 114.607C270.374 113.587 271.107 112.757 272.008 112.757H280.18C281.081 112.757 281.814 113.587 281.814 114.607C281.814 115.628 281.081 116.458 280.18 116.458Z" fill="#E6E6E6"/>
</g>
<defs>
<clipPath id="clip0_181_3004">
<rect width="363" height="274" fill="white"/>
</clipPath>
</defs>
</svg>
