<svg width="218" height="187" viewBox="0 0 218 187" fill="none" xmlns="http://www.w3.org/2000/svg">
<g clip-path="url(#clip0_193_1953)">
<path d="M67.3191 137.179H40.012C39.3236 137.179 38.7634 136.687 38.7634 136.082C38.7634 135.477 39.3236 134.985 40.012 134.985H67.3191C68.0076 134.985 68.5675 135.477 68.5675 136.082C68.5675 136.687 68.0076 137.179 67.3191 137.179Z" fill="#418F99"/>
<path d="M18.55 143.05C18.55 143.247 18.7302 143.405 18.9545 143.405H88.3767C88.6009 143.405 88.781 143.247 88.781 143.05C88.781 142.853 88.6009 142.695 88.3767 142.695H18.9545C18.7302 142.695 18.55 142.853 18.55 143.05Z" fill="#3F3D56"/>
<path d="M165.02 71.4702C177.219 71.4702 187.108 62.7824 187.108 52.0654C187.108 41.3485 177.219 32.6606 165.02 32.6606C152.821 32.6606 142.931 41.3485 142.931 52.0654C142.931 62.7824 152.821 71.4702 165.02 71.4702Z" fill="#FF6884"/>
<path d="M0 167.57C0 167.767 0.180116 167.926 0.404408 167.926H177.89C178.114 167.926 178.294 167.767 178.294 167.57C178.294 167.373 178.114 167.215 177.89 167.215H0.404408C0.180116 167.215 0 167.373 0 167.57Z" fill="#3F3D56"/>
<path d="M2.56727 143.58L1.99951 143.033L57.4121 98.6123L77.3763 106.475L98.9346 73.9957L116.647 66.4954L133.058 90.5237C141.918 70.373 164.138 49.2906 190.763 27.9011L191.418 28.367C166.446 49.3703 145.08 70.4689 132.955 91.8119L117.775 69.5211C117.058 68.4681 115.551 68.0613 114.285 68.579C104.603 72.5366 96.5277 78.9965 91.1381 87.095L77.6338 107.387L74.5511 106.173C64.2416 102.113 52.1725 103.814 43.8268 110.505L2.56727 143.58Z" fill="#3F3D56"/>
<path d="M192.012 31.9452L191.171 31.9965L189.813 29.4119L186.774 28.8695L186.656 28.136L191.666 27.5105L192.012 31.9452Z" fill="#3F3D56"/>
<path d="M105.577 47.7596L108.556 37.6998L120.16 37.2095L123.632 51.0766L105.577 47.7596Z" fill="#FFB6B6"/>
<path opacity="0.1" d="M105.577 47.7596L108.556 37.6998L120.16 37.2095L123.632 51.0766L105.577 47.7596Z" fill="black"/>
<path d="M113.213 43.3297C120.948 43.3297 127.219 37.8208 127.219 31.0252C127.219 24.2296 120.948 18.7207 113.213 18.7207C105.478 18.7207 99.2068 24.2296 99.2068 31.0252C99.2068 37.8208 105.478 43.3297 113.213 43.3297Z" fill="#FFB6B6"/>
<path d="M120.941 33.6296C120.941 33.6296 115.62 24.3683 109.386 24.903C103.152 25.4377 99.8674 26.088 99.8674 26.088C99.8674 26.088 98.0168 18.8748 106.729 16.1003C106.729 16.1003 95.6517 6.50718 108.84 1.80134C122.029 -2.9045 129.409 3.0972 129.409 3.0972C129.409 3.0972 139.172 11.659 126.876 18.0582C126.876 18.0582 136.006 28.8469 124.952 37.7392C124.952 37.7392 127.425 30.5434 124.845 31.8704C122.265 33.1975 120.941 33.6296 120.941 33.6296Z" fill="#2F2E41"/>
<path d="M97.7594 98.6396L95.8963 100.208L82.4369 125.561L80.9636 167.497H103.577L114.185 146.73L121.332 167.297H141.665L146.379 129.962L133.708 103.558L97.7594 98.6396Z" fill="#2F2E41"/>
<path d="M121.185 46.7375H106.083L89.6562 54.5034L93.4869 69.5175C93.4869 69.5175 92.6029 78.5777 94.6655 85.3082C96.7282 92.0386 95.8442 100.84 95.8442 100.84L133.708 103.558L134.887 73.0122L134.298 52.562L121.185 46.7375Z" fill="#E6E6E6"/>
<path d="M92.1607 54.6328C92.1607 54.6328 83.0262 54.8917 81.5528 60.0689C80.0795 65.2462 78.9009 91.9091 78.9009 91.9091C78.9009 91.9091 79.7849 107.73 89.6561 100.208C99.5273 92.6857 98.6433 69.9057 98.6433 69.9057L92.1607 54.6328Z" fill="#E6E6E6"/>
<path d="M180.76 186.701H126.93C125.107 186.701 123.623 185.399 123.623 183.797V134.909C123.623 133.308 125.107 132.005 126.93 132.005H180.76C182.584 132.005 184.067 133.308 184.067 134.909V183.797C184.067 185.399 182.584 186.701 180.76 186.701Z" fill="white"/>
<path d="M180.76 187H126.93C124.919 187 123.283 185.563 123.283 183.797V134.909C123.283 133.143 124.919 131.706 126.93 131.706H180.76C182.771 131.706 184.407 133.143 184.407 134.909V183.797C184.407 185.563 182.771 187 180.76 187ZM126.93 132.303C125.294 132.303 123.963 133.472 123.963 134.909V183.797C123.963 185.234 125.294 186.403 126.93 186.403H180.76C182.396 186.403 183.727 185.234 183.727 183.797V134.909C183.727 133.472 182.396 132.303 180.76 132.303H126.93Z" fill="#3F3D56"/>
<path d="M155.969 173.858H151.533C150.992 173.858 150.553 173.56 150.553 173.194V156.413C150.553 156.047 150.992 155.749 151.533 155.749H155.969C156.51 155.749 156.949 156.047 156.949 156.413V173.194C156.949 173.56 156.51 173.858 155.969 173.858Z" fill="#418F99"/>
<path d="M141.301 163.969C140.865 163.969 140.51 164.21 140.51 164.506V173.175C140.51 173.471 140.865 173.712 141.301 173.712H145.738C146.174 173.712 146.529 173.471 146.529 173.175V164.506C146.529 164.21 146.174 163.969 145.738 163.969H141.301Z" fill="#418F99"/>
<path d="M166.201 173.858H161.764C161.224 173.858 160.784 173.56 160.784 173.194V145.693C160.784 145.326 161.224 145.028 161.764 145.028H166.201C166.741 145.028 167.18 145.326 167.18 145.693V173.194C167.18 173.56 166.741 173.858 166.201 173.858Z" fill="#418F99"/>
<path d="M70.7254 53.31H65.6573C65.0403 53.31 64.5383 52.9696 64.5383 52.5512V33.3824C64.5383 32.9639 65.0403 32.6235 65.6573 32.6235H70.7254C71.3425 32.6235 71.8444 32.9639 71.8444 33.3824V52.5512C71.8444 52.9696 71.3425 53.31 70.7254 53.31Z" fill="#418F99"/>
<path d="M53.9701 42.0137C53.4716 42.0137 53.0659 42.2887 53.0659 42.6268V52.5298C53.0659 52.8678 53.4716 53.1429 53.9701 53.1429H59.0381C59.5366 53.1429 59.9422 52.8678 59.9422 52.5298V42.6268C59.9422 42.2887 59.5366 42.0137 59.0381 42.0137H53.9701Z" fill="#418F99"/>
<path d="M82.4127 53.3101H77.3446C76.7275 53.3101 76.2256 52.9697 76.2256 52.5513V21.137C76.2256 20.7186 76.7275 20.3782 77.3446 20.3782H82.4127C83.0297 20.3782 83.5317 20.7186 83.5317 21.137V52.5513C83.5317 52.9697 83.0297 53.3101 82.4127 53.3101Z" fill="#418F99"/>
<path d="M145.592 139.118C148.217 138.897 150.025 135.781 149.63 132.156C149.495 130.706 148.967 129.305 148.089 128.072L147.583 123.969L147.661 123.949L148.932 104.497C149.228 99.974 147.19 95.5298 143.264 92.5929C140.928 90.8458 138.436 89.9612 136.834 92.1687C134.175 95.8315 137.619 110.931 139.881 119.515L140.757 128.688C140.162 130.046 139.945 131.51 140.125 132.956C140.52 136.58 142.967 139.338 145.592 139.118Z" fill="#FFB6B6"/>
<path d="M131.056 53.0797C131.056 53.0797 138.718 50.4911 142.254 58.257C145.79 66.0229 149.62 104.335 149.62 104.335L131.646 101.487L131.056 53.0797Z" fill="#E6E6E6"/>
<path d="M25.8576 49.281H15.5416C14.8531 49.281 14.293 48.7889 14.293 48.1841C14.293 47.5793 14.8531 47.0874 15.5416 47.0874H25.8576C26.546 47.0874 27.1059 47.5793 27.1059 48.1841C27.1059 48.7889 26.546 49.281 25.8576 49.281Z" fill="#E6E6E6"/>
<path d="M25.8576 33.7336H15.5416C14.8531 33.7336 14.293 33.2415 14.293 32.6367C14.293 32.0319 14.8531 31.54 15.5416 31.54H25.8576C26.546 31.54 27.1059 32.0319 27.1059 32.6367C27.1059 33.2415 26.546 33.7336 25.8576 33.7336Z" fill="#E6E6E6"/>
<path d="M25.8576 22.5215H15.5416C14.8531 22.5215 14.293 22.0293 14.293 21.4246C14.293 20.8198 14.8531 20.3279 15.5416 20.3279H25.8576C26.546 20.3279 27.1059 20.8198 27.1059 21.4246C27.1059 22.0294 26.546 22.5215 25.8576 22.5215Z" fill="#E6E6E6"/>
<path d="M13.8792 53.3643C13.8792 53.5613 14.0593 53.7195 14.2836 53.7195H83.7057C83.93 53.7195 84.1101 53.5613 84.1101 53.3643C84.1101 53.1673 83.93 53.009 83.7057 53.009H14.2836C14.0593 53.009 13.8792 53.1673 13.8792 53.3643Z" fill="#3F3D56"/>
<path d="M147.769 145.313C147.769 145.51 147.949 145.669 148.173 145.669H217.596C217.82 145.669 218 145.51 218 145.313C218 145.116 217.82 144.958 217.596 144.958H148.173C147.949 144.958 147.769 145.116 147.769 145.313Z" fill="#3F3D56"/>
<path d="M127.38 174.271C127.38 174.468 127.56 174.626 127.784 174.626H197.206C197.431 174.626 197.611 174.468 197.611 174.271C197.611 174.074 197.431 173.916 197.206 173.916H127.784C127.56 173.916 127.38 174.074 127.38 174.271Z" fill="#3F3D56"/>
<path d="M80.6966 51.5683C78.0716 51.7891 76.2639 54.9053 76.6589 58.5302C76.7941 59.9801 77.3225 61.3804 78.2 62.6141L78.7059 66.7166L78.6284 66.737L77.3567 86.189C77.061 90.7118 79.099 95.1561 83.0254 98.093C85.3611 99.8401 87.8528 100.725 89.4551 98.5172C92.1138 94.8543 88.67 79.7552 86.4085 71.1709L85.5317 61.9976C86.1273 60.6397 86.344 59.1762 86.1636 57.7297C85.7694 54.106 83.3215 51.3475 80.6966 51.5683Z" fill="#FFB6B6"/>
</g>
<defs>
<clipPath id="clip0_193_1953">
<rect width="218" height="187" fill="white"/>
</clipPath>
</defs>
</svg>
