<?xml version="1.0" encoding="UTF-8" standalone="no"?>
<!-- Created with Inkscape (http://www.inkscape.org/) -->

<svg
   width="139.51587mm"
   height="154.98195mm"
   viewBox="0 0 139.51588 154.98195"
   version="1.1"
   id="svg1"
   xml:space="preserve"
   inkscape:export-filename="FichierMerliwebLogo.png"
   inkscape:export-xdpi="96"
   inkscape:export-ydpi="96"
   inkscape:version="1.4 (86a8ad7, 2024-10-11)"
   sodipodi:docname="FichierMerliwebLogo.svg"
   xmlns:inkscape="http://www.inkscape.org/namespaces/inkscape"
   xmlns:sodipodi="http://sodipodi.sourceforge.net/DTD/sodipodi-0.dtd"
   xmlns="http://www.w3.org/2000/svg"
   xmlns:svg="http://www.w3.org/2000/svg"><sodipodi:namedview
     id="namedview1"
     pagecolor="#505050"
     bordercolor="#eeeeee"
     borderopacity="1"
     inkscape:showpageshadow="0"
     inkscape:pageopacity="0"
     inkscape:pagecheckerboard="0"
     inkscape:deskcolor="#505050"
     inkscape:document-units="mm"
     inkscape:zoom="1.4614334"
     inkscape:cx="-30.449558"
     inkscape:cy="327.76041"
     inkscape:window-width="3440"
     inkscape:window-height="1369"
     inkscape:window-x="1072"
     inkscape:window-y="1072"
     inkscape:window-maximized="1"
     inkscape:current-layer="layer1"
     showguides="true"><inkscape:page
       x="0"
       y="0"
       width="139.51588"
       height="154.98195"
       id="page2"
       margin="0"
       bleed="0" /></sodipodi:namedview><defs
     id="defs1" /><g
     inkscape:label="Calque 1"
     inkscape:groupmode="layer"
     id="layer1"
     transform="translate(-35.830572,-48.010833)"><path
       d="m 115.02619,76.468822 c -3.39835,-0.122424 -10.02699,0.370602 -16.751949,1.592667 -7.39468,1.34376 -13.628691,3.229038 -21.841561,6.604248 -17.30269,7.11081 -31.739352,21.980893 -37.388932,38.511343 -7.41773,21.70403 0.659598,50.97683 17.539498,63.56356 7.39116,5.51132 12.555862,6.29944 8.901782,1.35858 -6.98971,-9.45113 -12.983704,-24.71329 -12.983704,-33.05948 0,-5.12463 0.468682,-4.96023 2.780192,0.9772 7.47415,19.19833 24.835304,35.98376 44.610714,43.13122 0.63815,0.23064 3.1842,1.13622 5.65805,2.01228 7.07095,2.50402 8.66298,2.18503 3.33623,-0.66818 -16.322768,-8.74311 -26.061639,-17.05319 -33.844959,-28.88041 -4.3864,-6.6654 -8.513366,-16.98359 -4.507736,-11.27011 8.9136,12.71401 17.056865,18.56666 33.296675,23.93032 13.67419,4.51629 30.9782,4.94708 47.22813,1.17564 4.92238,-1.14244 8.39538,-2.25796 8.55141,-2.7466 0.13084,-0.40974 -0.21084,-0.38869 -5.641,0.34726 -14.97104,2.02905 -30.57904,-0.56808 -41.275,-6.8678 -2.34209,-1.37945 -4.8367,-3.53412 -3.70416,-3.19928 16.56881,4.8986 33.99895,4.56325 33.99895,-0.65423 0,-1.52909 -2.32258,-2.11889 -10.25828,-2.60501 -18.21481,-1.1158 -30.93271,-6.94966 -41.265702,-18.92907 -16.30899,-18.90758 -14.580817,-37.84629 4.428153,-48.53037 4.803669,-2.699932 2.604508,-3.262515 -3.307292,-0.84595 -10.16414,4.1548 -16.583399,11.22177 -22.257039,24.5029 -2.70577,6.33382 -3.827796,6.85306 -3.435966,1.59008 1.07004,-14.37223 10.299918,-25.19338 30.011088,-35.185445 4.429148,-2.24524 4.617318,-2.710521 0.907438,-2.245341 -8.96561,1.12419 -21.516004,7.667387 -27.999324,14.598076 -2.61708,2.79767 -7.305605,10.01977 -10.571965,16.28428 -3.71266,7.12049 -4.943081,2.59507 -1.311031,-4.82193 6.59465,-13.46695 21.164507,-26.724623 35.190617,-32.021303 6.937883,-2.61995 12.151553,-4.120475 19.276343,-5.547465 6.19661,-1.2411 6.02868,-1.979257 2.63033,-2.10168 z"
       id="path5"
       style="fill:#418f99;fill-opacity:1" /><path
       id="path6"
       d="m 122.99609,48.025391 c -0.93149,-0.136815 -2.13896,0.769835 -1.58984,1.765625 0.77808,1.920833 2.34185,3.247063 3.63911,4.809289 4.88349,5.390538 10.03047,10.547983 14.62456,16.194617 -8.18465,-1.729794 -16.27153,-3.872564 -24.64844,-4.431641 -15.733284,-1.27376 -31.959951,1.46448 -45.849291,9.20384 -12.165306,6.753601 -22.253364,17.212134 -28.643469,29.539859 -1.793191,3.46513 -3.460763,7.06921 -4.657626,10.81685 -0.149751,0.57448 0.108355,1.6208 0.894531,1.33789 1.035563,-0.5223 1.266065,-1.81698 1.866783,-2.72298 5.469906,-10.33577 12.852185,-19.782925 22.204823,-26.88042 8.573683,-6.587349 18.702197,-11.067998 29.287902,-13.203563 13.721907,-2.816827 27.989397,-1.898978 41.585417,1.177959 1.67747,0.371222 3.34625,0.779318 5.01797,1.175878 -5.40186,2.068599 -10.96328,4.033245 -15.98633,6.853515 -1.59204,0.952649 -3.26403,1.947604 -4.39055,3.453381 -0.60147,0.851239 -0.38224,2.227802 0.70305,2.556385 1.40265,0.457668 2.8349,-0.140288 4.12119,-0.48195 5.8757,-1.821621 11.44807,-4.473657 17.24827,-6.505102 3.76292,-1.399105 7.61951,-2.568104 11.30167,-4.173585 1.23934,-0.581869 2.78022,-1.593027 2.54176,-3.177254 -0.33622,-1.880249 -1.84199,-3.224433 -2.9361,-4.695499 -4.84925,-5.879297 -10.01335,-11.529075 -15.72573,-16.584185 -2.38965,-2.036528 -4.85897,-4.067039 -7.70739,-5.428366 -0.90847,-0.397163 -1.9014,-0.684198 -2.90227,-0.600543 z"
       style="fill:#418f99;fill-opacity:1" /></g></svg>
