<svg width="376" height="314" viewBox="0 0 376 314" fill="none" xmlns="http://www.w3.org/2000/svg">
<g clip-path="url(#clip0_175_977)">
<path d="M15.3789 204.072C15.6922 216.037 17.6522 227.898 21.2014 239.304C21.2825 239.569 21.3675 239.829 21.4526 240.094H43.1815C43.1583 239.857 43.1351 239.592 43.1119 239.304C41.6631 222.273 33.31 118.617 43.2974 100.891C42.4242 102.329 13.6944 149.957 15.3789 204.072Z" fill="#F0F0F0"/>
<path d="M17.0094 239.304C17.191 239.569 17.3803 239.833 17.5735 240.094H33.874C33.7504 239.869 33.6074 239.604 33.4413 239.304C30.7484 234.334 22.7778 219.476 15.379 204.072C7.4277 187.519 0.13319 170.338 0.747532 164.12C0.558147 165.522 -4.94366 208.276 17.0094 239.304Z" fill="#F0F0F0"/>
<path d="M332.703 33.5909C342.69 51.3173 334.337 154.973 332.888 172.004C332.865 172.292 332.842 172.557 332.819 172.794H354.547C354.633 172.53 354.718 172.269 354.799 172.004C358.348 160.598 360.308 148.738 360.621 136.773C362.306 82.6573 333.576 35.0289 332.703 33.5909Z" fill="#F0F0F0"/>
<path d="M375.252 96.8202C375.867 103.038 368.572 120.22 360.621 136.773C353.222 152.176 345.251 167.034 342.559 172.004C342.392 172.304 342.25 172.569 342.126 172.794H358.426C358.62 172.534 358.809 172.269 358.99 172.004C380.944 140.976 375.442 98.2227 375.252 96.8202Z" fill="#F0F0F0"/>
<path d="M2.91183 19.4802H367.464C367.604 19.4802 367.739 19.423 367.838 19.3212C367.937 19.2194 367.993 19.0813 367.993 18.9374C367.993 18.7934 367.937 18.6554 367.838 18.5536C367.739 18.4518 367.604 18.3946 367.464 18.3946H2.91183C2.77151 18.3946 2.63693 18.4518 2.53772 18.5536C2.43848 18.6554 2.38272 18.7934 2.38272 18.9374C2.38272 19.0813 2.43848 19.2194 2.53772 19.3212C2.63693 19.423 2.77151 19.4802 2.91183 19.4802Z" fill="#CACACA"/>
<path d="M355.555 11.9024C352.34 11.9024 349.735 9.23794 349.735 5.95119C349.735 2.66444 352.34 0 355.555 0C358.769 0 361.375 2.66444 361.375 5.95119C361.375 9.23794 358.769 11.9024 355.555 11.9024Z" fill="#3F3D56"/>
<path d="M335.449 11.9024C332.235 11.9024 329.629 9.23794 329.629 5.95119C329.629 2.66444 332.235 0 335.449 0C338.663 0 341.269 2.66444 341.269 5.95119C341.269 9.23794 338.663 11.9024 335.449 11.9024Z" fill="#3F3D56"/>
<path d="M315.343 11.9024C312.129 11.9024 309.523 9.23794 309.523 5.95119C309.523 2.66444 312.129 0 315.343 0C318.558 0 321.164 2.66444 321.164 5.95119C321.164 9.23794 318.558 11.9024 315.343 11.9024Z" fill="#3F3D56"/>
<path d="M14.9582 3.64059H29.244C29.3832 3.64092 29.5211 3.61317 29.6497 3.55893C29.7784 3.50469 29.8954 3.42503 29.9939 3.3245C30.0924 3.22397 30.1706 3.10455 30.2239 2.97308C30.2773 2.84161 30.3047 2.70067 30.3047 2.55833C30.3047 2.416 30.2773 2.27505 30.2239 2.14358C30.1706 2.01211 30.0924 1.89269 29.9939 1.79216C29.8954 1.69163 29.7784 1.61196 29.6497 1.55772C29.5211 1.50348 29.3832 1.47574 29.244 1.47608H14.9582C14.819 1.47574 14.6812 1.50348 14.5525 1.55772C14.4238 1.61196 14.3069 1.69163 14.2084 1.79216C14.1098 1.89269 14.0317 2.01211 13.9783 2.14358C13.925 2.27505 13.8975 2.416 13.8975 2.55833C13.8975 2.70067 13.925 2.84161 13.9783 2.97308C14.0317 3.10455 14.1098 3.22397 14.2084 3.3245C14.3069 3.42503 14.4238 3.50469 14.5525 3.55893C14.6812 3.61317 14.819 3.64092 14.9582 3.64059Z" fill="#3F3D56"/>
<path d="M14.9582 7.69825H29.244C29.3832 7.69858 29.5211 7.67083 29.6497 7.61659C29.7784 7.56235 29.8954 7.48268 29.9939 7.38215C30.0924 7.28162 30.1706 7.1622 30.2239 7.03073C30.2773 6.89926 30.3047 6.75833 30.3047 6.61599C30.3047 6.47365 30.2773 6.33271 30.2239 6.20124C30.1706 6.06977 30.0924 5.95035 29.9939 5.84982C29.8954 5.74929 29.7784 5.66962 29.6497 5.61538C29.5211 5.56114 29.3832 5.53339 29.244 5.53372H14.9582C14.819 5.53339 14.6812 5.56114 14.5525 5.61538C14.4238 5.66962 14.3069 5.74929 14.2084 5.84982C14.1098 5.95035 14.0317 6.06977 13.9783 6.20124C13.925 6.33271 13.8975 6.47365 13.8975 6.61599C13.8975 6.75833 13.925 6.89926 13.9783 7.03073C14.0317 7.1622 14.1098 7.28162 14.2084 7.38215C14.3069 7.48268 14.4238 7.56235 14.5525 7.61659C14.6812 7.67083 14.819 7.69858 14.9582 7.69825Z" fill="#3F3D56"/>
<path d="M14.9582 11.7559H29.244C29.3832 11.7562 29.5211 11.7284 29.6497 11.6742C29.7784 11.62 29.8954 11.5403 29.9939 11.4398C30.0924 11.3392 30.1706 11.2198 30.2239 11.0884C30.2773 10.9569 30.3047 10.8159 30.3047 10.6736C30.3047 10.5313 30.2773 10.3903 30.2239 10.2588C30.1706 10.1274 30.0924 10.008 29.9939 9.90743C29.8954 9.8069 29.7784 9.72724 29.6497 9.673C29.5211 9.61876 29.3832 9.59101 29.244 9.59134H14.9582C14.819 9.59101 14.6812 9.61876 14.5525 9.673C14.4238 9.72724 14.3069 9.8069 14.2084 9.90743C14.1098 10.008 14.0317 10.1274 13.9783 10.2588C13.925 10.3903 13.8975 10.5313 13.8975 10.6736C13.8975 10.8159 13.925 10.9569 13.9783 11.0884C14.0317 11.2198 14.1098 11.3392 14.2084 11.4398C14.3069 11.5403 14.4238 11.62 14.5525 11.6742C14.6812 11.7284 14.819 11.7562 14.9582 11.7559Z" fill="#3F3D56"/>
<path d="M21.5581 239.622H158.967C160.038 239.621 161.066 239.185 161.823 238.41C162.581 237.636 163.007 236.585 163.008 235.49V52.4818C163.007 51.3862 162.581 50.3358 161.823 49.5611C161.066 48.7864 160.038 48.3506 158.967 48.3493H21.5581C20.4866 48.3506 19.4594 48.7863 18.7017 49.5611C17.9441 50.3358 17.5179 51.3862 17.5167 52.4818V235.49C17.5179 236.585 17.9441 237.636 18.7017 238.41C19.4594 239.185 20.4866 239.621 21.5581 239.622ZM158.967 49.53C159.732 49.531 160.466 49.8422 161.007 50.3956C161.548 50.949 161.853 51.6992 161.854 52.4818V235.49C161.853 236.272 161.548 237.022 161.007 237.576C160.466 238.129 159.732 238.44 158.967 238.441H21.5581C20.7928 238.44 20.0591 238.129 19.5179 237.576C18.9767 237.022 18.6723 236.272 18.6714 235.49V52.4818C18.6723 51.6992 18.9767 50.949 19.5179 50.3956C20.0591 49.8422 20.7928 49.531 21.5581 49.53H158.967Z" fill="#E6E6E6"/>
<path d="M63.5815 128.518H121.894C122.965 128.517 123.992 128.081 124.75 127.306C125.508 126.532 125.934 125.481 125.935 124.386V77.7482C125.934 76.6526 125.508 75.6022 124.75 74.8275C123.992 74.0528 122.965 73.617 121.894 73.6158H63.5815C62.51 73.617 61.4828 74.0528 60.7251 74.8275C59.9674 75.6022 59.5413 76.6526 59.5401 77.7482V124.386C59.5413 125.481 59.9675 126.532 60.7251 127.306C61.4828 128.081 62.51 128.517 63.5815 128.518Z" fill="#E6E6E6"/>
<path d="M63.7041 206.563H122.016C123.088 206.561 124.115 206.126 124.873 205.351C125.63 204.576 126.056 203.526 126.058 202.43V155.793C126.056 154.697 125.63 153.647 124.873 152.872C124.115 152.097 123.088 151.662 122.016 151.66H63.7041C62.6326 151.662 61.6054 152.097 60.8477 152.872C60.0901 153.647 59.6639 154.697 59.6626 155.793V202.43C59.6639 203.526 60.0901 204.576 60.8477 205.351C61.6054 206.126 62.6326 206.561 63.7041 206.563ZM122.016 152.841C122.782 152.842 123.515 153.153 124.056 153.707C124.598 154.26 124.902 155.01 124.903 155.793V202.43C124.902 203.213 124.598 203.963 124.056 204.516C123.515 205.07 122.782 205.381 122.016 205.382H63.7041C62.9387 205.381 62.205 205.07 61.6638 204.516C61.1227 203.963 60.8182 203.213 60.8173 202.43V155.793C60.8182 155.01 61.1227 154.26 61.6638 153.707C62.205 153.153 62.9387 152.842 63.7041 152.841H122.016Z" fill="#3F3D56"/>
<path d="M47.5385 219.55H105.851C106.922 219.549 107.949 219.113 108.707 218.339C109.465 217.564 109.891 216.513 109.892 215.418V168.78C109.891 167.685 109.465 166.634 108.707 165.86C107.949 165.085 106.922 164.649 105.851 164.648H47.5385C46.4671 164.649 45.4398 165.085 44.6822 165.86C43.9246 166.634 43.4983 167.685 43.4971 168.78V215.418C43.4983 216.513 43.9246 217.564 44.6822 218.339C45.4398 219.113 46.4671 219.549 47.5385 219.55Z" fill="#418F99"/>
<path d="M70.1528 205.895H99.4272C99.4639 205.895 99.5005 205.892 99.5366 205.886L85.6911 181.364C85.6066 181.211 85.484 181.084 85.3357 180.996C85.1875 180.907 85.019 180.861 84.8474 180.861C84.6758 180.861 84.5072 180.907 84.359 180.996C84.2108 181.084 84.0881 181.211 84.0036 181.364L74.7117 197.82L74.2665 198.608L70.1528 205.895Z" fill="white"/>
<path opacity="0.2" d="M70.153 205.895H80.1475L75.2412 198.608L74.8878 198.083L74.7117 197.82L74.2666 198.608L70.153 205.895Z" fill="black"/>
<path d="M53.8529 205.895H79.1729L74.2663 198.608L73.9132 198.083L67.5196 188.586C67.4065 188.441 67.2649 188.322 67.1039 188.236C66.9429 188.151 66.7661 188.101 66.585 188.09C66.4039 188.079 66.2225 188.107 66.0527 188.172C65.8829 188.237 65.7284 188.338 65.5992 188.468C65.5661 188.506 65.5354 188.545 65.5071 188.586L53.8529 205.895Z" fill="white"/>
<path d="M55.0383 181.268C52.6431 181.268 50.7015 179.283 50.7015 176.834C50.7015 174.385 52.6431 172.4 55.0383 172.4C57.4334 172.4 59.375 174.385 59.375 176.834C59.375 179.283 57.4334 181.268 55.0383 181.268Z" fill="white"/>
<path d="M218.645 239.569H356.054C357.125 239.567 358.152 239.132 358.91 238.357C359.668 237.582 360.094 236.532 360.095 235.436V188.799C360.094 187.703 359.668 186.653 358.91 185.878C358.152 185.103 357.125 184.668 356.054 184.666H218.645C217.574 184.668 216.546 185.103 215.789 185.878C215.031 186.653 214.605 187.703 214.604 188.799V235.436C214.605 236.532 215.031 237.582 215.789 238.357C216.546 239.132 217.574 239.567 218.645 239.569Z" fill="#E6E6E6"/>
<path d="M219.222 172.859H356.631C357.702 172.858 358.73 172.422 359.487 171.648C360.245 170.873 360.671 169.822 360.672 168.727V54.7897C360.671 53.6941 360.245 52.6437 359.487 51.869C358.73 51.0943 357.702 50.6585 356.631 50.6573H219.222C218.151 50.6585 217.123 51.0943 216.366 51.869C215.608 52.6437 215.182 53.6941 215.181 54.7897V168.727C215.182 169.822 215.608 170.873 216.366 171.647C217.124 172.422 218.151 172.858 219.222 172.859ZM356.631 51.838C357.396 51.8389 358.13 52.1502 358.671 52.7035C359.212 53.2569 359.517 54.0071 359.518 54.7897V168.727C359.517 169.509 359.212 170.26 358.671 170.813C358.13 171.366 357.396 171.678 356.631 171.679H219.222C218.457 171.678 217.723 171.366 217.182 170.813C216.641 170.26 216.336 169.509 216.335 168.727V54.7897C216.336 54.0071 216.641 53.2569 217.182 52.7035C217.723 52.1502 218.457 51.8389 219.222 51.838H356.631Z" fill="#3F3D56"/>
<path d="M196.706 193.522H334.114C335.186 193.52 336.213 193.084 336.971 192.31C337.728 191.535 338.154 190.485 338.156 189.389V75.4519C338.155 74.3563 337.728 73.3059 336.971 72.5312C336.213 71.7565 335.186 71.3207 334.114 71.3195H196.706C195.634 71.3207 194.607 71.7565 193.849 72.5312C193.092 73.3059 192.665 74.3563 192.664 75.4519V189.389C192.665 190.485 193.092 191.535 193.849 192.31C194.607 193.084 195.634 193.52 196.706 193.522Z" fill="#418F99"/>
<path d="M249.733 165.48H319.884C319.972 165.481 320.06 165.474 320.146 165.459L286.968 106.695C286.766 106.329 286.472 106.025 286.117 105.813C285.762 105.601 285.358 105.49 284.946 105.49C284.535 105.49 284.131 105.601 283.776 105.813C283.421 106.025 283.127 106.329 282.925 106.695L260.658 146.13L259.591 148.017L249.733 165.48Z" fill="white"/>
<path opacity="0.2" d="M249.733 165.48H273.685L261.927 148.017L261.08 146.759L260.657 146.13L259.59 148.017L249.733 165.48Z" fill="black"/>
<path d="M210.674 165.48H271.349L259.591 148.017L258.745 146.759L243.424 124.002C243.153 123.654 242.813 123.368 242.428 123.164C242.042 122.959 241.618 122.839 241.184 122.813C240.75 122.786 240.316 122.853 239.909 123.01C239.502 123.166 239.131 123.408 238.822 123.72C238.743 123.809 238.669 123.903 238.601 124.002L210.674 165.48Z" fill="white"/>
<path d="M214.835 105.264C209.095 105.264 204.443 100.507 204.443 94.6381C204.443 88.7694 209.095 84.0119 214.835 84.0119C220.574 84.0119 225.227 88.7694 225.227 94.6381C225.227 100.507 220.574 105.264 214.835 105.264Z" fill="white"/>
<path d="M167.406 187.575C166.47 187.049 165.383 186.872 164.332 187.076L147.867 171.343L150.6 157.313L139.789 157.913L138.822 174.941L160.606 192.287C160.702 193.09 160.998 193.855 161.465 194.507C161.933 195.16 162.557 195.678 163.277 196.013C163.997 196.348 164.789 196.489 165.578 196.421C166.366 196.352 167.124 196.078 167.779 195.625C168.434 195.171 168.964 194.552 169.318 193.829C169.672 193.105 169.838 192.301 169.801 191.493C169.764 190.685 169.524 189.9 169.104 189.214C168.685 188.528 168.1 187.964 167.406 187.575Z" fill="#FFB8B8"/>
<path d="M185.588 306.005H192.666L196.033 278.088H185.587L185.588 306.005Z" fill="#FFB6B6"/>
<path d="M183.783 313.02L206.606 313.019V312.724C206.606 310.315 205.67 308.005 204.004 306.302C202.338 304.598 200.079 303.641 197.723 303.641L183.783 303.642L183.783 313.02Z" fill="#2F2E41"/>
<path d="M132.472 306.005H139.55L142.917 278.088H132.47L132.472 306.005Z" fill="#FFB6B6"/>
<path d="M130.667 313.02L153.49 313.019V312.724C153.49 310.315 152.554 308.005 150.888 306.302C149.222 304.598 146.962 303.641 144.606 303.641L130.666 303.642L130.667 313.02Z" fill="#2F2E41"/>
<path d="M145.381 149.052C146.235 147.949 147.447 147.194 148.798 146.924C150.149 146.654 151.55 146.888 152.747 147.581C153.931 148.267 154.84 149.359 155.313 150.664C155.785 151.968 155.792 153.402 155.331 154.711L151.86 164.569L137.644 159.045L145.381 149.052Z" fill="#418F99"/>
<path d="M146.658 192.589C147.305 192.093 148 191.666 148.733 191.316L174.606 195.386L174.038 211.958C186.552 236.11 194.827 263.664 199.343 294.234L183.136 298.013C175.884 269.288 167.648 243.51 157.263 224.168L146.315 297.314L127.693 296.85C130.145 253.85 132.038 203.721 146.658 192.589Z" fill="#2F2E41"/>
<path d="M165.969 144.887C160.399 144.887 155.884 140.27 155.884 134.575C155.884 128.88 160.399 124.263 165.969 124.263C171.539 124.263 176.054 128.88 176.054 134.575C176.054 140.27 171.539 144.887 165.969 144.887Z" fill="#FFB8B8"/>
<path d="M143.792 161.074C143.33 158.222 143.784 155.294 145.084 152.727C146.385 150.161 148.463 148.094 151.007 146.835L162.38 147.416C164.232 147.906 165.949 148.822 167.402 150.094C168.855 151.365 170.005 152.959 170.765 154.753C175.695 166.55 176.397 181.633 174.322 198.875L147.384 192.323C151.079 183.817 148.109 172.708 143.792 161.074Z" fill="#418F99"/>
<path d="M178.474 132.06C178.474 130.665 178.205 129.283 177.683 127.994C177.16 126.704 176.395 125.533 175.43 124.546C174.465 123.56 173.319 122.777 172.058 122.243C170.797 121.709 169.446 121.434 168.081 121.434H167.485C165.603 119.904 163.269 119.071 160.865 119.073C158.032 119.073 155.315 120.223 153.312 122.271C151.309 124.32 150.184 127.097 150.184 129.994V143.867C157.089 143.691 164.911 145.083 173.278 147.409C171.169 141.436 169.767 135.945 170.725 132.06H178.474Z" fill="#2F2E41"/>
<path d="M199.835 179.878C198.766 179.877 197.73 180.256 196.905 180.951L175.071 175.244L170.875 161.598L161.676 167.435L168.83 182.843L196.086 187.352C196.547 188.009 197.166 188.534 197.883 188.877C198.6 189.219 199.391 189.367 200.18 189.307C200.969 189.247 201.729 188.981 202.389 188.534C203.048 188.087 203.584 187.474 203.945 186.754C204.306 186.034 204.48 185.232 204.451 184.423C204.421 183.615 204.189 182.828 203.777 182.138C203.364 181.447 202.785 180.877 202.095 180.481C201.405 180.086 200.627 179.878 199.835 179.878Z" fill="#FFB8B8"/>
<path d="M157.265 157.463C156.87 156.115 156.96 154.667 157.519 153.38C158.077 152.094 159.067 151.054 160.309 150.449C161.538 149.85 162.933 149.715 164.25 150.066C165.566 150.418 166.719 151.234 167.503 152.371L173.414 160.93L160.838 169.675L157.265 157.463Z" fill="#418F99"/>
<path d="M101.104 314.001H242.146C242.237 314.001 242.327 313.983 242.41 313.948C242.494 313.913 242.57 313.861 242.634 313.796C242.698 313.73 242.749 313.653 242.783 313.567C242.818 313.482 242.836 313.39 242.836 313.298C242.836 313.205 242.818 313.113 242.783 313.028C242.749 312.942 242.698 312.865 242.634 312.799C242.57 312.734 242.494 312.682 242.41 312.647C242.327 312.612 242.237 312.594 242.146 312.594H101.104C101.013 312.594 100.924 312.612 100.84 312.647C100.757 312.682 100.681 312.734 100.617 312.799C100.552 312.865 100.502 312.942 100.467 313.028C100.432 313.113 100.414 313.205 100.414 313.298C100.414 313.39 100.432 313.482 100.467 313.567C100.502 313.653 100.552 313.73 100.617 313.796C100.681 313.861 100.757 313.913 100.84 313.948C100.924 313.983 101.013 314.001 101.104 314.001Z" fill="#CACACA"/>
</g>
<defs>
<clipPath id="clip0_175_977">
<rect width="376" height="314" fill="white" transform="matrix(-1 0 0 1 376 0)"/>
</clipPath>
</defs>
</svg>
