<?xml version="1.0" encoding="UTF-8" standalone="no"?>
<svg
   viewBox="0 0 433.94272 445.62149"
   version="1.1"
   id="svg1"
   width="433.94272"
   height="445.62149"
   xmlns="http://www.w3.org/2000/svg"
   xmlns:svg="http://www.w3.org/2000/svg">
  <defs
     id="defs1" />
  <!--!Font Awesome Free 6.7.2 by @fontawesome - https://fontawesome.com License - https://fontawesome.com/license/free Copyright 2025 Fonticons, Inc.-->
  <path
     id="path1"
     style="fill:#272d38;fill-opacity:1;stroke-width:0.955659"
     d="m 189.14844,2.1210938 c -14.80272,0.120202 -29.67953,0.2919609 -44.42969,0.7734374 -7.66724,0.2923324 -15.33947,0.5622748 -22.99076,1.1495518 -4.04817,0.3370297 -8.09511,0.7722777 -12.17789,1.354833 -5.91149,0.8430637 -11.985558,2.0084346 -17.836202,3.5544884 -1.539457,0.4088927 -2.867511,0.7903727 -4.385628,1.2415626 -3.019021,0.9148 -6.001987,1.946755 -8.943504,3.086283 -0.565575,0.223748 -1.43929,0.577828 -2.123047,0.851562 -12.28124,5.038571 -23.652402,12.282129 -33.369866,21.328152 -3.083345,2.853273 -6.008091,5.877282 -8.762947,9.048802 -0.787883,0.909481 -1.724555,2.02208 -2.541383,3.034611 -2.146447,2.637926 -4.253016,5.517175 -6.097289,8.248592 -5.397991,8.035774 -9.766226,16.7599 -12.970703,25.894531 -0.748545,2.112858 -1.493234,4.428953 -2.147219,6.650013 -3.412847,11.456902 -5.3082058,23.661867 -6.2863076,35.620167 -0.5070562,6.16913 -0.7575417,12.28996 -1.014248,18.53086 -0.7014507,18.85041 -0.8277617,37.80166 -0.982486,56.70039 -0.2093628,33.01732 -0.065743,66.04091 0.8171325,99.04837 0.2106091,7.29332 0.5155682,14.62238 1.0545346,21.92676 0.1067145,1.19735 0.217437,2.67677 0.3281215,3.89233 1.4642348,16.77125 4.960866,33.52064 11.871097,48.9358 11.636545,25.85414 33.186452,47.21036 59.396418,58.13864 3.781428,1.56902 7.636285,2.96298 11.552801,4.15628 0.637186,0.19301 1.419102,0.42683 2.102721,0.6182 5.643616,1.62518 11.555354,2.89623 17.417914,3.83383 1.14837,0.19698 2.17146,0.3387 3.36936,0.513 1.25182,0.18688 2.56338,0.33667 3.89516,0.51348 1.19297,0.13372 2.63374,0.31076 3.92689,0.43417 7.72085,0.78372 15.39569,1.11287 23.14957,1.40735 16.74583,0.53741 33.60114,0.77222 50.39377,0.91642 25.27626,0.18802 50.55502,0.0962 75.82906,-0.28764 12.99937,-0.21741 25.92713,-0.55146 38.90464,-1.23374 4.90729,-0.2788 9.80631,-0.70571 14.6867,-1.29124 0.90584,-0.12367 2.1787,-0.27899 3.08791,-0.40439 6.00532,-0.83312 11.97084,-1.96848 17.84177,-3.48624 1.26501,-0.32693 2.78314,-0.75618 4.07227,-1.13086 7.34265,-2.18543 14.51741,-5.00984 21.33984,-8.58203 3.45721,-1.81066 7.03525,-3.93517 10.26833,-6.13305 5.34738,-3.62822 10.36941,-7.73073 15.03441,-12.20093 0.63293,-0.6269 1.48493,-1.44111 2.1822,-2.16053 0.78863,-0.7891 1.57076,-1.61028 2.38527,-2.48511 10.29131,-11.03157 18.3899,-24.0989 23.63459,-38.24743 1.64162,-4.37328 3.03311,-8.83923 4.212,-13.35889 0.68375,-2.62204 1.34822,-5.51012 1.90374,-8.28742 0.45372,-2.21656 0.84379,-4.44544 1.21345,-6.67742 0.13445,-0.86602 0.30768,-2.01961 0.45703,-2.99609 1.44884,-10.20629 2.05618,-20.40303 2.43917,-30.69921 0.69591,-20.94295 0.92836,-41.95995 1.04268,-62.939 0.0942,-24.06324 0.0306,-48.12849 -0.37349,-72.18891 -0.21111,-11.47392 -0.48465,-22.87678 -0.98418,-34.33484 -0.59439,-12.20999 -1.79866,-24.56162 -4.48197,-36.558239 -0.391,-1.714791 -0.76501,-3.254821 -1.21245,-4.97479 -0.45118,-1.712495 -0.94603,-3.487146 -1.43136,-5.083693 C 419.53604,74.867124 413.59961,62.523085 405.50964,51.70963 392.21524,33.67906 373.56473,19.530111 352.37083,12.14887 337.13075,6.7170426 320.89935,4.4137803 304.74217,3.5640558 298.6794,3.2258181 292.52839,2.9984823 286.51172,2.8085938 258.80194,2.0573385 231.07923,1.9837946 203.36096,2.0067789 c -4.73751,0.038105 -9.47502,0.07621 -14.21252,0.1143149 z m -9.03711,46.3242182 c 20.78855,0.125113 41.57833,0.346577 62.36678,0.08635 23.35133,-0.140593 46.77074,-0.05747 70.00361,2.560974 8.54922,1.027144 17.1247,2.393969 25.29604,5.187122 17.64721,6.139906 32.12539,20.232003 39.46247,37.335287 3.64137,8.353005 5.22945,17.407855 6.46135,26.382325 1.54876,11.75804 2.2477,23.61084 2.67892,35.45711 0.93639,27.56888 -0.005,55.15484 0.30851,82.73088 0.16646,24.88904 0.47934,49.82928 -1.61403,74.65447 -0.90687,10.28656 -2.09634,20.60951 -4.80703,30.59842 -3.85591,13.84753 -12.18434,26.39924 -23.45744,35.31914 -7.80011,6.23412 -17.02652,10.65052 -26.76927,12.83607 -12.68246,2.92268 -25.70181,3.95015 -38.6646,4.71597 -28.89789,1.57265 -57.84408,0.40491 -86.76405,0.69281 -22.61956,0.15282 -45.27219,0.45248 -67.85441,-1.08917 -10.12596,-0.73857 -20.27281,-1.6833 -30.2215,-3.77464 -6.00284,-1.27634 -11.947675,-3.01885 -17.438353,-5.80308 -16.968394,-8.41146 -30.03168,-24.23425 -35.194044,-42.44399 -2.196148,-7.67765 -3.302751,-15.61497 -4.211577,-23.53228 -1.946915,-18.02867 -2.35861,-36.18103 -2.455459,-54.30205 -0.05962,-20.56694 0.334657,-41.1336 0.09423,-61.70033 -0.15271,-25.24743 -0.374387,-50.55847 2.053173,-75.71801 1.042382,-10.06782 2.286254,-20.21435 5.464807,-29.867015 5.162372,-15.643233 16.257163,-29.202525 30.506015,-37.451366 6.259316,-3.673731 13.156614,-6.178395 20.249438,-7.666286 11.58425,-2.471354 23.41433,-3.52328 35.21931,-4.249729 13.08185,-0.750827 26.18653,-0.898103 39.28711,-0.958985 z M 328.0625,77.251953 c -11.41429,0.631813 -21.89284,8.839775 -25.48884,19.65296 -3.59008,10.171657 -1.3403,22.283227 5.95207,30.289567 6.61645,7.45751 17.31698,11.1139 27.0875,8.96334 9.8764,-2.06778 18.36611,-9.67103 21.47796,-19.2734 3.23116,-9.45245 1.59309,-20.529666 -4.63089,-28.410727 -5.36449,-6.974689 -14.02183,-11.433598 -22.87241,-11.256044 -0.50873,-0.0077 -1.01693,0.02246 -1.52539,0.0343 z M 215.70898,107.72656 c -10.00084,0.1123 -19.97915,1.62521 -29.57617,4.43555 -0.50107,0.15699 -1.33988,0.40739 -1.9704,0.60019 -7.43558,2.33319 -14.62097,5.45424 -21.40655,9.28653 -0.3555,0.20228 -1.03829,0.60295 -1.51907,0.88117 -2.12834,1.24388 -4.38958,2.69094 -6.31101,4.00555 -13.58056,9.31078 -25.04778,21.63826 -33.48242,35.77148 -0.608,1.02827 -1.26672,2.15472 -1.89732,3.30043 -2.39511,4.33316 -4.52849,8.85478 -6.31877,13.40384 -3.5576,8.97882 -5.9522,18.41 -7.19797,27.98518 -0.21098,1.62551 -0.40973,3.47055 -0.55478,5.18758 -0.33577,3.97947 -0.47056,7.82535 -0.42764,11.83977 0.0213,1.18793 0.0464,2.2305 0.0898,3.41601 0.0317,0.48754 0.0674,1.3288 0.10576,1.95333 0.20117,3.42049 0.5435,6.83254 1.029,10.22441 0.0951,0.58455 0.19876,1.35557 0.30197,1.95819 0.37248,2.30425 0.81397,4.60955 1.30733,6.81624 0.87116,3.94063 2.00563,7.99142 3.25203,11.71971 0.61214,1.77733 1.22429,3.4953 1.92648,5.2921 8.74726,22.4485 24.68548,42.08927 45.06766,54.98329 0.44732,0.27196 1.18934,0.73942 1.74962,1.08631 3.73622,2.28107 7.61487,4.32456 11.59218,6.15197 0.36272,0.16373 1.09795,0.48598 1.60326,0.71039 13.70461,6.0051 28.65024,9.13364 43.61229,9.14881 3.0155,0.009 6.00116,-0.108 8.92919,-0.33444 2.12833,-0.16108 4.28228,-0.39971 6.34549,-0.6771 13.21616,-1.80056 26.23081,-6.048 37.9629,-12.54493 3.07237,-1.69592 6.21701,-3.63348 9.01953,-5.55078 12.60271,-8.61484 23.45049,-19.78425 31.6875,-32.63672 0.35183,-0.54997 0.76218,-1.1975 1.11855,-1.78577 7.48004,-12.15141 12.63826,-25.70484 15.2584,-39.72594 0.0876,-0.47858 0.23218,-1.31347 0.34162,-1.92857 1.30129,-7.62821 1.84895,-15.5004 1.62322,-23.16323 -0.0436,-1.48733 -0.11055,-2.83635 -0.2076,-4.35773 -0.73139,-11.62622 -3.23952,-23.32077 -7.38515,-34.29021 -0.75082,-1.96447 -1.56958,-3.9895 -2.38597,-5.81992 -11.1333,-25.38451 -31.82287,-46.52123 -57.17844,-57.80918 -1.13043,-0.50666 -2.22858,-0.97689 -3.30148,-1.41174 -13.37672,-5.49191 -28.25926,-8.31405 -42.80308,-8.12177 z m 1.36329,46.54688 c 18.36633,-0.0452 36.52897,8.15321 48.75924,21.83377 10.41088,11.46061 16.86094,26.4882 17.78664,41.96038 1.05938,15.50325 -3.12425,31.38232 -12.03611,44.15022 -9.47267,13.80415 -24.17549,24.09473 -40.60887,27.59337 -13.32224,2.98235 -27.57047,1.57047 -40.05659,-3.9474 -13.79224,-6.00817 -25.34932,-16.85798 -32.41185,-30.1226 -5.17558,-9.58558 -8.01616,-20.40534 -8.23726,-31.29607 -0.34145,-14.68063 3.97713,-29.4874 12.47159,-41.49765 9.1926,-13.16041 23.14667,-23.05138 38.80498,-26.8026 5.07851,-1.23434 10.30293,-1.85126 15.52823,-1.87142 z" />
</svg>
