<svg width="334" height="276" viewBox="0 0 334 276" fill="none" xmlns="http://www.w3.org/2000/svg">
<g clip-path="url(#clip0_132_97)">
<path d="M172.324 27.7762C178.584 27.7762 183.658 22.0106 183.658 14.8984C183.658 7.78621 178.584 2.02063 172.324 2.02063C166.064 2.02063 160.99 7.78621 160.99 14.8984C160.99 22.0106 166.064 27.7762 172.324 27.7762Z" fill="#F2F2F2"/>
<path d="M260.248 218.897C277.095 204.318 285.141 179.818 280.104 156.448C279.979 155.867 279.847 155.288 279.708 154.71C276.368 140.837 268.105 127.652 256.063 123.22C245.952 119.498 234.915 122.36 224.367 120.88C203.659 117.974 187.605 98.938 176.309 79.0068C165.013 59.0755 156.332 36.7653 141.322 20.2992C116.58 -6.84241 76.2207 -12.686 45.5447 4.98115C14.8688 22.6484 -4.6714 61.8445 -3.83806 100.908C-3.00469 139.972 17.4063 177.32 47.0481 197.135C57.9373 204.415 70.5316 209.572 83.0656 207.767C93.9412 206.201 103.823 199.562 114.647 197.591C131.666 194.492 148.576 203.234 163.295 213.422C178.015 223.609 192.233 235.685 208.96 240.408C225.202 244.994 245.324 231.812 260.248 218.897Z" fill="#F2F2F2"/>
<path d="M236.042 5.80145C235.673 5.52172 235.3 5.25645 234.93 4.98636C224.255 -2.77106 212.812 -9.07311 200.839 -13.7896L198.063 29.7235H180.463V-20.1415C179.355 -20.4019 178.239 -20.6479 177.123 -20.8794V29.7235H156.208C144.694 29.7235 133.652 24.5268 125.51 15.2766C117.369 6.02646 112.795 -6.5195 112.795 -19.6012C111.674 -19.3263 110.562 -19.0322 109.45 -18.7187V29.7235H92.415L89.7704 -11.7687C77.4663 -6.40735 65.7853 0.643143 54.9874 9.22579C54.8006 9.37048 54.6138 9.51999 54.4313 9.66468C53.4932 10.4122 52.5678 11.1743 51.6466 11.946V177.949H101.851L100.964 163.986L96.0826 87.3247H194.391L189.509 163.986L188.622 177.949H238.271V7.47986C237.532 6.91076 236.789 6.35129 236.042 5.80145ZM109.45 74.6643H95.2761L92.6569 33.5241H109.45V74.6643ZM177.123 74.6643H153.317V73.8492C153.317 73.4573 153.249 73.0694 153.117 72.7074C152.985 72.3455 152.791 72.0167 152.547 71.7398C152.303 71.463 152.013 71.2435 151.695 71.094C151.376 70.9445 151.034 70.8679 150.689 70.8686H140.34C139.996 70.8684 139.655 70.9454 139.336 71.0951C139.018 71.2449 138.729 71.4644 138.485 71.7412C138.241 72.018 138.048 72.3467 137.916 72.7084C137.785 73.0701 137.717 73.4577 137.717 73.8492V74.6643H112.795V33.5241H177.123V74.6643ZM180.463 74.6643V33.5241H197.821L195.202 74.6643H180.463Z" fill="#3F3D56"/>
<path d="M-22.2305 188.579C-18.5428 193.544 -14.5542 198.209 -10.2938 202.542L299.833 203.024C304.093 198.692 308.082 194.026 311.769 189.061L-22.2305 188.579Z" fill="#3F3D56"/>
<path d="M188.076 143.87V185.205C188.077 185.732 188.261 186.237 188.589 186.61C188.917 186.982 189.361 187.191 189.825 187.192H243.737C244.201 187.191 244.646 186.982 244.973 186.61C245.301 186.237 245.486 185.732 245.486 185.205V143.87C245.485 143.344 245.3 142.84 244.972 142.468C244.645 142.096 244.201 141.886 243.737 141.886H189.825C189.362 141.886 188.917 142.096 188.59 142.468C188.262 142.84 188.077 143.344 188.076 143.87Z" fill="#3F3D56"/>
<path d="M189.341 144.384V184.695C189.341 184.977 189.44 185.246 189.615 185.445C189.79 185.644 190.028 185.756 190.276 185.757H243.289C243.536 185.756 243.774 185.644 243.949 185.445C244.124 185.246 244.223 184.977 244.223 184.695V144.384C244.223 144.103 244.125 143.832 243.95 143.633C243.774 143.433 243.537 143.321 243.289 143.32H190.276C190.028 143.321 189.79 143.433 189.615 143.633C189.44 143.832 189.341 144.103 189.341 144.384Z" fill="#418F99"/>
<path d="M186.949 193.267C187.048 193.407 187.173 193.521 187.316 193.598C187.459 193.676 187.615 193.716 187.774 193.715H245.501C245.659 193.715 245.815 193.675 245.958 193.597C246.1 193.52 246.226 193.408 246.325 193.268C246.425 193.129 246.495 192.966 246.533 192.792C246.57 192.618 246.572 192.436 246.54 192.261L245.644 187.424C245.607 187.227 245.527 187.044 245.411 186.891C245.296 186.737 245.148 186.62 244.982 186.548C244.862 186.494 244.734 186.467 244.605 186.467H188.666C188.537 186.467 188.409 186.494 188.289 186.548C188.123 186.62 187.976 186.737 187.861 186.891C187.745 187.044 187.665 187.227 187.628 187.424L186.732 192.261C186.7 192.436 186.703 192.617 186.74 192.791C186.778 192.965 186.849 193.128 186.949 193.267Z" fill="#2F2E41"/>
<path d="M242.625 188.55H243.988C244.103 188.55 244.195 188.445 244.195 188.314V187.573C244.195 187.443 244.103 187.338 243.988 187.338H242.625C242.51 187.338 242.417 187.443 242.417 187.573V188.314C242.417 188.445 242.51 188.55 242.625 188.55Z" fill="#3F3D56"/>
<path d="M239.069 188.55H240.432C240.547 188.55 240.639 188.445 240.639 188.314V187.573C240.639 187.443 240.547 187.338 240.432 187.338H239.069C238.954 187.338 238.861 187.443 238.861 187.573V188.314C238.861 188.445 238.954 188.55 239.069 188.55Z" fill="#3F3D56"/>
<path d="M235.513 188.55H236.876C236.991 188.55 237.083 188.445 237.083 188.314V187.573C237.083 187.443 236.991 187.338 236.876 187.338H235.513C235.398 187.338 235.305 187.443 235.305 187.573V188.314C235.305 188.445 235.398 188.55 235.513 188.55Z" fill="#3F3D56"/>
<path d="M231.957 188.55H233.32C233.435 188.55 233.527 188.445 233.527 188.314V187.573C233.527 187.443 233.435 187.338 233.32 187.338H231.957C231.842 187.338 231.749 187.443 231.749 187.573V188.314C231.749 188.445 231.842 188.55 231.957 188.55Z" fill="#3F3D56"/>
<path d="M228.401 188.55H229.764C229.879 188.55 229.971 188.445 229.971 188.314V187.573C229.971 187.443 229.879 187.338 229.764 187.338H228.401C228.286 187.338 228.193 187.443 228.193 187.573V188.314C228.193 188.445 228.286 188.55 228.401 188.55Z" fill="#3F3D56"/>
<path d="M224.845 188.55H226.208C226.323 188.55 226.415 188.445 226.415 188.314V187.573C226.415 187.443 226.323 187.338 226.208 187.338H224.845C224.73 187.338 224.637 187.443 224.637 187.573V188.314C224.637 188.445 224.73 188.55 224.845 188.55Z" fill="#3F3D56"/>
<path d="M221.289 188.55H222.652C222.767 188.55 222.859 188.445 222.859 188.314V187.573C222.859 187.443 222.767 187.338 222.652 187.338H221.289C221.174 187.338 221.081 187.443 221.081 187.573V188.314C221.081 188.445 221.174 188.55 221.289 188.55Z" fill="#3F3D56"/>
<path d="M217.733 188.55H219.096C219.211 188.55 219.303 188.445 219.303 188.314V187.573C219.303 187.443 219.211 187.338 219.096 187.338H217.733C217.618 187.338 217.525 187.443 217.525 187.573V188.314C217.525 188.445 217.618 188.55 217.733 188.55Z" fill="#3F3D56"/>
<path d="M214.177 188.55H215.54C215.655 188.55 215.748 188.445 215.748 188.314V187.573C215.748 187.443 215.655 187.338 215.54 187.338H214.177C214.062 187.338 213.97 187.443 213.97 187.573V188.314C213.97 188.445 214.062 188.55 214.177 188.55Z" fill="#3F3D56"/>
<path d="M210.621 188.55H211.984C212.099 188.55 212.192 188.445 212.192 188.314V187.573C212.192 187.443 212.099 187.338 211.984 187.338H210.621C210.506 187.338 210.414 187.443 210.414 187.573V188.314C210.414 188.445 210.506 188.55 210.621 188.55Z" fill="#3F3D56"/>
<path d="M207.065 188.55H208.428C208.543 188.55 208.636 188.445 208.636 188.314V187.573C208.636 187.443 208.543 187.338 208.428 187.338H207.065C206.95 187.338 206.858 187.443 206.858 187.573V188.314C206.858 188.445 206.95 188.55 207.065 188.55Z" fill="#3F3D56"/>
<path d="M203.509 188.55H204.872C204.987 188.55 205.08 188.445 205.08 188.314V187.573C205.08 187.443 204.987 187.338 204.872 187.338H203.509C203.394 187.338 203.302 187.443 203.302 187.573V188.314C203.302 188.445 203.394 188.55 203.509 188.55Z" fill="#3F3D56"/>
<path d="M199.953 188.55H201.316C201.431 188.55 201.524 188.445 201.524 188.314V187.573C201.524 187.443 201.431 187.338 201.316 187.338H199.953C199.838 187.338 199.746 187.443 199.746 187.573V188.314C199.746 188.445 199.838 188.55 199.953 188.55Z" fill="#3F3D56"/>
<path d="M196.397 188.55H197.76C197.875 188.55 197.968 188.445 197.968 188.314V187.573C197.968 187.443 197.875 187.338 197.76 187.338H196.397C196.282 187.338 196.19 187.443 196.19 187.573V188.314C196.19 188.445 196.282 188.55 196.397 188.55Z" fill="#3F3D56"/>
<path d="M192.841 188.55H194.204C194.319 188.55 194.412 188.445 194.412 188.314V187.573C194.412 187.443 194.319 187.338 194.204 187.338H192.841C192.726 187.338 192.634 187.443 192.634 187.573V188.314C192.634 188.445 192.726 188.55 192.841 188.55Z" fill="#3F3D56"/>
<path d="M189.285 188.55H190.648C190.763 188.55 190.856 188.445 190.856 188.314V187.573C190.856 187.443 190.763 187.338 190.648 187.338H189.285C189.171 187.338 189.078 187.443 189.078 187.573V188.314C189.078 188.445 189.171 188.55 189.285 188.55Z" fill="#3F3D56"/>
<path d="M242.667 190.57H244.03C244.145 190.57 244.237 190.465 244.237 190.335V189.593C244.237 189.463 244.145 189.358 244.03 189.358H242.667C242.552 189.358 242.459 189.463 242.459 189.593V190.335C242.459 190.465 242.552 190.57 242.667 190.57Z" fill="#3F3D56"/>
<path d="M239.111 190.57H240.474C240.589 190.57 240.681 190.465 240.681 190.335V189.593C240.681 189.463 240.589 189.358 240.474 189.358H239.111C238.996 189.358 238.903 189.463 238.903 189.593V190.335C238.903 190.465 238.996 190.57 239.111 190.57Z" fill="#3F3D56"/>
<path d="M235.555 190.57H236.918C237.033 190.57 237.125 190.465 237.125 190.335V189.593C237.125 189.463 237.033 189.358 236.918 189.358H235.555C235.44 189.358 235.347 189.463 235.347 189.593V190.335C235.347 190.465 235.44 190.57 235.555 190.57Z" fill="#3F3D56"/>
<path d="M231.999 190.57H233.362C233.477 190.57 233.569 190.465 233.569 190.335V189.593C233.569 189.463 233.477 189.358 233.362 189.358H231.999C231.884 189.358 231.791 189.463 231.791 189.593V190.335C231.791 190.465 231.884 190.57 231.999 190.57Z" fill="#3F3D56"/>
<path d="M228.443 190.57H229.806C229.921 190.57 230.013 190.465 230.013 190.335V189.593C230.013 189.463 229.921 189.358 229.806 189.358H228.443C228.328 189.358 228.235 189.463 228.235 189.593V190.335C228.235 190.465 228.328 190.57 228.443 190.57Z" fill="#3F3D56"/>
<path d="M224.887 190.57H226.25C226.365 190.57 226.458 190.465 226.458 190.335V189.593C226.458 189.463 226.365 189.358 226.25 189.358H224.887C224.772 189.358 224.68 189.463 224.68 189.593V190.335C224.68 190.465 224.772 190.57 224.887 190.57Z" fill="#3F3D56"/>
<path d="M221.331 190.57H222.694C222.809 190.57 222.901 190.465 222.901 190.335V189.593C222.901 189.463 222.809 189.358 222.694 189.358H221.331C221.216 189.358 221.123 189.463 221.123 189.593V190.335C221.123 190.465 221.216 190.57 221.331 190.57Z" fill="#3F3D56"/>
<path d="M217.775 190.57H219.138C219.253 190.57 219.345 190.465 219.345 190.335V189.593C219.345 189.463 219.253 189.358 219.138 189.358H217.775C217.66 189.358 217.567 189.463 217.567 189.593V190.335C217.567 190.465 217.66 190.57 217.775 190.57Z" fill="#3F3D56"/>
<path d="M214.219 190.57H215.582C215.697 190.57 215.789 190.465 215.789 190.335V189.593C215.789 189.463 215.697 189.358 215.582 189.358H214.219C214.104 189.358 214.011 189.463 214.011 189.593V190.335C214.011 190.465 214.104 190.57 214.219 190.57Z" fill="#3F3D56"/>
<path d="M210.663 190.57H212.026C212.141 190.57 212.234 190.465 212.234 190.335V189.593C212.234 189.463 212.141 189.358 212.026 189.358H210.663C210.548 189.358 210.456 189.463 210.456 189.593V190.335C210.456 190.465 210.548 190.57 210.663 190.57Z" fill="#3F3D56"/>
<path d="M207.107 190.57H208.47C208.585 190.57 208.678 190.465 208.678 190.335V189.593C208.678 189.463 208.585 189.358 208.47 189.358H207.107C206.992 189.358 206.9 189.463 206.9 189.593V190.335C206.9 190.465 206.992 190.57 207.107 190.57Z" fill="#3F3D56"/>
<path d="M203.551 190.57H204.914C205.029 190.57 205.122 190.465 205.122 190.335V189.593C205.122 189.463 205.029 189.358 204.914 189.358H203.551C203.436 189.358 203.344 189.463 203.344 189.593V190.335C203.344 190.465 203.436 190.57 203.551 190.57Z" fill="#3F3D56"/>
<path d="M199.995 190.57H201.358C201.473 190.57 201.566 190.465 201.566 190.335V189.593C201.566 189.463 201.473 189.358 201.358 189.358H199.995C199.88 189.358 199.788 189.463 199.788 189.593V190.335C199.788 190.465 199.88 190.57 199.995 190.57Z" fill="#3F3D56"/>
<path d="M196.439 190.57H197.802C197.917 190.57 198.01 190.465 198.01 190.335V189.593C198.01 189.463 197.917 189.358 197.802 189.358H196.439C196.324 189.358 196.232 189.463 196.232 189.593V190.335C196.232 190.465 196.324 190.57 196.439 190.57Z" fill="#3F3D56"/>
<path d="M192.883 190.57H194.247C194.361 190.57 194.454 190.465 194.454 190.335V189.593C194.454 189.463 194.361 189.358 194.247 189.358H192.883C192.769 189.358 192.676 189.463 192.676 189.593V190.335C192.676 190.465 192.769 190.57 192.883 190.57Z" fill="#3F3D56"/>
<path d="M189.327 190.57H190.691C190.805 190.57 190.898 190.465 190.898 190.335V189.593C190.898 189.463 190.805 189.358 190.691 189.358H189.327C189.213 189.358 189.12 189.463 189.12 189.593V190.335C189.12 190.465 189.213 190.57 189.327 190.57Z" fill="#3F3D56"/>
<path d="M213.152 192.994H226.961C227.076 192.994 227.169 192.889 227.169 192.759V192.018C227.169 191.888 227.076 191.782 226.961 191.782H213.152C213.038 191.782 212.945 191.888 212.945 192.018V192.759C212.945 192.889 213.038 192.994 213.152 192.994Z" fill="#3F3D56"/>
<path d="M198.521 152.14H197.314C196.948 152.14 196.651 152.477 196.651 152.892C196.651 153.308 196.948 153.645 197.314 153.645H198.521C198.887 153.645 199.184 153.308 199.184 152.892C199.184 152.477 198.887 152.14 198.521 152.14Z" fill="white"/>
<path d="M212.327 152.14H211.12C210.754 152.14 210.457 152.477 210.457 152.892C210.457 153.308 210.754 153.645 211.12 153.645H212.327C212.693 153.645 212.99 153.308 212.99 152.892C212.99 152.477 212.693 152.14 212.327 152.14Z" fill="white"/>
<path d="M216.239 152.14H215.032C214.666 152.14 214.369 152.477 214.369 152.892C214.369 153.308 214.666 153.645 215.032 153.645H216.239C216.605 153.645 216.901 153.308 216.901 152.892C216.901 152.477 216.605 152.14 216.239 152.14Z" fill="white"/>
<path d="M208.572 152.014H201.069C200.703 152.014 200.407 152.351 200.407 152.767C200.407 153.183 200.703 153.52 201.069 153.52H208.572C208.938 153.52 209.235 153.183 209.235 152.767C209.235 152.351 208.938 152.014 208.572 152.014Z" fill="white"/>
<path d="M226.98 152.014H219.477C219.111 152.014 218.814 152.351 218.814 152.767C218.814 153.183 219.111 153.52 219.477 153.52H226.98C227.346 153.52 227.642 153.183 227.642 152.767C227.642 152.351 227.346 152.014 226.98 152.014Z" fill="white"/>
<path d="M202.203 155.538H200.996C200.63 155.538 200.333 155.875 200.333 156.291C200.333 156.707 200.63 157.044 200.996 157.044H202.203C202.569 157.044 202.865 156.707 202.865 156.291C202.865 155.875 202.569 155.538 202.203 155.538Z" fill="white"/>
<path d="M216.009 155.538H214.802C214.436 155.538 214.139 155.875 214.139 156.291C214.139 156.707 214.436 157.044 214.802 157.044H216.009C216.375 157.044 216.671 156.707 216.671 156.291C216.671 155.875 216.375 155.538 216.009 155.538Z" fill="white"/>
<path d="M219.92 155.538H218.713C218.347 155.538 218.051 155.875 218.051 156.291C218.051 156.707 218.347 157.044 218.713 157.044H219.92C220.286 157.044 220.583 156.707 220.583 156.291C220.583 155.875 220.286 155.538 219.92 155.538Z" fill="white"/>
<path d="M212.254 155.413H204.751C204.385 155.413 204.088 155.75 204.088 156.166C204.088 156.581 204.385 156.918 204.751 156.918H212.254C212.62 156.918 212.916 156.581 212.916 156.166C212.916 155.75 212.62 155.413 212.254 155.413Z" fill="white"/>
<path d="M230.661 155.413H223.159C222.793 155.413 222.496 155.75 222.496 156.166C222.496 156.581 222.793 156.918 223.159 156.918H230.661C231.027 156.918 231.324 156.581 231.324 156.166C231.324 155.75 231.027 155.413 230.661 155.413Z" fill="white"/>
<path d="M205.884 158.937H204.677C204.311 158.937 204.015 159.274 204.015 159.69C204.015 160.105 204.311 160.443 204.677 160.443H205.884C206.25 160.443 206.547 160.105 206.547 159.69C206.547 159.274 206.25 158.937 205.884 158.937Z" fill="white"/>
<path d="M219.69 158.937H218.483C218.117 158.937 217.82 159.274 217.82 159.69C217.82 160.105 218.117 160.443 218.483 160.443H219.69C220.056 160.443 220.353 160.105 220.353 159.69C220.353 159.274 220.056 158.937 219.69 158.937Z" fill="white"/>
<path d="M223.602 158.937H222.395C222.029 158.937 221.732 159.274 221.732 159.69C221.732 160.105 222.029 160.443 222.395 160.443H223.602C223.968 160.443 224.265 160.105 224.265 159.69C224.265 159.274 223.968 158.937 223.602 158.937Z" fill="white"/>
<path d="M215.935 158.811H208.433C208.067 158.811 207.77 159.148 207.77 159.564C207.77 159.98 208.067 160.317 208.433 160.317H215.935C216.301 160.317 216.598 159.98 216.598 159.564C216.598 159.148 216.301 158.811 215.935 158.811Z" fill="white"/>
<path d="M234.343 158.811H226.84C226.474 158.811 226.178 159.148 226.178 159.564C226.178 159.98 226.474 160.317 226.84 160.317H234.343C234.709 160.317 235.005 159.98 235.005 159.564C235.005 159.148 234.709 158.811 234.343 158.811Z" fill="white"/>
<path d="M209.566 162.335H208.359C207.993 162.335 207.696 162.672 207.696 163.088C207.696 163.504 207.993 163.841 208.359 163.841H209.566C209.932 163.841 210.229 163.504 210.229 163.088C210.229 162.672 209.932 162.335 209.566 162.335Z" fill="white"/>
<path d="M223.372 162.335H222.165C221.799 162.335 221.502 162.672 221.502 163.088C221.502 163.504 221.799 163.841 222.165 163.841H223.372C223.738 163.841 224.034 163.504 224.034 163.088C224.034 162.672 223.738 162.335 223.372 162.335Z" fill="white"/>
<path d="M227.283 162.335H226.076C225.71 162.335 225.414 162.672 225.414 163.088C225.414 163.504 225.71 163.841 226.076 163.841H227.283C227.649 163.841 227.946 163.504 227.946 163.088C227.946 162.672 227.649 162.335 227.283 162.335Z" fill="white"/>
<path d="M219.617 162.21H212.114C211.748 162.21 211.451 162.547 211.451 162.963C211.451 163.379 211.748 163.716 212.114 163.716H219.617C219.983 163.716 220.279 163.379 220.279 162.963C220.279 162.547 219.983 162.21 219.617 162.21Z" fill="white"/>
<path d="M212.327 175.85H211.12C210.754 175.85 210.457 176.187 210.457 176.603C210.457 177.018 210.754 177.355 211.12 177.355H212.327C212.693 177.355 212.99 177.018 212.99 176.603C212.99 176.187 212.693 175.85 212.327 175.85Z" fill="white"/>
<path d="M216.239 175.85H215.032C214.666 175.85 214.369 176.187 214.369 176.603C214.369 177.018 214.666 177.355 215.032 177.355H216.239C216.605 177.355 216.901 177.018 216.901 176.603C216.901 176.187 216.605 175.85 216.239 175.85Z" fill="white"/>
<path d="M226.98 175.975H219.477C219.111 175.975 218.814 176.312 218.814 176.728C218.814 177.144 219.111 177.481 219.477 177.481H226.98C227.346 177.481 227.642 177.144 227.642 176.728C227.642 176.312 227.346 175.975 226.98 175.975Z" fill="white"/>
<path d="M198.521 175.85H197.314C196.948 175.85 196.651 176.187 196.651 176.603C196.651 177.018 196.948 177.355 197.314 177.355H198.521C198.887 177.355 199.184 177.018 199.184 176.603C199.184 176.187 198.887 175.85 198.521 175.85Z" fill="white"/>
<path d="M208.572 175.975H201.069C200.703 175.975 200.407 176.312 200.407 176.728C200.407 177.144 200.703 177.481 201.069 177.481H208.572C208.938 177.481 209.235 177.144 209.235 176.728C209.235 176.312 208.938 175.975 208.572 175.975Z" fill="white"/>
<path d="M202.203 172.451H200.996C200.63 172.451 200.333 172.788 200.333 173.204C200.333 173.62 200.63 173.957 200.996 173.957H202.203C202.569 173.957 202.865 173.62 202.865 173.204C202.865 172.788 202.569 172.451 202.203 172.451Z" fill="white"/>
<path d="M216.009 172.451H214.802C214.436 172.451 214.139 172.788 214.139 173.204C214.139 173.62 214.436 173.957 214.802 173.957H216.009C216.375 173.957 216.671 173.62 216.671 173.204C216.671 172.788 216.375 172.451 216.009 172.451Z" fill="white"/>
<path d="M219.92 172.451H218.713C218.347 172.451 218.051 172.788 218.051 173.204C218.051 173.62 218.347 173.957 218.713 173.957H219.92C220.286 173.957 220.583 173.62 220.583 173.204C220.583 172.788 220.286 172.451 219.92 172.451Z" fill="white"/>
<path d="M212.254 172.577H204.751C204.385 172.577 204.088 172.914 204.088 173.329C204.088 173.745 204.385 174.082 204.751 174.082H212.254C212.62 174.082 212.916 173.745 212.916 173.329C212.916 172.914 212.62 172.577 212.254 172.577Z" fill="white"/>
<path d="M205.884 169.052H204.677C204.311 169.052 204.015 169.389 204.015 169.805C204.015 170.221 204.311 170.558 204.677 170.558H205.884C206.25 170.558 206.547 170.221 206.547 169.805C206.547 169.389 206.25 169.052 205.884 169.052Z" fill="white"/>
<path d="M219.69 169.052H218.483C218.117 169.052 217.82 169.389 217.82 169.805C217.82 170.221 218.117 170.558 218.483 170.558H219.69C220.056 170.558 220.353 170.221 220.353 169.805C220.353 169.389 220.056 169.052 219.69 169.052Z" fill="white"/>
<path d="M223.602 169.052H222.395C222.029 169.052 221.732 169.389 221.732 169.805C221.732 170.221 222.029 170.558 222.395 170.558H223.602C223.968 170.558 224.265 170.221 224.265 169.805C224.265 169.389 223.968 169.052 223.602 169.052Z" fill="white"/>
<path d="M215.935 169.178H208.433C208.067 169.178 207.77 169.515 207.77 169.931C207.77 170.347 208.067 170.684 208.433 170.684H215.935C216.301 170.684 216.598 170.347 216.598 169.931C216.598 169.515 216.301 169.178 215.935 169.178Z" fill="white"/>
<path d="M209.566 165.654H208.359C207.993 165.654 207.696 165.991 207.696 166.407C207.696 166.823 207.993 167.16 208.359 167.16H209.566C209.932 167.16 210.229 166.823 210.229 166.407C210.229 165.991 209.932 165.654 209.566 165.654Z" fill="white"/>
<path d="M223.372 165.654H222.165C221.799 165.654 221.502 165.991 221.502 166.407C221.502 166.823 221.799 167.16 222.165 167.16H223.372C223.738 167.16 224.034 166.823 224.034 166.407C224.034 165.991 223.738 165.654 223.372 165.654Z" fill="white"/>
<path d="M227.283 165.654H226.076C225.71 165.654 225.414 165.991 225.414 166.407C225.414 166.823 225.71 167.16 226.076 167.16H227.283C227.649 167.16 227.946 166.823 227.946 166.407C227.946 165.991 227.649 165.654 227.283 165.654Z" fill="white"/>
<path d="M219.617 165.779H212.114C211.748 165.779 211.451 166.116 211.451 166.532C211.451 166.948 211.748 167.285 212.114 167.285H219.617C219.983 167.285 220.279 166.948 220.279 166.532C220.279 166.116 219.983 165.779 219.617 165.779Z" fill="white"/>
<path d="M192.104 215.68L186.437 205.503L204.224 189.392L211.566 180.151C212.52 178.95 213.734 178.055 215.088 177.555C216.441 177.055 217.887 176.967 219.28 177.3C220.673 177.634 221.965 178.376 223.026 179.455C224.087 180.533 224.88 181.908 225.327 183.444C225.989 185.72 225.846 188.199 224.93 190.358C224.014 192.517 222.395 194.187 220.416 195.015L208.806 199.874L192.104 215.68Z" fill="#FFB6B6"/>
<path d="M59.1406 141.888V191.352H89.6405V141.888C89.641 141.532 89.5411 141.185 89.3554 140.899C89.1698 140.612 88.9081 140.401 88.609 140.296C88.468 140.243 88.3202 140.217 88.1717 140.219H60.6136C60.4204 140.218 60.2291 140.261 60.0505 140.345C59.8719 140.429 59.7095 140.551 59.5727 140.706C59.4359 140.861 59.3273 141.045 59.2532 141.248C59.1791 141.451 59.1408 141.668 59.1406 141.888ZM71.0434 158.884C71.0514 157.909 71.3979 156.977 72.0076 156.29C72.6174 155.604 73.441 155.219 74.2993 155.219C75.1576 155.219 75.9812 155.604 76.5909 156.29C77.2007 156.977 77.5472 157.909 77.5552 158.884V164.623C77.5508 165.601 77.2058 166.537 76.5957 167.227C75.9856 167.916 75.1599 168.304 74.2993 168.304C73.4386 168.304 72.613 167.916 72.0029 167.227C71.3928 166.537 71.0478 165.601 71.0434 164.623V158.884Z" fill="#2F2E41"/>
<path d="M59.0473 189.771V194.54C59.048 194.788 59.1344 195.024 59.2878 195.2C59.4411 195.375 59.6491 195.474 59.8666 195.476H88.9147C89.1324 195.475 89.3407 195.376 89.4943 195.2C89.6478 195.025 89.734 194.788 89.7339 194.54V189.771H59.0473Z" fill="#3F3D56"/>
<path d="M11.1602 67.3626V157.678C11.161 158.829 11.5637 159.933 12.28 160.746C12.9963 161.56 13.9676 162.018 14.9806 162.019H132.778C133.791 162.018 134.762 161.56 135.478 160.746C136.194 159.933 136.597 158.829 136.598 157.678V67.3626C136.596 66.2127 136.192 65.1107 135.476 64.298C134.76 63.4853 133.79 63.0282 132.778 63.0267H14.9806C13.9685 63.0282 12.9981 63.4853 12.2821 64.298C11.566 65.1107 11.1626 66.2127 11.1602 67.3626Z" fill="#3F3D56"/>
<path d="M13.9236 68.4863V156.564C13.9245 157.179 14.1399 157.768 14.5226 158.203C14.9054 158.638 15.4242 158.883 15.9654 158.884H131.797C132.338 158.883 132.857 158.638 133.24 158.203C133.622 157.768 133.838 157.179 133.839 156.564V68.4863C133.839 67.8706 133.624 67.2801 133.241 66.8443C132.858 66.4085 132.339 66.163 131.797 66.1616H15.9654C15.4235 66.163 14.9042 66.4085 14.5214 66.8443C14.1386 67.2801 13.9236 67.8706 13.9236 68.4863Z" fill="white"/>
<path d="M35.4199 195.153C35.5378 195.321 35.6877 195.456 35.8583 195.549C36.0288 195.642 36.2157 195.689 36.4048 195.688H105.317C105.506 195.688 105.692 195.64 105.862 195.548C106.032 195.456 106.182 195.321 106.3 195.155C106.419 194.989 106.504 194.794 106.548 194.586C106.592 194.378 106.595 194.162 106.557 193.952L105.487 188.179C105.442 187.943 105.347 187.724 105.209 187.541C105.071 187.359 104.895 187.218 104.697 187.132C104.554 187.068 104.401 187.036 104.247 187.036H37.4702C37.3163 187.036 37.1636 187.068 37.0203 187.132C36.8223 187.218 36.6463 187.359 36.5084 187.541C36.3705 187.724 36.275 187.943 36.2307 188.179L35.161 193.952C35.1229 194.161 35.1264 194.378 35.1712 194.586C35.216 194.793 35.301 194.987 35.4199 195.153Z" fill="#2F2E41"/>
<path d="M128.038 78.2947H19.6548C19.5421 78.2919 19.4349 78.239 19.3561 78.1475C19.2773 78.056 19.2332 77.933 19.2332 77.805C19.2332 77.677 19.2773 77.5541 19.3561 77.4625C19.4349 77.371 19.5421 77.3181 19.6548 77.3153H128.038C128.151 77.3181 128.258 77.371 128.337 77.4625C128.415 77.5541 128.459 77.677 128.459 77.805C128.459 77.933 128.415 78.056 128.337 78.1475C128.258 78.239 128.151 78.2919 128.038 78.2947Z" fill="#3F3D56"/>
<path d="M27.0325 74.8151C28.4275 74.8151 29.5584 73.5016 29.5584 71.8812C29.5584 70.2609 28.4275 68.9474 27.0325 68.9474C25.6375 68.9474 24.5066 70.2609 24.5066 71.8812C24.5066 73.5016 25.6375 74.8151 27.0325 74.8151Z" fill="#3F3D56"/>
<path d="M35.7584 74.8151C37.1534 74.8151 38.2843 73.5016 38.2843 71.8812C38.2843 70.2609 37.1534 68.9474 35.7584 68.9474C34.3634 68.9474 33.2325 70.2609 33.2325 71.8812C33.2325 73.5016 34.3634 74.8151 35.7584 74.8151Z" fill="#3F3D56"/>
<path d="M44.4844 74.8151C45.8794 74.8151 47.0103 73.5016 47.0103 71.8812C47.0103 70.2609 45.8794 68.9474 44.4844 68.9474C43.0893 68.9474 41.9584 70.2609 41.9584 71.8812C41.9584 73.5016 43.0893 74.8151 44.4844 74.8151Z" fill="#3F3D56"/>
<path d="M122.783 69.6729H116.586C116.463 69.6761 116.347 69.7337 116.261 69.8333C116.175 69.9328 116.128 70.0666 116.128 70.2058C116.128 70.345 116.175 70.4787 116.261 70.5783C116.347 70.6779 116.463 70.7355 116.586 70.7387H122.783C122.907 70.7368 123.024 70.6797 123.111 70.58C123.197 70.4803 123.246 70.3458 123.246 70.2058C123.246 70.0657 123.197 69.9313 123.111 69.8316C123.024 69.7318 122.907 69.6748 122.783 69.6729Z" fill="#3F3D56"/>
<path d="M122.783 71.6744H116.586C116.463 71.6775 116.346 71.735 116.261 71.8346C116.175 71.9342 116.127 72.068 116.127 72.2074C116.127 72.3467 116.175 72.4805 116.261 72.5801C116.346 72.6797 116.463 72.7372 116.586 72.7403H122.783C122.907 72.7386 123.025 72.6817 123.111 72.582C123.198 72.4822 123.247 72.3476 123.247 72.2074C123.247 72.0671 123.198 71.9325 123.111 71.8328C123.025 71.733 122.907 71.6761 122.783 71.6744Z" fill="#3F3D56"/>
<path d="M122.783 73.6759H116.586C116.463 73.6791 116.347 73.7367 116.261 73.8363C116.175 73.9359 116.128 74.0696 116.128 74.2089C116.128 74.3481 116.175 74.4818 116.261 74.5814C116.347 74.681 116.463 74.7385 116.586 74.7418H122.783C122.907 74.7398 123.024 74.6828 123.111 74.5831C123.197 74.4833 123.246 74.3489 123.246 74.2089C123.246 74.0688 123.197 73.9344 123.111 73.8346C123.024 73.7349 122.907 73.6779 122.783 73.6759Z" fill="#3F3D56"/>
<path d="M272.196 191.864C272.383 192.483 272.738 193.018 273.21 193.393C273.681 193.769 274.246 193.964 274.821 193.953L286.067 193.624C286.647 193.611 287.207 193.385 287.665 192.98C288.123 192.576 288.453 192.013 288.606 191.378L290.197 172.044C290.762 172.334 291.376 172.478 291.996 172.464C292.534 172.448 293.065 172.313 293.557 172.064C294.049 171.816 294.494 171.46 294.865 171.017C295.236 170.573 295.527 170.051 295.72 169.48C295.914 168.909 296.006 168.3 295.993 167.689C295.979 167.077 295.86 166.474 295.641 165.915C295.423 165.356 295.11 164.851 294.719 164.429C294.329 164.007 293.87 163.677 293.367 163.457C292.864 163.237 292.329 163.132 291.79 163.147C291.542 163.146 291.295 163.176 291.053 163.234C290.79 162.911 290.47 162.653 290.113 162.478C289.757 162.304 289.372 162.216 288.984 162.22L271.686 162.728C271.542 162.734 271.4 162.754 271.259 162.788C270.88 162.868 270.52 163.04 270.204 163.292C269.888 163.543 269.623 163.869 269.427 164.246C269.231 164.624 269.108 165.045 269.068 165.481C269.027 165.917 269.069 166.358 269.19 166.774L272.196 191.864ZM290.523 170.731L291.656 166.124C291.785 165.591 291.788 165.03 291.664 164.496C291.719 164.496 291.768 164.466 291.823 164.466C292.599 164.448 293.35 164.78 293.911 165.39C294.473 166 294.798 166.838 294.816 167.72C294.834 168.603 294.544 169.457 294.008 170.096C293.473 170.735 292.736 171.107 291.96 171.13C291.458 171.148 290.961 171.01 290.523 170.731Z" fill="#2F2E41"/>
<path d="M271.259 162.788C271.628 165.182 275.771 166.865 280.753 166.573C285.335 166.333 289.081 164.505 289.767 162.339C289.513 162.253 289.249 162.213 288.984 162.22L271.686 162.728C271.542 162.734 271.399 162.754 271.259 162.788Z" fill="#3F3D56"/>
<path d="M281.666 181.24C281.689 181.233 281.711 181.222 281.73 181.208L284.172 179.391C284.202 179.37 284.226 179.34 284.243 179.304C284.26 179.269 284.269 179.23 284.269 179.19C284.269 179.15 284.26 179.11 284.243 179.075C284.226 179.04 284.202 179.01 284.173 178.988L281.634 177.099C281.611 177.082 281.585 177.069 281.557 177.063C281.53 177.057 281.502 177.058 281.474 177.064C281.447 177.07 281.421 177.083 281.398 177.101C281.375 177.119 281.355 177.141 281.34 177.168C281.324 177.195 281.314 177.224 281.309 177.255C281.304 177.287 281.304 177.319 281.31 177.35C281.315 177.381 281.326 177.41 281.342 177.436C281.358 177.463 281.378 177.485 281.402 177.502L283.669 179.189L281.498 180.804C281.456 180.835 281.425 180.883 281.411 180.937C281.396 180.992 281.4 181.051 281.42 181.103C281.44 181.155 281.476 181.197 281.521 181.223C281.566 181.248 281.618 181.254 281.666 181.24Z" fill="#418F99"/>
<path d="M277.809 181.442C277.85 181.43 277.887 181.404 277.915 181.369C277.943 181.333 277.961 181.288 277.967 181.241C277.973 181.193 277.966 181.145 277.947 181.102C277.929 181.058 277.899 181.023 277.863 180.999L275.611 179.532L277.787 177.696C277.81 177.677 277.828 177.654 277.843 177.626C277.857 177.599 277.867 177.569 277.871 177.538C277.875 177.507 277.873 177.475 277.866 177.444C277.86 177.413 277.848 177.384 277.831 177.359C277.814 177.334 277.794 177.312 277.77 177.296C277.746 177.28 277.719 177.269 277.692 177.264C277.664 177.26 277.636 177.261 277.609 177.269C277.582 177.277 277.557 177.29 277.534 177.309L275.098 179.365C275.07 179.389 275.047 179.42 275.032 179.457C275.017 179.493 275.011 179.533 275.013 179.573C275.015 179.613 275.026 179.652 275.044 179.686C275.063 179.72 275.089 179.748 275.119 179.768L277.651 181.417C277.699 181.448 277.756 181.457 277.809 181.442Z" fill="#418F99"/>
<path d="M281.423 182.831C281.444 182.825 281.464 182.816 281.482 182.803C281.505 182.787 281.526 182.765 281.543 182.74C281.559 182.714 281.571 182.685 281.578 182.654C281.584 182.624 281.585 182.592 281.581 182.56C281.577 182.529 281.567 182.499 281.553 182.472L278.091 176.005C278.061 175.951 278.014 175.911 277.96 175.896C277.905 175.881 277.847 175.892 277.799 175.925C277.751 175.958 277.717 176.012 277.703 176.074C277.69 176.136 277.699 176.201 277.728 176.256L281.19 182.723C281.214 182.767 281.249 182.801 281.291 182.821C281.333 182.84 281.379 182.844 281.423 182.831Z" fill="#418F99"/>
<path d="M86.7962 104.917H68.0375C67.2722 104.917 66.6519 105.622 66.6519 106.492V108.574C66.6519 109.444 67.2722 110.148 68.0375 110.148H86.7962C87.5615 110.148 88.1818 109.444 88.1818 108.574V106.492C88.1818 105.622 87.5615 104.917 86.7962 104.917Z" fill="#418F99"/>
<path d="M97.7305 115.379H57.1032C56.3379 115.379 55.7175 116.084 55.7175 116.954V119.036C55.7175 119.905 56.3379 120.61 57.1032 120.61H97.7305C98.4958 120.61 99.1162 119.905 99.1162 119.036V116.954C99.1162 116.084 98.4958 115.379 97.7305 115.379Z" fill="#E6E6E6"/>
<path d="M97.7305 125.841H57.1032C56.3379 125.841 55.7175 126.546 55.7175 127.415V129.498C55.7175 130.367 56.3379 131.072 57.1032 131.072H97.7305C98.4958 131.072 99.1162 130.367 99.1162 129.498V127.415C99.1162 126.546 98.4958 125.841 97.7305 125.841Z" fill="#E6E6E6"/>
<path d="M101.174 160.873L101.267 161.203L101.271 161.214L104.041 170.782L107.228 181.808L113.223 202.528L113.281 205.747V205.758L113.726 231.65L112.491 235.16L113.881 240.915C113.881 240.915 113.242 232.216 109.813 237.212C107.872 240.051 105.601 242.956 103.736 245.679C106.453 246.928 109.213 248.058 112.017 249.068C112.622 249.289 113.232 249.498 113.842 249.707C113.973 249.751 114.104 249.795 114.235 249.839C123.529 252.962 133.137 254.716 142.825 255.06C143.328 255.077 143.822 255.088 144.302 255.099C144.471 255.104 144.636 255.11 144.8 255.11C145.343 255.115 145.88 255.121 146.423 255.121C147.517 255.121 148.607 255.102 149.691 255.066C157.72 254.808 165.702 253.582 173.502 251.407C173.449 247.748 173.303 243.473 173.095 238.906C172.998 236.667 170.824 234.241 170.693 231.897C170.601 230.136 172.553 228.48 172.451 226.692C171.792 215.683 170.969 219.909 170.359 212.113C170.296 211.348 170.238 210.616 170.185 209.918C169.792 204.911 169.521 201.78 169.521 201.78L172.127 183.123L176.218 153.831L175.904 153.242L175.55 153.044L153.967 140.907L152.795 137.496C152.454 136.513 151.861 135.669 151.094 135.072C150.327 134.475 149.42 134.152 148.49 134.145L134.273 134.079C133.535 134.075 132.807 134.271 132.149 134.651C131.492 135.031 130.923 135.584 130.491 136.263L126.641 142.321L101.174 160.873Z" fill="#3F3D56"/>
<path d="M116.501 197.918L113.281 205.747L111.082 211.095L107.3 233.592L105.407 235.876L103.785 227.793L86.8059 232.076C86.249 228.56 86.6568 232.195 86.313 228.338C86.4098 228.228 86.5115 228.118 86.6132 228.008C86.8844 227.722 87.112 227.452 87.1072 227.194C86.9135 213.89 87.4946 191.249 92.3467 177.533C93.1067 175.294 94.1087 173.17 95.3297 171.211C95.4265 171.063 95.5186 170.914 95.6106 170.766C97.8478 167.206 99.2618 163.701 101.267 161.209V161.204C101.279 161.192 101.29 161.179 101.3 161.165C101.308 161.161 101.314 161.155 101.32 161.148L115.092 152.852L115.683 171.712L116.104 185.269L116.501 197.918Z" fill="#3F3D56"/>
<path d="M166.16 200.142L170.183 209.92L171.587 213.326L175.368 235.821L177.255 238.099L178.881 230.018L179.645 229.84L193.423 226.597L197.439 241.089C198.344 239.375 198.701 237.359 198.449 235.381C198.196 233.404 197.351 231.585 196.055 230.234C195.781 229.952 195.552 229.678 195.559 229.418C195.787 213.771 194.945 185.199 187.337 173.44C184.921 169.708 183.471 165.991 181.362 163.394C181.356 163.386 181.356 163.379 181.349 163.379L176.217 153.83L175.903 153.244L175.55 153.044L166.16 200.142Z" fill="#3F3D56"/>
<path d="M141.792 129.482C152.239 129.482 160.707 119.86 160.707 107.991C160.707 96.1226 152.239 86.501 141.792 86.501C131.346 86.501 122.878 96.1226 122.878 107.991C122.878 119.86 131.346 129.482 141.792 129.482Z" fill="#FFB6B6"/>
<path d="M167.358 92.9805C167.211 92.8025 167.034 92.6599 166.838 92.5613C166.642 92.4627 166.43 92.4101 166.216 92.4065L166.5 91.5094C166.593 91.2269 166.618 90.9214 166.573 90.6242C166.528 90.327 166.414 90.0488 166.243 89.8182C166.071 89.5875 165.85 89.4127 165.599 89.3115C165.349 89.2104 165.08 89.1866 164.819 89.2426L163.784 89.4693L163.881 88.6832C163.919 88.3904 163.888 88.0915 163.793 87.8161C163.698 87.5406 163.542 87.298 163.339 87.1121C163.137 86.9262 162.895 86.8034 162.638 86.7559C162.381 86.7083 162.117 86.7376 161.873 86.8408C161.651 86.9401 161.413 86.9816 161.175 86.9624C160.937 86.9432 160.705 86.8638 160.498 86.7299C160.29 86.6 160.109 86.4201 159.968 86.2027C159.827 85.9853 159.73 85.7356 159.683 85.471L159.322 83.4936L159.284 83.3875C157.526 80.0596 154.148 77.6385 150.013 76.751C146.333 75.9552 142.559 76.3604 138.921 76.7414C137.478 76.8957 135.848 77.0693 134.489 78.0147C133.335 78.8249 132.358 80.4455 132.558 82.0805C128.971 80.8313 125.125 83.3248 123.219 86.4694C120.961 90.212 120.591 94.9 120.532 98.5655C120.371 107.237 121.945 114.332 125.201 119.656C125.439 120.042 125.498 120.848 125.97 121.118L125.872 120.939C126.398 121.238 126.933 121.721 126.734 122.237C126.161 123.722 129.968 127.007 132.651 128.092C137.546 130.074 144.053 129.905 148.629 129.192L148.79 127.962C150.442 127.706 151.605 127.219 151.932 126.457C152.509 125.897 153.001 125.396 153.43 124.933L153.434 124.928C153.443 124.918 153.46 124.904 153.468 124.894C155.536 122.642 156.015 121.359 156.232 119.406C156.44 117.491 156.07 115.547 155.693 113.797C163.648 115.195 152.56 104.17 159.972 102.038C160.057 102.008 160.143 101.984 160.23 101.966C160.447 101.908 160.663 101.85 160.871 101.782C161.874 101.473 162.834 101.007 163.724 100.398C165.796 98.9658 166.479 97.0655 167.549 94.9241C167.703 94.6192 167.768 94.2663 167.733 93.9167C167.699 93.5672 167.568 93.2392 167.358 92.9805Z" fill="#2F2E41"/>
<path d="M208.691 201.672C208.686 202.516 208.678 203.697 208.644 205.159C208.64 205.361 208.635 205.569 208.631 205.781C208.576 208.467 208.521 210.72 208.432 213.223C208.427 213.396 208.423 213.565 208.415 213.739C208.296 217.231 208.109 221.296 207.786 227.735C207.188 239.629 206.144 229.37 205.095 233.542C205.044 233.749 204.989 233.995 204.938 234.285C204.779 235.335 204.511 236.359 204.14 237.338C203.584 237.714 203.011 238.076 202.446 238.437C200.838 239.455 199.203 240.434 197.556 241.365C196.631 241.886 195.701 242.397 194.767 242.889C194.619 242.966 194.474 243.043 194.33 243.116C189.548 245.629 184.619 247.766 179.579 249.511C178.594 249.849 177.614 250.177 176.62 250.48C175.584 250.808 174.549 251.117 173.5 251.406C165.7 253.582 157.719 254.809 149.69 255.067C148.608 255.106 147.517 255.12 146.422 255.12C145.878 255.12 145.343 255.115 144.8 255.11C144.635 255.11 144.469 255.106 144.303 255.101C143.824 255.086 143.327 255.077 142.826 255.062C133.139 254.719 123.53 252.963 114.237 249.839L113.842 249.709C113.231 249.496 112.624 249.289 112.017 249.067C109.215 248.059 106.454 246.931 103.735 245.681C101.659 244.731 99.6071 243.712 97.5795 242.624C97.561 242.618 97.5436 242.608 97.5285 242.595C97.104 242.373 96.6753 242.141 96.2508 241.905C96.1956 241.871 96.1362 241.838 96.0768 241.804C94.4934 240.926 92.927 240.006 91.3776 239.045C90.0744 235.645 88.2406 234.994 87.103 232.003C86.7719 231.115 86.5326 230.186 86.3898 229.235C86.3898 229.225 86.3856 229.216 86.3856 229.201C86.5044 230.995 85.8804 226.018 86.3813 229.182C86.3771 229.124 86.3729 229.061 86.3686 228.989C86.3559 228.815 86.3389 228.603 86.3134 228.338C84.8574 212.186 84.9508 193.714 84.3183 178.492C84.2759 177.508 84.232 176.566 84.1867 175.666C84.174 175.367 84.157 175.073 84.14 174.783C84.1697 174.697 84.2037 174.605 84.2419 174.518C84.25 174.493 84.26 174.469 84.2716 174.446C84.2841 174.416 84.2983 174.387 84.3141 174.359C84.3225 174.344 84.3353 174.325 84.3438 174.311C84.35 174.294 84.3571 174.278 84.365 174.262C84.4032 174.195 84.4456 174.123 84.4923 174.055C84.5136 174.026 84.5305 174.002 84.5518 173.978C84.5664 173.953 84.5835 173.931 84.6027 173.91C84.6157 173.887 84.6314 173.866 84.6494 173.848C84.6664 173.828 84.6834 173.804 84.7046 173.78C84.7137 173.765 84.7252 173.752 84.7386 173.742C84.7721 173.698 84.8091 173.657 84.8489 173.621C85.0004 173.463 85.1621 173.318 85.3328 173.187C85.3922 173.144 85.4559 173.1 85.5154 173.052C85.9432 172.761 86.3936 172.516 86.861 172.319C87.0223 172.251 87.1836 172.189 87.3577 172.121C87.4213 172.102 87.4808 172.078 87.5444 172.054C87.6378 172.02 87.7312 171.986 87.8289 171.962C88.3128 171.798 88.8349 171.658 89.3995 171.528C89.4674 171.513 89.5396 171.499 89.6117 171.48C89.7136 171.456 89.8197 171.436 89.9259 171.417C90.0702 171.388 90.2188 171.359 90.3673 171.33C91.6281 171.103 93.0586 170.935 94.6377 170.824C94.7863 170.814 94.9349 170.804 95.0835 170.795C95.2575 170.785 95.4315 170.775 95.6098 170.766C95.7584 170.756 95.9112 170.751 96.064 170.747C96.2126 170.737 96.3654 170.732 96.5225 170.727C96.9512 170.713 97.3927 170.698 97.8427 170.689C99.1246 170.66 100.475 170.669 101.892 170.703C102.55 170.722 103.221 170.742 103.909 170.775C103.955 170.775 103.998 170.78 104.04 170.78C104.639 170.804 105.242 170.833 105.861 170.872C106.294 170.896 106.732 170.92 107.169 170.949C107.581 170.978 107.997 171.007 108.417 171.041C108.744 171.06 109.07 171.089 109.402 171.113C109.682 171.137 109.962 171.161 110.242 171.181L110.624 171.21C110.832 171.229 111.04 171.243 111.252 171.267C111.719 171.311 112.186 171.354 112.662 171.398C113.133 171.446 113.613 171.494 114.092 171.542C114.572 171.591 115.056 171.644 115.54 171.697C115.591 171.701 115.637 171.706 115.684 171.711C116.126 171.764 116.567 171.812 117.013 171.865C117.115 171.875 117.221 171.885 117.323 171.899C117.748 171.948 118.181 172.005 118.61 172.056C118.741 172.072 118.872 172.088 119.004 172.104C119.34 172.146 119.671 172.182 120.01 172.227C120.455 172.285 120.91 172.338 121.351 172.406C121.695 172.449 122.039 172.492 122.383 172.541C122.922 172.613 123.469 172.69 124.017 172.772C124.225 172.801 124.433 172.83 124.641 172.864C126.203 173.086 127.782 173.332 129.387 173.587C131.819 173.978 134.29 174.402 136.777 174.861C139.269 175.319 141.775 175.803 144.295 176.312C144.932 176.442 145.568 176.573 146.209 176.708C146.498 176.77 146.787 176.833 147.075 176.896C147.568 176.997 148.06 177.103 148.553 177.209C149.045 177.315 149.537 177.422 150.03 177.532C150.616 177.663 151.206 177.793 151.791 177.923C155.65 178.791 159.488 179.717 163.232 180.687C163.847 180.846 164.463 181.01 165.074 181.169C166.296 181.492 167.508 181.82 168.708 182.153C169.039 182.24 169.366 182.331 169.692 182.423C170.507 182.654 171.322 182.886 172.125 183.122L172.265 183.166C172.855 183.33 173.432 183.499 174.009 183.672C175.372 184.077 176.712 184.487 178.029 184.902C178.904 185.177 179.768 185.455 180.623 185.736C181.901 186.156 183.153 186.58 184.371 187.01C184.673 187.116 184.974 187.222 185.271 187.323C186.163 187.637 187.041 187.955 187.895 188.273C188.574 188.524 189.236 188.78 189.89 189.035C190.544 189.291 191.185 189.547 191.813 189.802C192.216 189.966 192.615 190.14 193.014 190.304C193.587 190.545 194.152 190.786 194.704 191.027C194.873 191.1 195.039 191.177 195.204 191.249C195.311 191.302 195.412 191.346 195.514 191.394C195.714 191.485 195.918 191.572 196.113 191.664C196.312 191.751 196.508 191.842 196.703 191.939C196.894 192.026 197.089 192.117 197.276 192.209C197.467 192.296 197.654 192.387 197.841 192.484C197.998 192.556 198.15 192.633 198.299 192.71C198.6 192.86 198.902 193.009 199.195 193.164C199.339 193.241 199.483 193.313 199.628 193.39L199.959 193.564C200.005 193.593 200.052 193.617 200.099 193.641C200.205 193.699 200.315 193.762 200.421 193.82C200.668 193.95 200.91 194.09 201.147 194.22C201.466 194.403 201.776 194.587 202.073 194.765C202.374 194.948 202.667 195.132 202.947 195.31C202.994 195.339 203.036 195.368 203.083 195.397C203.147 195.435 203.21 195.479 203.274 195.517C203.491 195.657 203.699 195.802 203.907 195.942C204.314 196.226 204.7 196.506 205.061 196.786C205.142 196.849 205.218 196.911 205.299 196.969C205.566 197.186 205.821 197.398 206.059 197.615C206.059 197.62 206.059 197.62 206.063 197.62C206.144 197.688 206.22 197.76 206.296 197.828C206.36 197.895 206.428 197.953 206.492 198.021C206.712 198.238 206.916 198.445 207.103 198.657C207.166 198.723 207.225 198.792 207.281 198.865C207.306 198.888 207.329 198.914 207.349 198.942C207.434 199.038 207.511 199.135 207.583 199.231C207.594 199.244 207.604 199.259 207.612 199.275C207.714 199.41 207.808 199.545 207.897 199.68C207.939 199.747 207.986 199.815 208.024 199.882C208.075 199.964 208.126 200.051 208.168 200.133C208.207 200.201 208.241 200.273 208.275 200.34C208.365 200.514 208.441 200.697 208.504 200.885C208.552 201.013 208.59 201.146 208.618 201.281C208.651 201.409 208.675 201.54 208.691 201.672Z" fill="#2F2E41"/>
<path opacity="0.2" d="M208.691 201.672C208.686 202.516 208.678 203.697 208.644 205.159C208.64 205.361 208.631 205.569 208.627 205.781C208.585 207.831 208.521 210.363 208.432 213.223C208.428 213.396 208.423 213.565 208.415 213.739C208.296 217.231 208.109 221.296 207.787 227.735C207.188 239.629 206.144 229.37 205.095 233.542C202.183 231.507 198.991 229.375 195.578 227.185C194.963 226.79 194.341 226.393 193.715 225.994C186.889 221.668 179.265 217.134 171.306 212.644C170.991 212.466 170.673 212.287 170.359 212.113C152.127 201.874 132.227 191.915 116.104 185.269C112.993 183.986 110.021 182.828 107.228 181.811C101.345 179.674 96.2593 178.179 92.3455 177.533C88.2704 176.857 85.456 177.098 84.3183 178.492C84.2759 177.508 84.232 176.566 84.1867 175.666C84.1697 175.367 84.1528 175.073 84.1358 174.783C84.162 174.704 84.196 174.628 84.229 174.552C84.2337 174.541 84.2371 174.529 84.2419 174.518C84.2501 174.493 84.26 174.469 84.2716 174.446C84.2842 174.416 84.2983 174.387 84.3141 174.359C84.3279 174.325 84.345 174.292 84.365 174.263C84.4032 174.195 84.4457 174.123 84.4924 174.055C84.5267 174.005 84.5636 173.956 84.6027 173.91C84.6158 173.887 84.6315 173.866 84.6494 173.848C84.6664 173.828 84.6834 173.804 84.7046 173.78C84.7137 173.765 84.7252 173.752 84.7386 173.742C84.7722 173.698 84.8091 173.657 84.849 173.621C85.0004 173.463 85.1622 173.318 85.3329 173.187C85.3923 173.144 85.456 173.1 85.5154 173.052C85.9432 172.761 86.3937 172.516 86.8611 172.319C87.0224 172.251 87.1837 172.189 87.3577 172.121C87.4214 172.102 87.4808 172.078 87.5445 172.054C87.6379 172.02 87.7313 171.986 87.8289 171.962C88.3128 171.798 88.8349 171.658 89.3995 171.528C89.5693 171.489 89.7476 171.451 89.9259 171.417C90.0702 171.388 90.2188 171.359 90.3674 171.33C91.6281 171.103 93.0587 170.935 94.6378 170.824C94.7864 170.814 94.9349 170.804 95.0835 170.795C95.2575 170.785 95.4316 170.775 95.6099 170.766C95.7584 170.756 95.9113 170.751 96.0641 170.747C96.2126 170.737 96.3655 170.732 96.5225 170.727C96.9513 170.713 97.3927 170.698 97.8427 170.689C99.1247 170.665 100.475 170.674 101.892 170.708C102.55 170.722 103.221 170.747 103.909 170.78C103.951 170.78 103.998 170.785 104.04 170.785C104.639 170.804 105.246 170.838 105.861 170.872C106.294 170.896 106.732 170.92 107.169 170.949C107.581 170.978 107.997 171.007 108.417 171.041C108.744 171.06 109.071 171.089 109.402 171.113C109.682 171.137 109.962 171.161 110.242 171.181C110.577 171.21 110.913 171.239 111.252 171.267C111.719 171.311 112.186 171.354 112.662 171.398C113.133 171.446 113.613 171.494 114.092 171.542C114.572 171.591 115.056 171.644 115.54 171.697C115.591 171.702 115.637 171.706 115.684 171.711C116.126 171.764 116.567 171.812 117.013 171.866C119.483 172.15 122.026 172.483 124.641 172.864C126.203 173.091 127.785 173.333 129.387 173.592C131.819 173.983 134.29 174.407 136.777 174.861C139.269 175.319 141.775 175.803 144.295 176.312C144.932 176.443 145.568 176.573 146.209 176.708C146.991 176.872 147.772 177.039 148.553 177.209C149.045 177.315 149.538 177.422 150.03 177.533C150.616 177.663 151.206 177.793 151.792 177.923C155.65 178.791 159.488 179.717 163.232 180.687C163.847 180.846 164.463 181.01 165.074 181.169C166.297 181.492 167.508 181.82 168.708 182.153C169.039 182.245 169.366 182.336 169.692 182.428C170.512 182.659 171.323 182.891 172.125 183.122V183.127C172.172 183.137 172.218 183.151 172.265 183.166C172.851 183.335 173.432 183.503 174.01 183.677C175.372 184.082 176.712 184.491 178.03 184.902C178.904 185.182 179.77 185.457 180.623 185.736C181.901 186.161 183.153 186.585 184.371 187.01C184.673 187.116 184.974 187.222 185.271 187.323C186.163 187.642 187.037 187.958 187.895 188.273C188.574 188.524 189.236 188.78 189.89 189.035C190.544 189.291 191.185 189.547 191.813 189.802C192.22 189.966 192.619 190.135 193.014 190.299C193.591 190.54 194.152 190.781 194.704 191.027C194.873 191.1 195.039 191.177 195.205 191.249C195.514 191.384 195.816 191.524 196.113 191.664C196.312 191.751 196.508 191.842 196.703 191.939C196.894 192.026 197.089 192.117 197.276 192.209C197.467 192.296 197.654 192.387 197.841 192.484C197.998 192.556 198.151 192.633 198.299 192.711C198.6 192.86 198.902 193.01 199.195 193.164C199.339 193.241 199.483 193.313 199.628 193.391L199.959 193.564C200.006 193.593 200.052 193.617 200.099 193.641C200.46 193.834 200.808 194.027 201.147 194.22C201.466 194.403 201.776 194.587 202.073 194.765C202.425 194.977 202.761 195.185 203.083 195.397C203.147 195.435 203.21 195.479 203.274 195.517C203.491 195.657 203.699 195.802 203.907 195.942C204.314 196.226 204.7 196.506 205.061 196.786C205.418 197.066 205.749 197.341 206.059 197.615C206.059 197.62 206.059 197.62 206.063 197.62C206.212 197.755 206.356 197.89 206.492 198.021C206.713 198.238 206.916 198.445 207.103 198.657C207.166 198.723 207.225 198.792 207.281 198.865C207.306 198.888 207.329 198.914 207.349 198.942C207.438 199.053 207.528 199.164 207.613 199.275C207.714 199.41 207.808 199.545 207.897 199.68C207.939 199.747 207.986 199.815 208.024 199.882C208.075 199.964 208.126 200.051 208.169 200.133C208.207 200.201 208.241 200.273 208.275 200.34C208.365 200.514 208.441 200.697 208.504 200.885C208.55 201.014 208.589 201.146 208.619 201.281C208.651 201.409 208.675 201.54 208.691 201.672Z" fill="black"/>
</g>
<defs>
<clipPath id="clip0_132_97">
<rect width="334" height="276" fill="white"/>
</clipPath>
</defs>
</svg>
