<svg width="278" height="190" viewBox="0 0 278 190" fill="none" xmlns="http://www.w3.org/2000/svg">
<g clip-path="url(#clip0_193_1832)">
<path d="M203.964 0.109802H0.0869141V124.345H203.964V0.109802Z" fill="#E6E6E6"/>
<path d="M198.134 15.692H5.91675V116.996H198.134V15.692Z" fill="white"/>
<path d="M203.877 0H0V8.24106H203.877V0Z" fill="#418F99"/>
<path d="M6.43677 5.74103C7.32344 5.74103 8.04223 5.05712 8.04223 4.21347C8.04223 3.36982 7.32344 2.68591 6.43677 2.68591C5.55009 2.68591 4.8313 3.36982 4.8313 4.21347C4.8313 5.05712 5.55009 5.74103 6.43677 5.74103Z" fill="white"/>
<path d="M12.53 5.74103C13.4167 5.74103 14.1355 5.05712 14.1355 4.21347C14.1355 3.36982 13.4167 2.68591 12.53 2.68591C11.6434 2.68591 10.9246 3.36982 10.9246 4.21347C10.9246 5.05712 11.6434 5.74103 12.53 5.74103Z" fill="white"/>
<path d="M18.6233 5.74103C19.51 5.74103 20.2288 5.05712 20.2288 4.21347C20.2288 3.36982 19.51 2.68591 18.6233 2.68591C17.7366 2.68591 17.0178 3.36982 17.0178 4.21347C17.0178 5.05712 17.7366 5.74103 18.6233 5.74103Z" fill="white"/>
<path d="M67.1618 24.0245H29.5669V62.8324H67.1618V24.0245Z" fill="#E6E6E6"/>
<path d="M120.823 24.0245H83.2278V62.8324H120.823V24.0245Z" fill="#E6E6E6"/>
<path d="M174.483 24.0245H136.888V62.8324H174.483V24.0245Z" fill="#E6E6E6"/>
<path d="M67.1618 69.8567H29.5669V108.665H67.1618V69.8567Z" fill="#E6E6E6"/>
<path d="M120.823 69.8567H83.2278V108.665H120.823V69.8567Z" fill="#E6E6E6"/>
<path d="M174.483 69.8567H136.888V108.665H174.483V69.8567Z" fill="#E6E6E6"/>
<path d="M92.3145 79.8305L99.1835 77.2466L99.9823 90.166C99.9823 90.166 101.42 94.1177 100.941 95.6378C100.941 95.6378 101.26 98.2217 100.461 98.3737C99.6626 98.5256 97.4257 98.8298 97.2676 98.6775C97.1094 98.5253 97.1079 98.0695 97.1079 98.0695C97.1079 98.0695 95.5103 99.1334 95.3506 100.349C95.3506 100.349 88.6413 102.325 88.4816 100.501C88.3219 98.6772 91.8361 97.1572 91.8361 97.1572L94.5518 93.2055L92.3145 79.8305Z" fill="white"/>
<path d="M106.852 79.8305L113.72 77.2466L114.519 90.166C114.519 90.166 115.956 94.1177 115.477 95.6378C115.477 95.6378 115.797 98.2217 114.998 98.3737C114.199 98.5256 111.962 98.8298 111.804 98.6775C111.646 98.5253 111.644 98.0695 111.644 98.0695C111.644 98.0695 110.047 99.1334 109.887 100.349C109.887 100.349 103.178 102.325 103.018 100.501C102.858 98.6772 106.372 97.1572 106.372 97.1572L109.088 93.2055L106.852 79.8305Z" fill="white"/>
<path d="M107.523 29.9404C107.523 29.9404 106.061 33.829 107.755 35.5825L106.342 40.2019C106.342 40.2019 111.362 54.5303 109.928 56.5317C109.928 56.5317 104.574 59.079 93.8638 55.6219L98.2141 39.5649L97.5927 32.7873L98.4531 29.6031L100.365 29.4226C100.365 29.4226 99.2181 33.5164 101.322 34.1533C103.425 34.7903 105.477 29.5249 105.477 29.5249L107.523 29.9404Z" fill="#3F3D56"/>
<path d="M39.9773 55.0418L41.8231 55.7603L50.6324 44.7442L53.401 57.676L55.2468 57.3567C56.4307 46.2077 57.3971 34.836 56.2116 29.4575L49.3739 29.178L46.2698 38.5988L44.7595 44.9849L39.9773 55.0418Z" fill="white"/>
<path d="M152.002 29.3693C152.002 29.3693 149.483 32.7012 149.606 34.0459C149.729 35.3905 151.326 57.3119 151.326 57.3119L155.074 57.4873L153.967 41.7038L154.889 37.4365L157.162 57.3119L161.77 57.4289L157.654 31.6494L156.855 29.3696L152.002 29.3693Z" fill="white"/>
<path d="M166.239 83.0478C165.57 82.2841 164.42 81.8713 163.316 81.6481C163.348 81.5527 159.958 80.8863 159.901 81.0235L158.623 80.0549L154.696 81.9947L152.49 80.5655L151.465 80.9115C151.507 80.7394 148.284 81.2708 148.284 81.2708C147.668 81.2918 146.882 81.3285 146.001 81.3929C142.918 81.6186 142.681 89.2158 142.681 89.2158C144.099 88.6637 145.612 88.3624 147.144 88.3267L147.977 97.4132C152.263 97.0636 156.758 97.4704 161.417 98.4663L163.601 91.3234L168.689 89.4408C168.689 89.4408 167.82 84.8527 166.239 83.0478Z" fill="#3F3D56"/>
<path d="M57.0598 78.7209C56.5086 78.0918 55.5615 77.7515 54.6517 77.5677C54.6789 77.4888 51.8851 76.94 51.8373 77.0532L50.7843 76.2552L47.5497 77.8535L45.7317 76.6762L44.8874 76.9614C44.9219 76.8197 42.2659 77.2572 42.2659 77.2572C41.7599 77.2746 41.1104 77.3047 40.3853 77.358C37.8451 77.5439 37.6497 83.8031 37.6497 83.8031C38.8184 83.3481 40.0646 83.0999 41.327 83.0704L42.0135 101.398C45.5448 101.11 49.2484 101.445 53.0861 102.266L54.886 85.54L59.0782 83.989C59.0782 83.989 58.3623 80.2088 57.0598 78.7209Z" fill="white"/>
<path d="M236.994 83.5994H255.018V74.4226C255.018 72.1483 254.069 69.9672 252.379 68.3591C250.689 66.751 248.396 65.8475 246.006 65.8475C243.616 65.8475 241.323 66.751 239.633 68.3591C237.943 69.9672 236.994 72.1483 236.994 74.4226V83.5994Z" fill="#2F2E41"/>
<path d="M228.947 185.701H225.071L223.226 171.471H228.948L228.947 185.701Z" fill="#FFB6B6"/>
<path d="M229.936 184.496H222.301C221.011 184.496 219.773 184.984 218.861 185.852C217.948 186.72 217.436 187.897 217.436 189.125V189.276H229.936V184.496Z" fill="#2F2E41"/>
<path d="M275.291 180.778L271.915 182.591L262.957 171.064L267.94 168.388L275.291 180.778Z" fill="#FFB6B6"/>
<path d="M275.53 179.267L268.881 182.837C267.758 183.44 266.932 184.444 266.586 185.627C266.24 186.81 266.402 188.075 267.037 189.144L267.114 189.275L278 183.428L275.53 179.267Z" fill="#2F2E41"/>
<path d="M250.514 121.713L250.813 123.136C250.813 123.136 251.71 123.99 251.262 124.416C250.813 124.843 250.963 126.836 250.963 126.836C251.214 130.47 256.203 150.887 257.096 154.875C257.096 154.875 263.977 159.144 269.362 167.542C274.747 175.939 274.896 178.074 274.896 178.074L268.913 180.494L253.956 163.272C253.956 163.272 249.768 160.853 248.272 158.718C246.775 156.583 237.5 134.522 237.5 134.522L232.263 157.579C232.263 157.579 232.562 165.976 231.216 171.385C230.388 174.798 229.888 178.276 229.72 181.775L222.69 181.063C222.69 181.063 223.138 160.853 223.886 158.718C223.886 158.718 220.745 134.095 227.028 124.274L232.091 111.431L237.05 109.615L250.514 121.713Z" fill="#2F2E41"/>
<path d="M246.099 68.0908C236.661 68.2443 236.662 81.6024 246.099 81.7543C255.537 81.6009 255.536 68.2428 246.099 68.0908Z" fill="#FFB8B8"/>
<path d="M238.835 74.5682H240.439L240.876 73.5289L240.658 74.5682H249.431L249.147 72.3937L251.279 74.5682H253.406V73.3899C253.407 72.4796 253.219 71.5781 252.854 70.7369C252.488 69.8957 251.952 69.1312 251.276 68.4871C250.6 67.8429 249.798 67.3318 248.914 66.9829C248.03 66.6339 247.083 66.454 246.126 66.4534C245.17 66.4527 244.222 66.6314 243.338 66.9791C242.454 67.3269 241.651 67.8369 240.974 68.4801C240.297 69.1233 239.759 69.8871 239.393 70.7279C239.026 71.5686 238.837 72.4698 238.836 73.3801V73.3899L238.835 74.5682Z" fill="#2F2E41"/>
<path d="M236.366 85.7434L254.201 85.8809L250.433 122.262C250.433 122.262 229.575 121.215 229.562 115.157L231.516 109.774L236.366 85.7434Z" fill="#3F3D56"/>
<path d="M254.968 125.779C254.694 125.46 254.497 125.087 254.39 124.687C254.284 124.287 254.271 123.87 254.352 123.465C254.434 123.06 254.607 122.677 254.861 122.342C255.115 122.008 255.443 121.731 255.822 121.53L255.047 115.125L259.023 113.728L259.984 122.788C260.294 123.415 260.352 124.129 260.146 124.794C259.941 125.46 259.487 126.03 258.869 126.399C258.252 126.767 257.514 126.907 256.795 126.793C256.076 126.679 255.426 126.318 254.968 125.779Z" fill="#FFB6B6"/>
<path d="M251.856 89.0152L254.203 85.8941C254.203 85.8941 255.809 85.5551 257.706 87.6612C259.604 89.7674 260.71 116.094 260.71 116.094L253.753 117.599L249.643 98.9441L251.856 89.0152Z" fill="#3F3D56"/>
<path d="M212.545 117.565L213.062 140.954L228.976 148.956L257.957 144.032L258.669 119.719L240.297 113.564L212.545 117.565Z" fill="white"/>
<path d="M228.935 149.209L212.811 141.102L212.286 117.358L240.322 113.316L240.381 113.336L258.928 119.55L258.206 144.235L228.935 149.209ZM213.313 140.807L229.018 148.703L257.709 143.828L258.41 119.889L240.272 113.812L212.803 117.772L213.313 140.807Z" fill="#CACACA"/>
<path d="M228.621 123.906L228.559 123.883L212.451 117.789L212.638 117.34L228.684 123.41L258.634 119.48L258.704 119.959L228.621 123.906Z" fill="#CACACA"/>
<path d="M228.907 123.655L228.399 123.661L228.722 148.959L229.23 148.953L228.907 123.655Z" fill="#CACACA"/>
<path d="M226.586 122.696L220.779 120.456L248.732 116.218L254.538 118.458L226.586 122.696Z" fill="#CACACA"/>
<path d="M212.645 124.35L212.444 124.794L219.179 127.553L219.38 127.109L212.645 124.35Z" fill="#CACACA"/>
<path d="M215.695 132.329L215.494 132.773L222.228 135.532L222.429 135.088L215.695 132.329Z" fill="#418F99"/>
<path d="M124.002 150.06L124.52 173.449L140.433 181.451L169.415 176.527L170.127 152.214L151.754 146.059L124.002 150.06Z" fill="white"/>
<path d="M140.392 181.703L124.269 173.596L123.743 149.852L151.779 145.811L151.839 145.831L170.386 152.044L169.663 176.73L140.392 181.703ZM124.771 173.302L140.475 181.198L169.167 176.323L169.867 152.383L151.73 146.307L124.261 150.267L124.771 173.302Z" fill="#CACACA"/>
<path d="M140.079 156.401L140.016 156.378L123.908 150.284L124.096 149.835L140.142 155.905L170.092 151.975L170.162 152.454L140.079 156.401Z" fill="#CACACA"/>
<path d="M140.364 156.15L139.856 156.156L140.179 181.454L140.688 181.448L140.364 156.15Z" fill="#CACACA"/>
<path d="M136.637 154.64L132.237 152.951L160.189 148.713L164.589 150.402L136.637 154.64Z" fill="#CACACA"/>
<path d="M124.103 156.845L123.902 157.289L130.636 160.048L130.837 159.603L124.103 156.845Z" fill="#CACACA"/>
<path d="M127.152 164.824L126.951 165.268L133.686 168.027L133.887 167.583L127.152 164.824Z" fill="#418F99"/>
<path d="M151.649 153.267L152.25 180.418L170.723 189.707L204.366 183.991L205.192 155.767L183.865 148.622L151.649 153.267Z" fill="#418F99"/>
<path d="M170.675 190L151.959 180.589L151.349 153.026L183.894 148.334L183.963 148.357L205.493 155.571L204.654 184.227L170.675 190ZM152.541 180.247L170.771 189.413L204.078 183.754L204.891 155.964L183.836 148.91L151.949 153.507L152.541 180.247Z" fill="#3F3D56"/>
<path d="M170.311 160.628L170.239 160.601L151.54 153.527L151.758 153.006L170.384 160.052L205.152 155.489L205.232 156.045L170.311 160.628Z" fill="#3F3D56"/>
<path d="M170.643 160.337L170.053 160.344L170.428 189.71L171.018 189.703L170.643 160.337Z" fill="#3F3D56"/>
<path d="M166.614 158.596L161.208 156.623L193.656 151.703L199.063 153.677L166.614 158.596Z" fill="#3F3D56"/>
<path d="M151.766 161.143L151.532 161.658L159.35 164.861L159.583 164.345L151.766 161.143Z" fill="#3F3D56"/>
<path d="M155.306 170.406L155.072 170.921L162.89 174.124L163.123 173.608L155.306 170.406Z" fill="white"/>
<path d="M221.568 121.432C221.96 121.257 222.307 121.002 222.585 120.685C222.863 120.369 223.064 119.998 223.175 119.599C223.285 119.201 223.303 118.784 223.226 118.378C223.149 117.972 222.979 117.587 222.729 117.25L226.341 111.795L223.393 108.898L218.406 116.67C217.839 117.107 217.461 117.727 217.342 118.413C217.224 119.098 217.374 119.8 217.764 120.387C218.154 120.974 218.756 121.405 219.457 121.598C220.158 121.79 220.909 121.732 221.568 121.433V121.432Z" fill="#FFB6B6"/>
<path d="M239.107 87.1774L236.52 85.5551C236.52 85.5551 234.523 85.9811 232.399 89.8678C230.275 93.7546 221.71 111.132 221.71 111.132L225.231 114.531L234.623 100.899L239.107 87.1774Z" fill="#3F3D56"/>
</g>
<defs>
<clipPath id="clip0_193_1832">
<rect width="278" height="190" fill="white"/>
</clipPath>
</defs>
</svg>
